<svg width="64" height="64" viewBox="0 0 64 64" fill="none" xmlns="http://www.w3.org/2000/svg">
<rect width="64" height="64" rx="32" fill="#F2FBFF"/>
<path d="M6.40039 31.9999C6.40039 17.8614 17.8619 6.3999 32.0004 6.3999C46.1389 6.3999 57.6004 17.8614 57.6004 31.9999C57.6004 46.1384 46.1389 57.5999 32.0004 57.5999C17.8619 57.5999 6.40039 46.1384 6.40039 31.9999Z" fill="#D1F0FF"/>
<path fill-rule="evenodd" clip-rule="evenodd" d="M23.2959 45.0051L26.3484 46.7669C26.2071 46.6632 26.2071 46.4937 26.2259 46.3335L27.6674 38.0711C27.7239 37.7225 27.7145 37.3457 27.3941 37.1384L24.3417 35.3767L24.2946 35.3484C24.662 35.5651 24.6808 35.9137 24.6149 36.3094L23.1734 44.5717C23.1546 44.7319 23.1452 44.9015 23.2959 45.0051Z" fill="#0076BF"/>
<path fill-rule="evenodd" clip-rule="evenodd" d="M23.3994 44.8543L26.0279 46.3711C26.3671 43.6955 27.0077 40.7373 27.4788 38.0428C27.4976 37.8921 27.5165 37.7319 27.4788 37.5906C27.4505 37.4775 27.394 37.3645 27.2809 37.2891L24.8126 35.8665C24.8314 36.0172 24.8126 36.168 24.7937 36.3376L23.3523 44.6094C23.3523 44.6659 23.3429 44.7319 23.3523 44.779C23.3523 44.8072 23.3711 44.8355 23.39 44.8543H23.3994ZM26.254 46.9364L23.1921 45.1652C23.0697 45.0804 23.0131 44.9768 22.9943 44.8543C22.9754 44.7507 22.9849 44.6565 22.9943 44.5623L24.4357 36.2905C24.464 36.1209 24.4734 35.9513 24.4357 35.8194C24.4075 35.7063 24.3321 35.6027 24.2002 35.5179C24.1154 35.4708 24.0777 35.3578 24.1248 35.2635C24.1719 35.1693 24.285 35.1317 24.3792 35.1882C25.4155 35.7346 26.4801 36.3941 27.4976 36.9876C27.7049 37.1289 27.8085 37.3174 27.8556 37.5246C27.8933 37.7131 27.8839 37.9203 27.8556 38.1088L26.4142 46.3806C26.4142 46.4371 26.4048 46.4936 26.4142 46.5407C26.4142 46.5784 26.433 46.6067 26.4613 46.6161C26.5367 46.6726 26.5649 46.7763 26.5178 46.8705C26.4613 46.9647 26.3482 46.9929 26.2634 46.9364H26.254Z" fill="#0076BF"/>
<path fill-rule="evenodd" clip-rule="evenodd" d="M33.3867 23.0915L36.4392 24.8532C36.6559 24.9474 36.8349 24.9097 37.0422 24.8155L43.6087 21.7442C43.7124 21.6971 43.8066 21.6783 43.9102 21.7442L40.8577 19.9825C40.7541 19.9259 40.6599 19.9448 40.5562 19.9825L33.9897 23.0538C33.7824 23.148 33.6034 23.1857 33.3867 23.0915Z" fill="#0076BF"/>
<path fill-rule="evenodd" clip-rule="evenodd" d="M34.0265 23.2516L36.5137 24.6931C36.589 24.7213 36.655 24.7307 36.7209 24.7307C36.7963 24.7307 36.8717 24.6931 36.9564 24.6554L43.3629 21.6594L40.7532 20.152C40.7344 20.152 40.7249 20.1426 40.7155 20.1426C40.6967 20.1426 40.6684 20.152 40.6307 20.1709C38.4544 21.0282 36.2122 22.3378 34.0265 23.261V23.2516ZM36.3347 25.0228L33.2916 23.2705C33.1974 23.2234 33.1597 23.1197 33.2068 23.0255C33.2539 22.9313 33.3576 22.8842 33.4612 22.9313C33.5366 22.969 33.6025 22.9784 33.6685 22.969C33.7438 22.969 33.8192 22.9313 33.9134 22.8936L40.48 19.8129C40.5459 19.7846 40.6119 19.7658 40.6872 19.7563C40.772 19.7563 40.8474 19.7658 40.9416 19.8129L44.0035 21.5746C44.0977 21.6312 44.126 21.7442 44.0695 21.829C44.0223 21.9232 43.8999 21.9515 43.8151 21.9044C43.7962 21.895 43.7868 21.895 43.7774 21.895C43.7586 21.895 43.7209 21.9044 43.6832 21.9232L37.1166 24.9945C36.9941 25.0416 36.8905 25.0887 36.768 25.0982C36.6361 25.1076 36.5042 25.0982 36.3629 25.0322H36.3441L36.3347 25.0228Z" fill="#0076BF"/>
<path fill-rule="evenodd" clip-rule="evenodd" d="M26.1885 27.5571L19.6219 32.0605C19.4712 32.1735 19.3864 32.2771 19.3016 32.4467C19.2074 32.6446 19.1038 32.9932 19.3205 33.1533L22.3729 34.9151C22.1468 34.7455 22.2693 34.3686 22.3729 34.1614C22.4577 34.0201 22.5425 33.9164 22.6744 33.8222L29.241 29.3189C29.6649 29.008 29.9193 28.6217 30.0889 28.1224L32.708 19.615C32.8022 19.3607 33.1414 18.8142 33.4805 19.0027L30.4281 17.2409C30.0889 17.0619 29.7403 17.5989 29.6555 17.8533L27.0364 26.3606C26.8763 26.8599 26.6125 27.2462 26.1885 27.5571Z" fill="#0076BF"/>
<path fill-rule="evenodd" clip-rule="evenodd" d="M26.3014 27.7172L19.7348 32.2205C19.6689 32.2676 19.6218 32.3148 19.5841 32.3619C19.5464 32.4184 19.5087 32.4749 19.4805 32.5314C19.4334 32.6257 19.3863 32.767 19.3863 32.88C19.3863 32.9271 19.4051 32.9742 19.4334 33.0025L22.0619 34.5193C22.0807 34.3592 22.1467 34.1896 22.2032 34.0765C22.2503 33.9917 22.2974 33.9164 22.3539 33.8504C22.4105 33.7845 22.4764 33.7279 22.5518 33.6714L29.1184 29.1681C29.3162 29.0268 29.467 28.8666 29.5989 28.6876C29.7213 28.5086 29.825 28.3013 29.9003 28.0658C30.8801 25.3525 31.5961 22.3283 32.5194 19.5584C32.5383 19.5019 32.5665 19.436 32.6042 19.3606C32.6796 19.2193 32.7926 19.0591 32.9245 18.9461L32.9528 18.9272L30.3337 17.4104H30.3149C30.2583 17.3821 30.1924 17.4104 30.117 17.4764C30.0228 17.5612 29.938 17.6742 29.8815 17.7873C29.8626 17.8438 29.8438 17.8815 29.825 17.9192C28.8451 20.6325 28.1291 23.6567 27.2059 26.4265C27.1211 26.6903 27.008 26.9258 26.8573 27.1425C26.7065 27.3592 26.5181 27.5476 26.292 27.7172H26.3014ZM19.5182 31.9002L26.0847 27.3969C26.2826 27.2556 26.4333 27.0954 26.5558 26.9164C26.6783 26.7374 26.7819 26.5301 26.8573 26.2946L29.4764 17.7873C29.4952 17.7402 29.5235 17.6742 29.5517 17.6083C29.6271 17.4575 29.7402 17.2879 29.8721 17.1749C30.0322 17.0336 30.2206 16.9582 30.4279 17.0241C30.4562 17.0336 30.4844 17.043 30.5033 17.0618L33.5652 18.8236C33.65 18.8707 33.6876 18.9838 33.6405 19.078C33.5934 19.1722 33.4804 19.2004 33.3862 19.1533H33.3673C33.3108 19.1251 33.2449 19.1533 33.1789 19.2193C33.0847 19.3041 32.9999 19.4171 32.9434 19.5302C32.9151 19.5867 32.8963 19.6338 32.8774 19.6715L30.2583 28.1694C30.1735 28.4332 30.0605 28.6687 29.9097 28.8854C29.759 29.1021 29.5706 29.2905 29.3445 29.4601C27.253 30.8356 24.7658 32.4749 22.7779 33.9635C22.7214 34.0012 22.6743 34.0483 22.6366 34.0859C22.5989 34.133 22.5612 34.1802 22.5235 34.2461C22.4764 34.3497 22.4199 34.4911 22.4199 34.6135C22.4199 34.6701 22.4293 34.7266 22.4764 34.7548C22.5518 34.8114 22.5706 34.915 22.5235 34.9998C22.467 35.094 22.3539 35.1223 22.2692 35.0657L19.1978 33.2946C19.0565 33.1909 19 33.0308 19 32.8706C19 32.6822 19.0659 32.4843 19.1225 32.3524C19.1696 32.2582 19.2167 32.1829 19.2732 32.1075C19.3392 32.0227 19.4051 31.9567 19.4899 31.8908L19.5182 31.9002Z" fill="#0076BF"/>
<path fill-rule="evenodd" clip-rule="evenodd" d="M29.5144 29.0926C29.797 28.8006 29.9572 28.5085 30.0891 28.1222L32.7082 19.6149C32.793 19.3605 33.1415 18.8141 33.4807 19.0025L30.4282 17.2407C30.1079 17.0712 29.7593 17.5611 29.6745 17.806L27.0366 26.3605C26.9047 26.7467 26.7446 27.0294 26.4619 27.3309L29.5144 29.0926Z" fill="#0076BF"/>
<path fill-rule="evenodd" clip-rule="evenodd" d="M29.4767 28.8478C29.5615 28.7536 29.6274 28.65 29.6934 28.5464C29.7781 28.3956 29.8441 28.2449 29.9006 28.0659C30.871 25.3903 31.653 22.319 32.5197 19.5585C32.5386 19.502 32.5668 19.4266 32.6045 19.3513C32.6799 19.21 32.7929 19.0498 32.9248 18.9367L32.9531 18.9179L30.334 17.4011H30.3151C30.2586 17.3728 30.1927 17.4011 30.1173 17.467C30.0231 17.5518 29.9383 17.6649 29.8818 17.7685C29.8629 17.8062 29.8441 17.8345 29.8347 17.8627L27.1967 26.4078C27.1308 26.615 27.0554 26.794 26.9518 26.9636C26.8858 27.0672 26.8199 27.1709 26.7351 27.2651L29.4578 28.8384L29.4767 28.8478ZM30.0231 28.7348C29.9289 28.895 29.8064 29.0551 29.6651 29.2059C29.6086 29.2812 29.5049 29.3001 29.4201 29.253L26.3677 27.4912C26.3582 27.4912 26.3394 27.4724 26.33 27.4629C26.2546 27.3876 26.2546 27.2745 26.33 27.1991C26.4619 27.0578 26.5655 26.9259 26.6503 26.7846C26.7351 26.6433 26.801 26.4831 26.867 26.3041L29.5049 17.7402C29.5238 17.7026 29.5426 17.646 29.5709 17.5989C29.6462 17.4576 29.7593 17.2975 29.9006 17.1844C30.0702 17.0431 30.268 16.9677 30.4753 17.0525C31.4268 17.4859 32.6233 18.3055 33.5843 18.8425C33.6785 18.8896 33.7068 19.0121 33.6597 19.0969C33.6126 19.1911 33.4901 19.2194 33.4053 19.1723H33.3865C33.3299 19.144 33.264 19.1723 33.198 19.2382C33.1038 19.3136 33.019 19.4361 32.9625 19.5397C32.9342 19.5962 32.9154 19.6433 32.8966 19.681L30.2775 28.1884C30.2115 28.3862 30.1361 28.5652 30.0325 28.7348H30.0231Z" fill="#0076BF"/>
<path fill-rule="evenodd" clip-rule="evenodd" d="M29.241 29.3189L22.6744 33.8222C22.2599 34.1049 22.0903 34.8114 22.4012 34.9339L27.3473 37.1196C27.63 37.2421 27.7525 37.6001 27.6677 38.0806L26.2262 46.343C26.132 46.8612 26.5654 46.9836 26.9328 46.5314L32.6138 39.3713C32.9435 38.9568 33.3298 38.7307 33.6595 38.7684L39.3311 39.3713C39.6891 39.409 40.1319 38.7872 40.0377 38.3727L38.5963 31.7684C38.5115 31.3915 38.6339 30.8922 38.9166 30.44L43.8721 22.545C44.183 22.0457 44.0134 21.5464 43.6083 21.7442L37.0418 24.8155C36.6555 24.9946 36.354 24.9098 36.1938 24.5989L33.5747 19.1157C33.4146 18.7671 32.8682 19.078 32.708 19.615L30.0889 28.1224C29.9476 28.5652 29.599 29.1116 29.241 29.3189Z" fill="white"/>
<path fill-rule="evenodd" clip-rule="evenodd" d="M29.3441 29.4789L22.7775 33.9822C22.6456 34.0764 22.542 34.2272 22.476 34.3779C22.4478 34.4627 22.4289 34.5475 22.4195 34.6134C22.4195 34.67 22.4195 34.7171 22.4478 34.7359C22.4478 34.7359 22.4478 34.7453 22.4666 34.7453L27.4222 36.9311C27.62 37.0158 27.7519 37.176 27.8273 37.3927C27.8932 37.5905 27.9027 37.8261 27.8556 38.0993L26.4141 46.3711C26.3953 46.4653 26.4141 46.5407 26.4235 46.5784C26.4235 46.5878 26.4424 46.5972 26.4518 46.6066C26.4706 46.6066 26.4895 46.6066 26.5177 46.6066C26.5931 46.5878 26.6873 46.5218 26.791 46.3994L32.472 39.2392C32.651 39.0131 32.8488 38.8436 33.0466 38.7211C33.2633 38.5986 33.48 38.5421 33.6873 38.5609L39.3683 39.1639C39.3777 39.1639 39.3965 39.1639 39.4154 39.1639C39.5096 39.145 39.6132 39.0602 39.698 38.9378C39.7922 38.8153 39.8582 38.6646 39.877 38.5232C39.877 38.4761 39.877 38.429 39.877 38.3913L38.4356 31.7871C38.3884 31.5704 38.3979 31.316 38.4638 31.0616C38.5204 30.8167 38.6334 30.5529 38.7842 30.3079L43.7397 22.413C43.8433 22.2528 43.881 22.1021 43.8716 21.989C43.8716 21.9419 43.8622 21.9042 43.8433 21.8854C43.8433 21.876 43.8245 21.8666 43.8151 21.8666C43.7868 21.8666 43.7585 21.8666 43.7114 21.8854L37.1449 24.9567C36.9093 25.0698 36.7021 25.0886 36.5136 25.0415C36.3158 24.985 36.1556 24.8531 36.052 24.6458C35.1758 22.884 34.2243 20.9433 33.4329 19.1532C33.4329 19.1438 33.4235 19.1344 33.4141 19.125C33.4047 19.125 33.3764 19.125 33.3481 19.125C33.301 19.1344 33.2351 19.1721 33.1785 19.2192C33.0655 19.3134 32.9713 19.4547 32.9147 19.6337L30.2956 28.1411C30.2203 28.3954 30.0789 28.6687 29.9094 28.9136C29.7492 29.1303 29.5702 29.3281 29.3724 29.4412L29.3441 29.4789ZM22.5703 33.6619L29.1463 29.1491C29.2876 29.0644 29.4383 28.9136 29.5702 28.7252C29.721 28.5179 29.8434 28.273 29.9094 28.0657L32.5285 19.5584C32.6038 19.3134 32.7452 19.1061 32.9053 18.9742C33.0089 18.8895 33.1126 18.8235 33.2162 18.7952C33.3387 18.7576 33.4706 18.7764 33.5742 18.8329C33.6402 18.8706 33.6967 18.9366 33.7438 19.0119L36.3629 24.5045C36.4194 24.6081 36.4948 24.6741 36.5796 24.7023C36.6832 24.7306 36.8057 24.7023 36.9564 24.6364L43.523 21.5651C43.6549 21.5085 43.768 21.4897 43.881 21.518C43.9941 21.5462 44.0789 21.6028 44.1354 21.697C44.1825 21.7723 44.2202 21.876 44.2296 21.9796C44.239 22.1775 44.1825 22.413 44.0412 22.6391L39.0856 30.5341C38.9537 30.7413 38.8595 30.958 38.8124 31.1747C38.7653 31.3725 38.7559 31.5704 38.7936 31.7305L40.235 38.3348C40.2539 38.4102 40.2539 38.495 40.2444 38.5892C40.2256 38.7964 40.122 39.0131 39.9995 39.1921C39.8582 39.3711 39.6792 39.5125 39.4907 39.5596C39.4342 39.569 39.3871 39.5784 39.3306 39.569L33.6496 38.9566C33.5271 38.9472 33.3858 38.9849 33.2445 39.0602C33.0843 39.1545 32.9242 39.2958 32.7734 39.4842L27.0924 46.6443C26.9417 46.8327 26.7721 46.9458 26.6119 46.9835C26.5083 47.0117 26.4141 47.0023 26.3199 46.9646C26.2257 46.9269 26.1503 46.861 26.1032 46.7668C26.0373 46.6537 26.0184 46.4936 26.0467 46.3146L27.4976 38.0428C27.5352 37.8355 27.5258 37.6565 27.4787 37.5246C27.441 37.4115 27.3751 37.3267 27.2809 37.2891L22.3347 35.1128C22.2594 35.0845 22.2028 35.0374 22.1557 34.9714C22.0898 34.8678 22.0615 34.7453 22.0615 34.6134C22.0615 34.5004 22.0898 34.3685 22.1369 34.246C22.2217 34.0293 22.3724 33.8032 22.5797 33.6713L22.5703 33.6619Z" fill="#0076BF"/>
</svg>
