<svg width="64" height="64" viewBox="0 0 64 64" fill="none" xmlns="http://www.w3.org/2000/svg">
<rect width="64" height="64" rx="32" fill="#F2FBFF"/>
<path d="M6.40039 31.9999C6.40039 17.8614 17.8619 6.3999 32.0004 6.3999C46.1389 6.3999 57.6004 17.8614 57.6004 31.9999C57.6004 46.1384 46.1389 57.5999 32.0004 57.5999C17.8619 57.5999 6.40039 46.1384 6.40039 31.9999Z" fill="#D1F0FF"/>
<path d="M19.2309 40.1446L19.319 40.1623L19.3984 40.1446L35.3852 30.9123L35.4645 30.7624L35.4293 17.8354L35.3499 17.6855H35.1824L19.1956 26.9178L19.1074 27.0677L19.1515 39.9947L19.2309 40.1446Z" fill="white" stroke="#2072B4" stroke-width="0.8" stroke-miterlimit="10"/>
<path d="M17.5636 40.4355L17.5372 41.1585L17.6165 41.3084L29.1062 48.1423H29.1326C29.1326 48.1511 29.1503 48.1599 29.1503 48.1599H29.1944H29.2385H29.2561L29.2825 48.1423L46.4068 37.8959L46.4862 37.7637L46.5215 36.9965V36.9789V36.9612V36.9348C46.5126 36.9348 46.5038 36.9171 46.5038 36.9171L46.4862 36.8995V36.8819C46.4774 36.8819 46.4509 36.8642 46.4509 36.8642H46.4421C46.4421 36.8554 46.4421 36.8554 46.4421 36.8554L36.1164 30.9827V30.9298L36.0811 16.9535L35.9929 16.7507L35.9665 16.7243L34.9965 16.1599H34.7408C34.7408 16.1687 17.7312 25.983 17.7312 25.983C17.6077 26.0535 17.5195 26.2123 17.5195 26.3534L17.5636 40.3297L17.5901 40.4443L17.5636 40.4355ZM35.7372 17.077L35.7725 30.9122L35.7284 30.9915L18.8422 40.7441L18.7981 26.9089V26.8824V26.8648C18.8069 26.8648 18.8158 26.8648 18.8158 26.8648L18.8422 26.8383L35.7284 17.0858L35.7372 17.077ZM46.0188 36.9965L34.5115 43.8832L29.2296 47.04L23.8331 43.8303L19.0803 41.0086L35.9136 31.2914L35.9488 31.2649L46.0277 36.9965H46.0188Z" fill="#2072B4"/>
<path d="M34.9962 32.6407L34.9785 32.6583L34.9609 32.6759V32.6936C34.9521 32.6936 34.9433 32.7112 34.9433 32.7112V32.7289L34.9345 32.7553V32.7729V33.1433V33.1874L34.5906 32.9846H34.423L33.021 33.8311H33.0033C33.0033 33.8399 32.9857 33.8575 32.9857 33.8575L32.9681 33.8752V33.8928C32.9592 33.8928 32.9504 33.9104 32.9504 33.9104V33.9281C32.9416 33.9281 32.9416 33.9457 32.9416 33.9457V33.9634V34.3337V34.3778L32.5977 34.175H32.4302L31.0281 35.0215H31.0105C31.0105 35.0303 30.9929 35.048 30.9929 35.048L30.9752 35.0656V35.0832C30.9664 35.0832 30.9576 35.1009 30.9576 35.1009V35.1185C30.9488 35.1185 30.9488 35.1449 30.9488 35.1449V35.1626L30.94 35.5329V35.577L30.5961 35.3742H30.4285L29.0177 36.2207H29C29 36.2295 28.9824 36.2472 28.9824 36.2472V36.2648C28.9736 36.2648 28.9559 36.2825 28.9559 36.2825V36.3001C28.9471 36.3001 28.9383 36.3177 28.9383 36.3177V36.3442V36.3618V36.7322V36.7762L28.5944 36.5734H28.4269L27.0248 37.4111L27.0072 37.4288L26.9896 37.4464V37.464C26.9807 37.464 26.9631 37.4817 26.9631 37.4817V37.4993C26.9543 37.4993 26.9455 37.517 26.9455 37.517V37.5434V37.561V37.9314V37.9755L26.6016 37.7727H26.434L25.0232 38.6104L25.0055 38.628L24.9879 38.6456L24.9703 38.6633L24.9526 38.6809V38.6985C24.9438 38.6985 24.935 38.7162 24.935 38.7162V38.7338V38.7603V39.1306V39.1747L24.5911 38.9719H24.4236L23.0127 39.8096L22.9951 39.8272L22.9774 39.8449L22.9598 39.8625L22.9422 39.8801V39.8978C22.9334 39.8978 22.9245 39.9154 22.9245 39.9154V39.9419V39.9595V40.3298V40.3739L22.5806 40.1711H22.4131L21.0022 41.0176H20.9846C20.9846 41.0265 20.967 41.0441 20.967 41.0441L20.9493 41.0617V41.0794C20.9405 41.0794 20.9317 41.097 20.9317 41.097V41.1146C20.9229 41.1146 20.9229 41.1323 20.9229 41.1323V41.1499L20.9141 41.5203L20.9934 41.6702L22.2015 42.3756H22.2279C22.2279 42.3844 22.2456 42.3932 22.2456 42.3932H22.2896H22.3337H22.3514L22.3778 42.3756L22.5806 42.2521V42.4902L22.66 42.6401L23.868 43.3455H23.8945C23.8945 43.3544 23.9121 43.3632 23.9121 43.3632H23.9562H24.0003H24.0179L24.0444 43.3455L24.2472 43.2221V43.4602L24.3266 43.6101L25.5346 44.3067L25.5611 44.3155H25.5787L25.6228 44.3243H25.6669L25.6845 44.3155H25.711V44.3067L25.9138 44.1832V44.4213L25.9931 44.5712L27.2012 45.2678H27.2276C27.2276 45.2767 27.2453 45.2855 27.2453 45.2855H27.2894H27.3335H27.3511L27.3775 45.2678L28.7884 44.4213L28.8678 44.2802V43.9099V43.8834V43.8658L29.2117 44.0686H29.2381C29.2381 44.0774 29.2558 44.0863 29.2558 44.0863H29.2998H29.3439H29.3616L29.388 44.0686L30.7989 43.2221L30.8782 43.081V42.7107V42.6842V42.6666L31.2221 42.8694H31.2486C31.2486 42.8782 31.2574 42.887 31.2574 42.887H31.3015H31.3456H31.3544L31.3809 42.8694L32.7917 42.0229V42.2874L32.924 42.5167L34.132 43.2221L34.3437 43.275L34.5553 43.2221L39.4404 40.3034L39.5726 40.0918V39.7214V39.7126V39.6773L39.4316 39.4922L38.2235 38.7955H38.2059L38.7878 38.4428L38.8672 38.3017V37.9314V37.9049V37.8873L39.2111 38.0901L39.2376 38.1077H39.2552L39.2993 38.1166H39.3434L39.361 38.1077H39.3875C39.3875 38.0989 39.3875 38.0989 39.3875 38.0989L40.7983 37.2612L40.8777 37.1201V36.7498V36.7233V36.7057L41.2216 36.9085H41.248C41.248 36.9173 41.2657 36.9261 41.2657 36.9261H41.3098H41.3538H41.3627L41.3891 36.9085L42.8 36.0708L42.8793 35.9297V35.5594V35.5329V35.5153L42.8705 35.4888V35.4712L42.8441 35.4448H42.8352C42.8352 35.4359 42.8 35.4095 42.8 35.4095L41.5919 34.7041H41.4244L41.2216 34.8275V34.5894V34.563V34.5453L41.2039 34.5189V34.5012L41.1775 34.4748L41.1422 34.4395L39.9342 33.7341H39.7666L39.5638 33.8575V33.6195V33.593V33.5754L39.5462 33.5489V33.5313L39.5197 33.5048L39.4845 33.4696L38.2764 32.7729H38.1089L37.9061 32.8964V32.6583V32.6319V32.6142L37.8884 32.5878V32.5701L37.862 32.5437L37.8267 32.5084L36.6187 31.803H36.4511L35.0403 32.6495H35.0226L34.9962 32.6407ZM26.3811 44.051L27.4657 43.4073L28.3387 43.9187L27.2629 44.5624L26.3811 44.051ZM24.7146 43.0898L25.7992 42.4461L26.6721 42.9576L25.5963 43.6013L24.7234 43.0898H24.7146ZM23.0568 42.1199L26.1431 40.2769L27.0248 40.7884L23.9386 42.6313L23.0568 42.1199ZM36.3894 33.9898L36.5922 33.8664V34.1044V34.1485L36.3453 34.0074H36.3629L36.3894 33.9898ZM37.7033 37.1201L37.9061 36.9967V37.2348V37.2789L37.6503 37.129H37.668L37.6944 37.1113L37.7033 37.1201ZM39.9165 36.0796L39.6696 35.9386L39.9077 35.7975V36.0355V36.0796H39.9165ZM25.8521 39.8184V39.792V39.7743L26.099 39.9154L26.0549 39.933L25.8521 40.0565V39.8184ZM26.3635 39.9771L26.5663 39.8537V40.0918V40.1358L26.3194 39.9948H26.337L26.3635 39.9771ZM27.8537 38.6192V38.5927V38.5751L28.1006 38.7162L28.0565 38.7338L27.8537 38.8573V38.6192ZM28.3652 38.7779L28.568 38.6545V38.8925V38.9366L28.3211 38.7955H28.3387L28.3652 38.7779ZM29.8642 37.42V37.3935V37.3759L30.1199 37.517L30.0758 37.5346L29.873 37.658V37.42H29.8642ZM30.3756 37.5787L30.5784 37.4552V37.6933V37.7374L30.3315 37.5963H30.3492L30.3756 37.5787ZM31.8658 36.2295V36.2031V36.1855L32.1127 36.3265L32.0686 36.3442L31.8658 36.4676V36.2295ZM32.3773 36.3794L32.5801 36.256V36.4941V36.5382L32.3244 36.3883H32.342L32.3685 36.3706L32.3773 36.3794ZM33.8763 35.0303V35.0039V34.9862L34.1232 35.1361L34.0791 35.1538L33.8763 35.2772V35.0391V35.0303ZM34.3877 35.1802L34.5906 35.0568V35.2948V35.3389L34.3437 35.189H34.3613L34.3877 35.1714V35.1802ZM27.986 40.9559H28.0036L28.0301 40.9383L28.2329 40.8148V41.0529V41.097L27.986 40.9471V40.9559ZM29.5203 39.5891V39.5627V39.5451L29.7672 39.6861L29.7231 39.7038L29.5203 39.8272V39.5891ZM29.8025 40.0477L30.6842 40.5591L29.6085 41.2028L28.7355 40.6914L29.8113 40.0477H29.8025ZM29.9876 39.7655H30.0053L30.0317 39.7479L30.2345 39.6244V39.8625V39.9066L29.9876 39.7567V39.7655ZM31.5219 38.3899V38.3635V38.3458L31.7688 38.4869L31.7247 38.5045L31.5219 38.628V38.3899ZM31.8129 38.8484L32.6859 39.3599L31.6101 40.0036L30.7371 39.4922L31.8129 38.8484ZM31.9893 38.5663H32.0069L32.0334 38.5486L32.2362 38.4252V38.6633V38.7074L31.9893 38.5575V38.5663ZM33.5324 37.1907V37.1642V37.1466L33.7881 37.2965L33.744 37.3141L33.5412 37.4376V37.1995L33.5324 37.1907ZM33.8146 37.6492L34.6875 38.1606L33.6118 38.8044L32.7388 38.2929L33.8146 37.6492ZM33.9998 37.367H34.0174L34.0438 37.3494L34.2467 37.226V37.464V37.5081L33.9998 37.3582V37.367ZM35.5341 35.9915V35.965V35.9474L35.781 36.0973L35.7369 36.1149L35.5341 36.2384V36.0003V35.9915ZM33.9557 36.644L33.0739 36.1325L34.1497 35.4888L35.0314 36.0003L33.9557 36.644ZM31.954 37.8432L31.081 37.3318L32.1568 36.6881L33.0298 37.1995L31.954 37.8432ZM29.9524 39.0336L29.0794 38.5222L30.1552 37.8785L31.0281 38.3899L29.9524 39.0336ZM27.9419 40.2328L27.0689 39.7214L28.1535 39.0777L29.0353 39.5891L27.9507 40.2328H27.9419ZM27.8008 41.2381L28.6826 41.7495L27.6068 42.3932L26.725 41.8818L27.8008 41.2381ZM35.6222 37.6051L34.7493 37.0937L35.8339 36.45L36.7068 36.9614L35.6311 37.6051H35.6222ZM35.9661 35.4448L35.0932 34.9333L36.169 34.2896L37.0419 34.801L35.9573 35.4448H35.9661ZM27.5098 40.7884V40.7619V40.7443L27.7567 40.8854L27.7126 40.903L27.5098 41.0265V40.7884ZM26.2312 42.305L25.9843 42.164L26.2224 42.0229V42.2609V42.305H26.2312ZM27.6421 43.1251H27.6597L27.6862 43.1075L27.889 42.984V43.2221V43.2662L27.6421 43.1251ZM29.1764 41.7495V41.7231V41.7054L29.4233 41.8553L29.3792 41.873L29.1764 41.9964V41.7583V41.7495ZM29.6437 41.9259H29.6614L29.6878 41.9082L29.8906 41.7848V42.0229V42.067L29.6437 41.9171V41.9259ZM31.178 40.5503V40.5238V40.5062L31.4161 40.6473L31.178 40.7884V40.5503ZM33.1885 39.3511V39.3246V39.307L33.4266 39.4481L33.1885 39.598V39.3599V39.3511ZM35.1902 38.1606V38.1342V38.1166L35.4371 38.2577L35.1902 38.3987V38.1606ZM37.1918 36.9614V36.935V36.9173L37.4387 37.0584L37.3946 37.0761L37.1918 37.1995V36.9614ZM36.0014 36.1678H36.0102L36.0367 36.1502L36.2395 36.0267V36.2648V36.3089L35.9926 36.1678H36.0014ZM36.0808 33.9457L35.878 34.0692V33.8311V33.8046V33.787L36.1337 33.9369L36.0896 33.9545L36.0808 33.9457ZM23.8504 41.0176V40.9912V40.9735L24.0885 41.1146L23.8504 41.2557V41.0176ZM27.1659 42.9487V42.9223V42.9047L27.4128 43.0546L27.3687 43.0722L27.1659 43.1957V42.9576V42.9487ZM28.3828 42.8518L29.4674 42.208L30.3403 42.7195L29.2646 43.3632L28.3828 42.8518ZM30.3933 41.6525L37.4916 37.4111L38.3646 37.9226L31.2662 42.164L30.3933 41.6525ZM38.4087 36.8644L39.4845 36.2207L40.3662 36.7322L39.2817 37.3759L38.3999 36.8644H38.4087ZM37.5357 34.801V34.7746V34.757L37.7738 34.898L37.5357 35.0391V34.801ZM34.5024 33.3197L35.3842 33.8311L34.2996 34.4748L33.4178 33.9634L34.4936 33.3197H34.5024ZM32.5007 34.5189L33.3737 35.0303L32.2979 35.674L31.4249 35.1626L32.5007 34.5189ZM30.4991 35.7181L31.372 36.2295L30.2963 36.8732L29.4233 36.3618L30.4991 35.7181ZM28.4886 36.9173L29.3704 37.4288L28.2946 38.0725L27.4128 37.561L28.4886 36.9173ZM26.4869 38.1077L27.3599 38.6192L26.2841 39.2629L25.4023 38.7515L26.4869 38.1077ZM24.4765 39.307L25.3583 39.8184L24.2737 40.4621L23.4007 39.9507L24.4765 39.307ZM22.4748 40.5062L23.3566 41.0176L22.272 41.6613L21.399 41.1499L22.4748 40.5062ZM39.1317 39.7214L34.3613 42.5696H34.3172C34.3172 42.5784 34.2731 42.5696 34.2731 42.5696L33.1797 41.9347L37.9502 39.0865H37.9942C37.9942 39.0777 38.0383 39.0865 38.0383 39.0865L39.1317 39.7214ZM41.4949 35.0215L42.3767 35.5329L41.2921 36.1766L40.4191 35.6652L41.5037 35.0215H41.4949ZM39.8284 34.0603L40.7101 34.5718L37.6239 36.4147L36.7509 35.9033L39.8372 34.0603H39.8284ZM38.1706 33.0904L39.0524 33.6018L37.9678 34.2455L37.0948 33.7341L38.1794 33.0904H38.1706ZM36.5128 32.1204L37.3858 32.6319L36.31 33.2756L35.4371 32.7641L36.5217 32.1204H36.5128Z" fill="#2072B4"/>
<path d="M19.9626 29.9598L19.751 30.0833V29.4749L19.6716 29.5189V30.1274L19.4512 30.2596L19.4424 30.6388L19.6628 30.5065V31.6441L19.7422 31.6V30.4625L19.9626 30.339V29.9598Z" fill="#2072B4"/>
<path d="M20.6941 28.796L20.4825 28.9194V28.699L20.4031 28.7519L20.3943 28.9635L20.1826 29.087L20.1738 30.0217L20.3943 29.8894L20.3855 30.7447L20.4648 30.6918L20.4736 29.8453L20.6941 29.7218V28.796Z" fill="#2072B4"/>
<path d="M21.4266 28.8752L21.2061 28.9987V28.5754L21.1268 28.6195V29.0516L20.9063 29.1751L20.8887 31.6881L21.1091 31.5647V32.4818L21.1885 32.4377V31.5118L21.4089 31.3883L21.4266 28.8752Z" fill="#2072B4"/>
<path d="M22.1404 30.8328L21.92 30.9563V29.9158L21.8406 29.9599V31.0004L21.6201 31.1326L21.6113 32.4729L21.8318 32.3495L21.823 33.584L21.9023 33.5311L21.9111 32.2966L22.1316 32.1732L22.1404 30.8328Z" fill="#2072B4"/>
<path d="M22.8631 31.2297L22.6426 31.3531V30.8682L22.5632 30.9123V31.4061L22.3428 31.5295L22.334 32.958L22.5544 32.8257L22.5456 34.0602L22.625 34.0161L22.6338 32.7816L22.8542 32.6582L22.8631 31.2297Z" fill="#2072B4"/>
<path d="M23.5867 31.2649L23.3662 31.3972V30.7446L23.2869 30.7975V31.4412L23.0664 31.5647V32.5347L23.278 32.4112L23.2692 33.9543L23.3574 33.9102V32.3583L23.5778 32.2348L23.5867 31.2649Z" fill="#2072B4"/>
<path d="M24.3181 29.475L24.0977 29.5984L24.1065 29.0693L24.0271 29.1134L24.0183 29.6425L23.7979 29.7659L23.7891 32.6582L24.0095 32.5348L24.0007 33.6193L24.0801 33.5753L24.0889 32.4819L24.3005 32.3584L24.3181 29.475Z" fill="#2072B4"/>
<path d="M25.0506 29.0427L24.8301 29.1661L24.8389 28.011L24.7596 28.0551L24.7507 29.2102L24.5303 29.3337L24.5215 30.4094L24.7419 30.286V30.8415L24.8213 30.7974V30.2331L25.0417 30.1096L25.0506 29.0427Z" fill="#2072B4"/>
<path d="M25.7732 29.5896L25.5528 29.7219V28.8401L25.4734 28.8842V29.766L25.253 29.8894L25.2441 31.1415L25.4646 31.0181V31.6618L25.5439 31.6177V30.9652L25.7644 30.8417L25.7732 29.5896Z" fill="#2072B4"/>
<path d="M26.4969 30.2423L26.2764 30.3745V29.0959L26.1971 29.14V30.4186L25.9766 30.5421L25.959 33.4079L26.1794 33.2844L26.1706 35.0392L26.25 34.9951L26.2588 33.2315L26.4792 33.1081L26.4969 30.2423Z" fill="#2072B4"/>
<path d="M27.2107 31.2825L26.9903 31.4147L26.9991 30.6829L26.9198 30.727L26.9109 31.4588L26.6905 31.5823L26.6729 34.8361L26.8933 34.7126V35.5768L26.9727 35.5327V34.6685L27.1931 34.5363L27.2107 31.2825Z" fill="#2072B4"/>
<path d="M27.9422 30.4978L27.7217 30.6301V29.8982L27.6424 29.9423V30.6742L27.4219 30.7976L27.4131 32.2437L27.6335 32.1203V32.3143L27.7129 32.2702V32.0674L27.9333 31.9439L27.9422 30.4978Z" fill="#2072B4"/>
<path d="M28.6834 27.7291L28.4629 27.8613V27.2617L28.3836 27.3146V27.9054L28.1631 28.0289L28.1455 30.6919L28.366 30.5684V31.3179L28.4453 31.265V30.5243L28.6658 30.3921L28.6834 27.7291Z" fill="#2072B4"/>
<path d="M29.406 27.0325L29.1944 27.1648V26.9443L29.115 26.9884V27.2089L28.8946 27.3323L28.8857 28.558L29.1062 28.4346L29.0974 29.1488L29.1767 29.0959L29.1856 28.3817L29.406 28.2582V27.0325Z" fill="#2072B4"/>
<path d="M30.1472 24.8103L29.9268 24.9337L29.9356 24.29L29.8562 24.3341L29.8474 24.9867L29.627 25.1101L29.6182 27.1558L29.8386 27.0324V27.7114L29.918 27.6673V26.9883L30.1384 26.8648L30.1472 24.8103Z" fill="#2072B4"/>
<path d="M30.8875 22.6762L30.667 22.8085V22.3147L30.5877 22.3588V22.8526L30.3672 22.976L30.3584 25.0218L30.57 24.8895L30.5612 26.706L30.6406 26.6619L30.6582 24.8454L30.8698 24.722L30.8875 22.6762Z" fill="#2072B4"/>
<path d="M31.6199 20.6042L31.3995 20.7364L31.4083 20.2603L31.3201 20.3043V20.7805L31.0997 20.904L31.082 24.4487L31.3025 24.3253V25.1983L31.3818 25.1542V24.2724L31.6023 24.1489L31.6199 20.6042Z" fill="#2072B4"/>
<path d="M32.3425 20.8951L32.1221 21.0185L32.1309 20.2866L32.0515 20.3307L32.0427 21.0626L31.8223 21.1949V22.0149L32.0427 21.8827L32.0339 22.5352L32.1133 22.4823L32.1221 21.8386L32.3425 21.7151V20.8951Z" fill="#2072B4"/>
<path d="M33.0652 20.9746L32.8535 21.0981V20.3662L32.7742 20.4191L32.7654 21.1422L32.5537 21.2744L32.5449 23.1262L32.7566 22.9939V23.3555L32.8359 23.3114V22.9498L33.0564 22.8264L33.0652 20.9746Z" fill="#2072B4"/>
<path d="M33.7976 20.6482L33.5772 20.7717V20.0398L33.4978 20.0927V20.8246L33.2773 20.948V21.4595L33.4978 21.3272L33.489 21.9797L33.5683 21.9268L33.5772 21.2831L33.7976 21.1597V20.6482Z" fill="#2072B4"/>
<path d="M34.5291 19.6519L34.3087 19.7754V19.5549L34.2293 19.599V19.8195L34.0088 19.9517L33.9912 22.9145L34.2117 22.7823V23.523L34.291 23.4789V22.7382L34.5115 22.6147L34.5291 19.6519Z" fill="#2072B4"/>
<path d="M35.2527 20.2513L35.0323 20.3748V19.9163L34.9529 19.9603V20.4189L34.7324 20.5511L34.7236 22.1119L34.9441 21.9885L34.9353 23.1083L35.0146 23.0642L35.0234 21.9444L35.2439 21.8121L35.2527 20.2513Z" fill="#2072B4"/>
</svg>
