<svg width="64" height="64" viewBox="0 0 64 64" fill="none" xmlns="http://www.w3.org/2000/svg">
<rect width="64" height="64" rx="32" fill="#F2FBFF"/>
<path d="M6.40039 31.9999C6.40039 17.8614 17.8619 6.3999 32.0004 6.3999C46.1389 6.3999 57.6004 17.8614 57.6004 31.9999C57.6004 46.1384 46.1389 57.5999 32.0004 57.5999C17.8619 57.5999 6.40039 46.1384 6.40039 31.9999Z" fill="#D1F0FF"/>
<path fill-rule="evenodd" clip-rule="evenodd" d="M41.4012 27.7431C40.9723 27.4921 39.9995 26.854 39.6125 26.8017C37.6774 26.5612 35.5749 30.7347 37.2067 31.7284L38.6293 32.5548C36.8406 31.4146 39.5288 26.7704 41.4012 27.7536V27.7431Z" fill="#0076BF"/>
<path fill-rule="evenodd" clip-rule="evenodd" d="M24.9793 41.2679C25.7325 40.8495 26.5274 40.609 27.3328 41.0378C26.7471 40.6926 25.8894 40.0859 25.2827 40.0127C24.6655 39.9395 24.0902 40.1592 23.5568 40.452C21.7158 41.5713 20.3978 43.8202 20.2305 45.954L21.653 46.7804C21.8099 44.6465 23.1384 42.3976 24.9793 41.2784V41.2679Z" fill="#0076BF"/>
<path fill-rule="evenodd" clip-rule="evenodd" d="M24.8639 41.0691C25.2614 40.8494 25.6693 40.6716 26.0982 40.6088H26.1714C25.8367 40.4101 25.5124 40.2637 25.2509 40.2323C24.9685 40.2009 24.707 40.2323 24.4455 40.3055C24.1736 40.3787 23.9121 40.5042 23.661 40.6507C22.7928 41.1841 22.0293 41.9896 21.4749 42.91C20.931 43.8096 20.5753 44.8242 20.4707 45.8284L21.4644 46.4037C21.6004 45.41 21.9665 44.3954 22.5 43.5063C23.0962 42.5126 23.9121 41.6548 24.8535 41.0795L24.8639 41.0691ZM26.1714 41.0586C25.8053 41.1109 25.4497 41.2678 25.094 41.4666C24.2154 42 23.4623 42.8055 22.8974 43.7259C22.3221 44.6673 21.9665 45.7447 21.8828 46.7803C21.8828 46.8116 21.8723 46.843 21.8514 46.8744C21.7887 46.979 21.6527 47.0208 21.5376 46.9581L20.1255 46.1422C20.0418 46.1004 20 46.0167 20 45.9225C20.0837 44.8138 20.4707 43.6736 21.0774 42.6695C21.6736 41.6862 22.479 40.8285 23.4204 40.2532L23.4414 40.2323C23.7133 40.0754 24.0062 39.9394 24.32 39.8557C24.6338 39.7616 24.9685 39.7197 25.3032 39.7616C25.8262 39.8243 26.4748 40.2323 27.0291 40.567C27.1756 40.6611 27.322 40.7448 27.4371 40.818C27.5417 40.8808 27.594 41.0168 27.5312 41.1214C27.4685 41.2364 27.3325 41.2783 27.2279 41.2155C26.8723 41.0272 26.5166 40.9854 26.1714 41.0377V41.0586Z" fill="#0076BF"/>
<path fill-rule="evenodd" clip-rule="evenodd" d="M26.1926 35.9334L26.5273 36.1321C26.6319 36.1949 26.6842 36.3308 26.6215 36.4354C26.5587 36.5505 26.4227 36.5923 26.3181 36.5296C25.7847 36.2472 25.1466 36.54 24.5922 37.084C24.3203 37.3559 24.0692 37.6906 23.86 38.0463C23.6508 38.4019 23.4939 38.7889 23.3893 39.1655C23.2638 39.6467 23.2429 40.1069 23.3893 40.4626C23.3893 40.3789 23.4207 40.2952 23.5044 40.2429C23.5671 40.2011 23.6613 40.2011 23.724 40.2429L25.1361 41.0588C25.178 41.0797 25.2094 41.1111 25.2303 41.1529C25.293 41.2575 25.2512 41.404 25.1466 41.4667C25.0838 41.5086 24.9897 41.5086 24.9269 41.4667L23.5148 40.6508C23.4939 40.6508 23.4835 40.6299 23.4625 40.6195C23.5358 40.7554 23.6404 40.86 23.7763 40.9542C23.8809 41.0169 23.9123 41.1529 23.8496 41.2575C23.7868 41.3621 23.6508 41.404 23.5358 41.3412C23.065 41.0692 22.5734 40.7973 22.1132 40.5149C21.6843 40.2534 21.4751 39.8245 21.4333 39.312C21.3914 38.8099 21.5065 38.2241 21.7366 37.6593C21.9668 37.0944 22.3015 36.5505 22.6989 36.1112C23.2638 35.4836 23.9646 35.0861 24.6654 35.1698C25.0211 35.2116 25.701 35.63 26.2031 35.9334H26.1926ZM25.4709 36.0275C25.1257 35.8288 24.7805 35.6405 24.6027 35.6196C24.0692 35.5568 23.5044 35.8915 23.0232 36.4145C22.6571 36.812 22.3538 37.3141 22.1446 37.8266C21.9354 38.3287 21.8308 38.8412 21.8726 39.2701C21.904 39.6362 22.0504 39.95 22.3328 40.1174L22.8872 40.4416C22.7826 40.0337 22.814 39.5525 22.9395 39.0609C23.0441 38.653 23.2219 38.2241 23.4521 37.8371C23.6822 37.4396 23.9541 37.084 24.2575 36.7806C24.6236 36.4145 25.042 36.1426 25.4499 36.038L25.4709 36.0275Z" fill="#0076BF"/>
<path fill-rule="evenodd" clip-rule="evenodd" d="M39.9056 32.4187C40.3031 32.1991 40.7111 32.0213 41.1399 31.9585H41.2131C40.8784 31.7597 40.5542 31.6133 40.2927 31.5819C40.0102 31.5505 39.7487 31.5819 39.4872 31.6551C39.2153 31.7284 38.9538 31.8539 38.7027 32.0003C37.8345 32.5338 37.071 33.3392 36.5166 34.2597C35.9727 35.1593 35.617 36.1739 35.5124 37.178L36.5061 37.7533C36.6421 36.7596 37.0082 35.745 37.5417 34.8559C38.1379 33.8622 38.9538 33.0045 39.8952 32.4292L39.9056 32.4187ZM41.2027 32.4187C40.8366 32.471 40.4809 32.6279 40.1253 32.8267C39.2467 33.3601 38.4935 34.1656 37.9287 35.086C37.3534 36.0274 36.9977 37.1048 36.9141 38.1404C36.9141 38.1718 36.9036 38.2031 36.8827 38.2345C36.8199 38.3391 36.684 38.381 36.5689 38.3182L35.1568 37.5023C35.0731 37.4605 35.0312 37.3768 35.0312 37.2826C35.1149 36.1739 35.502 35.0337 36.1086 34.0296C36.7049 33.0463 37.5103 32.1886 38.4517 31.6133L38.4726 31.5924C38.7446 31.4355 39.0374 31.2995 39.3512 31.2158C39.6651 31.1217 39.9998 31.0798 40.3345 31.1217C40.8575 31.1844 41.506 31.5924 42.0604 31.9271C42.2069 32.0213 42.3533 32.1049 42.4683 32.1782C42.5729 32.2409 42.6252 32.3769 42.5625 32.4815C42.4997 32.5966 42.3637 32.6384 42.2591 32.5756C41.9035 32.3874 41.5479 32.3455 41.2027 32.3978V32.4187Z" fill="#0076BF"/>
<path fill-rule="evenodd" clip-rule="evenodd" d="M41.0461 27.2202L41.3808 27.419C41.4854 27.4817 41.5377 27.6177 41.475 27.7223C41.4122 27.8374 41.2762 27.8792 41.1716 27.8164C40.6382 27.534 40.0001 27.8269 39.4457 28.3708C39.1738 28.6428 38.9227 28.9775 38.7135 29.3332C38.5043 29.6888 38.3474 30.0758 38.2428 30.4524C38.1173 30.9335 38.0964 31.3938 38.2428 31.7494C38.2428 31.6657 38.2742 31.5821 38.3579 31.5298C38.4206 31.4879 38.5148 31.4879 38.5776 31.5298L39.9897 32.3456C40.0315 32.3666 40.0629 32.3979 40.0838 32.4398C40.1465 32.5444 40.1047 32.6908 40.0001 32.7536C39.9373 32.7954 39.8432 32.7954 39.7805 32.7536L38.3684 31.9377C38.3474 31.9377 38.337 31.9168 38.3161 31.9063C38.3893 32.0423 38.4939 32.1469 38.6299 32.241C38.7345 32.3038 38.7658 32.4398 38.7031 32.5444C38.6403 32.649 38.5043 32.6908 38.3893 32.6281C37.9186 32.3561 37.4269 32.0841 36.9667 31.8017C36.5378 31.5402 36.3286 31.1114 36.2868 30.5988C36.2449 30.0967 36.36 29.511 36.5901 28.9461C36.8203 28.3813 37.155 27.8374 37.5525 27.398C38.1173 26.7704 38.8181 26.373 39.519 26.4566C39.8746 26.4985 40.5545 26.9169 41.0566 27.2202H41.0461ZM40.3244 27.3144C39.9792 27.1156 39.634 26.9273 39.4562 26.9064C38.9227 26.8437 38.3579 27.1784 37.8767 27.7014C37.5106 28.0989 37.2073 28.601 36.9981 29.1135C36.7889 29.6156 36.6843 30.1281 36.7261 30.557C36.7575 30.9231 36.9039 31.2369 37.1864 31.4042L37.7407 31.7285C37.6361 31.3206 37.6675 30.8394 37.793 30.3478C37.8977 29.9398 38.0755 29.511 38.3056 29.124C38.5357 28.7265 38.8077 28.3708 39.111 28.0675C39.4771 27.7014 39.8955 27.4294 40.3035 27.3248L40.3244 27.3144Z" fill="#0076BF"/>
<path fill-rule="evenodd" clip-rule="evenodd" d="M31.0145 23.1092C31.7676 22.6908 32.5626 22.4503 33.368 22.8791C32.7822 22.5339 31.9245 21.9273 31.3178 21.854C30.7007 21.7808 30.1254 22.0005 29.5919 22.2934C27.7509 23.4126 26.433 25.6615 26.2656 27.7953L27.6882 28.6217C27.8451 26.4878 29.1735 24.2389 31.0145 23.1197V23.1092Z" fill="#0076BF"/>
<path fill-rule="evenodd" clip-rule="evenodd" d="M30.8991 22.9106C31.2966 22.691 31.7045 22.5132 32.1334 22.4504H32.2066C31.8719 22.2517 31.5476 22.1052 31.2861 22.0738C31.0037 22.0425 30.7422 22.0738 30.4807 22.1471C30.2087 22.2203 29.9472 22.3458 29.6962 22.4922C28.828 23.0257 28.0644 23.8311 27.51 24.7516C26.9661 25.6512 26.6105 26.6658 26.5059 27.67L27.4996 28.2453C27.6355 27.2516 28.0017 26.2369 28.5351 25.3478C29.1313 24.3541 29.9472 23.4964 30.8886 22.9211L30.8991 22.9106ZM32.2066 22.9002C31.8405 22.9525 31.4849 23.1094 31.1292 23.3081C30.2506 23.8416 29.4974 24.647 28.9326 25.5675C28.3573 26.5089 28.0016 27.5863 27.918 28.6218C27.918 28.6532 27.9075 28.6846 27.8866 28.716C27.8238 28.8206 27.6879 28.8624 27.5728 28.7996L26.1607 27.9838C26.077 27.9419 26.0352 27.8582 26.0352 27.7641C26.1188 26.6553 26.5059 25.5152 27.1125 24.511C27.7088 23.5278 28.5142 22.6701 29.4556 22.0948L29.4765 22.0738C29.7485 21.9169 30.0414 21.781 30.3552 21.6973C30.669 21.6031 31.0037 21.5613 31.3384 21.6031C31.8614 21.6659 32.5099 22.0738 33.0643 22.4086C33.2108 22.5027 33.3572 22.5864 33.4722 22.6596C33.5769 22.7224 33.6291 22.8583 33.5664 22.9629C33.5036 23.078 33.3676 23.1198 33.263 23.0571C32.9074 22.8688 32.5518 22.827 32.2066 22.8793V22.9002Z" fill="#0076BF"/>
<path fill-rule="evenodd" clip-rule="evenodd" d="M31.0145 23.1092C31.7676 22.6908 32.5626 22.4503 33.368 22.8791C32.7822 22.5339 31.9245 21.9273 31.3178 21.854C30.7007 21.7808 30.1254 22.0005 29.5919 22.2934C27.7509 23.4126 26.433 25.6615 26.2656 27.7953L27.6882 28.6217C27.8451 26.4878 29.1735 24.2389 31.0145 23.1197V23.1092Z" fill="#0076BF"/>
<path fill-rule="evenodd" clip-rule="evenodd" d="M30.8991 22.9106C31.2966 22.691 31.7045 22.5132 32.1334 22.4504H32.2066C31.8719 22.2517 31.5476 22.1052 31.2861 22.0738C31.0037 22.0425 30.7422 22.0738 30.4807 22.1471C30.2087 22.2203 29.9472 22.3458 29.6962 22.4922C28.828 23.0257 28.0644 23.8311 27.51 24.7516C26.9661 25.6512 26.6105 26.6658 26.5059 27.67L27.4996 28.2453C27.6355 27.2516 28.0017 26.2369 28.5351 25.3478C29.1313 24.3541 29.9472 23.4964 30.8886 22.9211L30.8991 22.9106ZM32.2066 22.9002C31.8405 22.9525 31.4849 23.1094 31.1292 23.3081C30.2506 23.8416 29.4974 24.647 28.9326 25.5675C28.3573 26.5089 28.0016 27.5863 27.918 28.6218C27.918 28.6532 27.9075 28.6846 27.8866 28.716C27.8238 28.8206 27.6879 28.8624 27.5728 28.7996L26.1607 27.9838C26.077 27.9419 26.0352 27.8582 26.0352 27.7641C26.1188 26.6553 26.5059 25.5152 27.1125 24.511C27.7088 23.5278 28.5142 22.6701 29.4556 22.0948L29.4765 22.0738C29.7485 21.9169 30.0414 21.781 30.3552 21.6973C30.669 21.6031 31.0037 21.5613 31.3384 21.6031C31.8614 21.6659 32.5099 22.0738 33.0643 22.4086C33.2108 22.5027 33.3572 22.5864 33.4722 22.6596C33.5769 22.7224 33.6291 22.8583 33.5664 22.9629C33.5036 23.078 33.3676 23.1198 33.263 23.0571C32.9074 22.8688 32.5518 22.827 32.2066 22.8793V22.9002Z" fill="#0076BF"/>
<path fill-rule="evenodd" clip-rule="evenodd" d="M32.3943 18.1721C31.9655 17.9211 30.9927 17.283 30.6057 17.2307C28.6706 16.9901 26.5681 21.1637 28.1999 22.1574L29.6224 22.9837C27.8338 21.8436 30.522 17.1993 32.3943 18.1826V18.1721Z" fill="#A6EDF8"/>
<path fill-rule="evenodd" clip-rule="evenodd" d="M32.1652 17.7747L32.5 17.9734C32.6046 18.0362 32.6569 18.1722 32.5941 18.2768C32.5314 18.3918 32.3954 18.4337 32.2908 18.3709C31.7573 18.0885 31.1192 18.3813 30.5649 18.9253C30.2929 19.1972 30.0419 19.532 29.8327 19.8876C29.6235 20.2432 29.4666 20.6303 29.362 21.0068C29.2364 21.488 29.2155 21.9482 29.362 22.3039C29.362 22.2202 29.3933 22.1365 29.477 22.0842C29.5398 22.0424 29.6339 22.0424 29.6967 22.0842L31.1088 22.9001C31.1506 22.921 31.182 22.9524 31.2029 22.9942C31.2657 23.0988 31.2238 23.2453 31.1192 23.308C31.0565 23.3499 30.9623 23.3499 30.8996 23.308L29.4875 22.4921C29.4665 22.4921 29.4561 22.4712 29.4352 22.4608C29.5084 22.5967 29.613 22.7013 29.749 22.7955C29.8536 22.8582 29.885 22.9942 29.8222 23.0988C29.7594 23.2034 29.6235 23.2453 29.5084 23.1825C29.0377 22.9105 28.5461 22.6386 28.0858 22.3562C27.657 22.0947 27.4478 21.6658 27.4059 21.1533C27.3641 20.6512 27.4791 20.0654 27.7093 19.5006C27.9394 18.9357 28.2741 18.3918 28.6716 17.9525C29.2364 17.3249 29.9372 16.9274 30.6381 17.0111C30.9937 17.0529 31.6736 17.4713 32.1757 17.7747H32.1652ZM31.4435 17.8688C31.0983 17.6701 30.7531 17.4818 30.5753 17.4609C30.0419 17.3981 29.477 17.7328 28.9959 18.2558C28.6298 18.6533 28.3264 19.1554 28.1172 19.6679C27.908 20.17 27.8034 20.6826 27.8452 21.1114C27.8766 21.4775 28.0231 21.7913 28.3055 21.9587L28.8599 22.2829C28.7553 21.875 28.7866 21.3938 28.9122 20.9022C29.0168 20.4943 29.1946 20.0654 29.4247 19.6784C29.6548 19.2809 29.9268 18.9253 30.2301 18.6219C30.5962 18.2558 31.0146 17.9839 31.4226 17.8793L31.4435 17.8688Z" fill="#0076BF"/>
<path fill-rule="evenodd" clip-rule="evenodd" d="M32.3943 18.1721C31.9655 17.9211 30.9927 17.283 30.6057 17.2307C28.6706 16.9901 26.5681 21.1637 28.1999 22.1574L29.6224 22.9837C27.8338 21.8436 30.522 17.1993 32.3943 18.1826V18.1721Z" fill="#0076BF"/>
<path fill-rule="evenodd" clip-rule="evenodd" d="M32.1652 17.7747L32.5 17.9734C32.6046 18.0362 32.6569 18.1722 32.5941 18.2768C32.5314 18.3918 32.3954 18.4337 32.2908 18.3709C31.7573 18.0885 31.1192 18.3813 30.5649 18.9253C30.2929 19.1972 30.0419 19.532 29.8327 19.8876C29.6235 20.2432 29.4666 20.6303 29.362 21.0068C29.2364 21.488 29.2155 21.9482 29.362 22.3039C29.362 22.2202 29.3933 22.1365 29.477 22.0842C29.5398 22.0424 29.6339 22.0424 29.6967 22.0842L31.1088 22.9001C31.1506 22.921 31.182 22.9524 31.2029 22.9942C31.2657 23.0988 31.2238 23.2453 31.1192 23.308C31.0565 23.3499 30.9623 23.3499 30.8996 23.308L29.4875 22.4921C29.4665 22.4921 29.4561 22.4712 29.4352 22.4608C29.5084 22.5967 29.613 22.7013 29.749 22.7955C29.8536 22.8582 29.885 22.9942 29.8222 23.0988C29.7594 23.2034 29.6235 23.2453 29.5084 23.1825C29.0377 22.9105 28.5461 22.6386 28.0858 22.3562C27.657 22.0947 27.4478 21.6658 27.4059 21.1533C27.3641 20.6512 27.4791 20.0654 27.7093 19.5006C27.9394 18.9357 28.2741 18.3918 28.6716 17.9525C29.2364 17.3249 29.9372 16.9274 30.6381 17.0111C30.9937 17.0529 31.6736 17.4713 32.1757 17.7747H32.1652ZM31.4435 17.8688C31.0983 17.6701 30.7531 17.4818 30.5753 17.4609C30.0419 17.3981 29.477 17.7328 28.9959 18.2558C28.6298 18.6533 28.3264 19.1554 28.1172 19.6679C27.908 20.17 27.8034 20.6826 27.8452 21.1114C27.8766 21.4775 28.0231 21.7913 28.3055 21.9587L28.8599 22.2829C28.7553 21.875 28.7866 21.3938 28.9122 20.9022C29.0168 20.4943 29.1946 20.0654 29.4247 19.6784C29.6548 19.2809 29.9268 18.9253 30.2301 18.6219C30.5962 18.2558 31.0146 17.9839 31.4226 17.8793L31.4435 17.8688Z" fill="#0076BF"/>
<path fill-rule="evenodd" clip-rule="evenodd" d="M33.3683 22.8687C32.7407 22.5026 31.8934 22.5863 31.0148 23.0988C30.0943 23.6323 29.2679 24.5423 28.6613 25.5883C28.1069 26.5507 27.7512 27.6176 27.6885 28.6008L34.3411 24.762C34.2888 23.8415 33.9227 23.1825 33.3683 22.8687Z" fill="#0076BF"/>
<path fill-rule="evenodd" clip-rule="evenodd" d="M33.2529 23.0674C32.981 22.9105 32.6567 22.8477 32.3115 22.8895C31.9454 22.9209 31.5375 23.0674 31.1296 23.3079C30.7007 23.559 30.2823 23.8937 29.9057 24.2912C29.5083 24.7096 29.1526 25.1907 28.8597 25.7033C28.5878 26.174 28.3577 26.6761 28.2008 27.1782C28.0962 27.5129 28.0125 27.8581 27.9602 28.1823L34.1002 24.6364C34.0688 24.2703 33.9747 23.9565 33.8492 23.7054C33.7027 23.423 33.504 23.2033 33.2634 23.0569L33.2529 23.0674ZM32.2697 22.4398C32.7195 22.3979 33.1274 22.4711 33.4831 22.6803C33.7969 22.8686 34.0688 23.1406 34.2466 23.5067C34.4245 23.8519 34.5291 24.2703 34.5604 24.7619C34.5604 24.8456 34.5186 24.9292 34.4454 24.9711L27.8137 28.7995C27.7719 28.8204 27.7301 28.8413 27.6778 28.8413C27.5522 28.8413 27.4581 28.7262 27.4686 28.6007C27.4999 28.0986 27.6045 27.5652 27.7719 27.0526C27.9393 26.5192 28.1798 25.9857 28.4727 25.4836C28.7865 24.9397 29.1631 24.4272 29.5815 23.9774C29.9894 23.5485 30.4392 23.1824 30.9099 22.9105C31.3806 22.6385 31.8513 22.4816 32.2802 22.4398H32.2697Z" fill="#0076BF"/>
<path fill-rule="evenodd" clip-rule="evenodd" d="M33.3683 22.8687C32.7407 22.5026 31.8934 22.5863 31.0148 23.0988C30.0943 23.6323 29.2679 24.5423 28.6613 25.5883C28.1069 26.5507 27.7512 27.6176 27.6885 28.6008L34.3411 24.762C34.2888 23.8415 33.9227 23.1825 33.3683 22.8687Z" fill="white"/>
<path fill-rule="evenodd" clip-rule="evenodd" d="M33.2529 23.0674C32.981 22.9105 32.6567 22.8477 32.3115 22.8895C31.9454 22.9209 31.5375 23.0674 31.1296 23.3079C30.7007 23.559 30.2823 23.8937 29.9057 24.2912C29.5083 24.7096 29.1526 25.1907 28.8597 25.7033C28.5878 26.174 28.3577 26.6761 28.2008 27.1782C28.0962 27.5129 28.0125 27.8581 27.9602 28.1823L34.1002 24.6364C34.0688 24.2703 33.9747 23.9565 33.8492 23.7054C33.7027 23.423 33.504 23.2033 33.2634 23.0569L33.2529 23.0674ZM32.2697 22.4398C32.7195 22.3979 33.1274 22.4711 33.4831 22.6803C33.7969 22.8686 34.0688 23.1406 34.2466 23.5067C34.4245 23.8519 34.5291 24.2703 34.5604 24.7619C34.5604 24.8456 34.5186 24.9292 34.4454 24.9711L27.8137 28.7995C27.7719 28.8204 27.7301 28.8413 27.6778 28.8413C27.5522 28.8413 27.4581 28.7262 27.4686 28.6007C27.4999 28.0986 27.6045 27.5652 27.7719 27.0526C27.9393 26.5192 28.1798 25.9857 28.4727 25.4836C28.7865 24.9397 29.1631 24.4272 29.5815 23.9774C29.9894 23.5485 30.4392 23.1824 30.9099 22.9105C31.3806 22.6385 31.8513 22.4816 32.2802 22.4398H32.2697Z" fill="#0076BF"/>
<path fill-rule="evenodd" clip-rule="evenodd" d="M31.0146 22.8374C31.5585 22.5236 32.0397 21.9902 32.3953 21.373C32.751 20.7559 32.9706 20.0655 32.9706 19.4379C32.9706 18.8103 32.751 18.371 32.3953 18.1722C32.0397 17.963 31.5481 17.9944 31.0146 18.3082C30.4707 18.622 29.9791 19.1555 29.6339 19.7726C29.2783 20.3898 29.0586 21.0801 29.0586 21.7077C29.0586 22.3353 29.2783 22.7747 29.6339 22.9734C29.9895 23.1826 30.4812 23.1512 31.0146 22.8374Z" fill="white"/>
<path fill-rule="evenodd" clip-rule="evenodd" d="M31.1296 23.0361C30.8367 23.2034 30.5543 23.2976 30.2928 23.329C30.0104 23.3603 29.7489 23.308 29.5397 23.1825H29.5292C29.3096 23.0465 29.1318 22.8478 29.0062 22.5863C28.9016 22.3457 28.8389 22.0528 28.8389 21.7181C28.8389 21.3834 28.8912 21.0487 28.9958 20.7035C29.1004 20.3583 29.2573 20.0027 29.4456 19.6784C29.6338 19.3541 29.8639 19.0403 30.115 18.7788C30.3556 18.5173 30.6275 18.2977 30.9204 18.1303C31.2133 17.963 31.4957 17.8688 31.7572 17.8374C32.0501 17.8061 32.3116 17.8584 32.5313 17.9943C32.7509 18.1199 32.9287 18.3186 33.0543 18.5906C33.1589 18.8311 33.2216 19.124 33.2216 19.4587C33.2216 19.7935 33.1693 20.1282 33.0647 20.4734C32.9601 20.8185 32.8137 21.1742 32.6254 21.4985C32.4371 21.8227 32.2175 22.1261 31.9664 22.3876H31.956C31.7154 22.6595 31.4434 22.8792 31.161 23.0465L31.1296 23.0361ZM30.8995 22.6386C31.1505 22.4922 31.3807 22.3039 31.6003 22.0738H31.6108C31.8304 21.8227 32.0292 21.5508 32.207 21.2579V21.2369C32.3848 20.9441 32.5208 20.6303 32.6149 20.3269C32.7091 20.0236 32.7509 19.7202 32.7509 19.4378C32.7509 19.1554 32.7091 18.9357 32.6254 18.7475C32.5417 18.5696 32.4371 18.4441 32.2907 18.3604C32.1547 18.2768 31.9769 18.2454 31.7886 18.2663C31.5899 18.2872 31.3702 18.3604 31.1296 18.4964C30.889 18.6429 30.6484 18.8311 30.4288 19.0613C30.1987 19.3018 29.9999 19.5843 29.8221 19.8771C29.6548 20.17 29.5083 20.4943 29.4142 20.8081C29.32 21.1114 29.2782 21.4043 29.2782 21.6972C29.2782 21.9901 29.32 22.1993 29.4037 22.3876C29.4874 22.5654 29.592 22.6909 29.7384 22.7746C29.8744 22.8583 30.0418 22.8896 30.2301 22.8687C30.4288 22.8478 30.6485 22.7746 30.889 22.6386H30.8995Z" fill="#0076BF"/>
<path fill-rule="evenodd" clip-rule="evenodd" d="M31.0146 22.8374C31.5585 22.5236 32.0397 21.9902 32.3953 21.373C32.751 20.7559 32.9706 20.0655 32.9706 19.4379C32.9706 18.8103 32.751 18.371 32.3953 18.1722C32.0397 17.963 31.5481 17.9944 31.0146 18.3082C30.4707 18.622 29.9791 19.1555 29.6339 19.7726C29.2783 20.3898 29.0586 21.0801 29.0586 21.7077C29.0586 22.3353 29.2783 22.7747 29.6339 22.9734C29.9895 23.1826 30.4812 23.1512 31.0146 22.8374Z" fill="white"/>
<path fill-rule="evenodd" clip-rule="evenodd" d="M31.1296 23.0361C30.8367 23.2034 30.5543 23.2976 30.2928 23.329C30.0104 23.3603 29.7489 23.308 29.5397 23.1825H29.5292C29.3096 23.0465 29.1318 22.8478 29.0062 22.5863C28.9016 22.3457 28.8389 22.0528 28.8389 21.7181C28.8389 21.3834 28.8912 21.0487 28.9958 20.7035C29.1004 20.3583 29.2573 20.0027 29.4456 19.6784C29.6338 19.3541 29.8639 19.0403 30.115 18.7788C30.3556 18.5173 30.6275 18.2977 30.9204 18.1303C31.2133 17.963 31.4957 17.8688 31.7572 17.8374C32.0501 17.8061 32.3116 17.8584 32.5313 17.9943C32.7509 18.1199 32.9287 18.3186 33.0543 18.5906C33.1589 18.8311 33.2216 19.124 33.2216 19.4587C33.2216 19.7935 33.1693 20.1282 33.0647 20.4734C32.9601 20.8185 32.8137 21.1742 32.6254 21.4985C32.4371 21.8227 32.2175 22.1261 31.9664 22.3876H31.956C31.7154 22.6595 31.4434 22.8792 31.161 23.0465L31.1296 23.0361ZM30.8995 22.6386C31.1505 22.4922 31.3807 22.3039 31.6003 22.0738H31.6108C31.8304 21.8227 32.0292 21.5508 32.207 21.2579V21.2369C32.3848 20.9441 32.5208 20.6303 32.6149 20.3269C32.7091 20.0236 32.7509 19.7202 32.7509 19.4378C32.7509 19.1554 32.7091 18.9357 32.6254 18.7475C32.5417 18.5696 32.4371 18.4441 32.2907 18.3604C32.1547 18.2768 31.9769 18.2454 31.7886 18.2663C31.5899 18.2872 31.3702 18.3604 31.1296 18.4964C30.889 18.6429 30.6484 18.8311 30.4288 19.0613C30.1987 19.3018 29.9999 19.5843 29.8221 19.8771C29.6548 20.17 29.5083 20.4943 29.4142 20.8081C29.32 21.1114 29.2782 21.4043 29.2782 21.6972C29.2782 21.9901 29.32 22.1993 29.4037 22.3876C29.4874 22.5654 29.592 22.6909 29.7384 22.7746C29.8744 22.8583 30.0418 22.8896 30.2301 22.8687C30.4288 22.8478 30.6485 22.7746 30.889 22.6386H30.8995Z" fill="#0076BF"/>
<path fill-rule="evenodd" clip-rule="evenodd" d="M26.4227 36.3308C25.9938 36.0798 25.021 35.4417 24.634 35.3894C22.6989 35.1488 20.5964 39.3224 22.2282 40.3161L23.6508 41.1424C21.8621 40.0127 24.5503 35.358 26.4227 36.3412V36.3308Z" fill="#0076BF"/>
<path fill-rule="evenodd" clip-rule="evenodd" d="M26.1923 35.9334C26.3178 36.017 26.4433 36.0798 26.5375 36.1426C26.6421 36.2053 26.6839 36.3413 26.6212 36.4459C26.5584 36.561 26.4224 36.6028 26.3178 36.54C25.7844 36.2576 25.1463 36.5505 24.5919 37.0944C24.32 37.3664 24.0689 37.7011 23.8597 38.0567C23.6505 38.4124 23.4936 38.7994 23.389 39.176C23.2635 39.6571 23.2426 40.1174 23.389 40.473C23.389 40.3893 23.4204 40.3161 23.4832 40.2638C23.5564 40.2115 23.6505 40.2115 23.7237 40.2638L25.1463 41.0902C25.1777 41.1111 25.2091 41.1425 25.23 41.1738C25.2823 41.2784 25.2509 41.404 25.1568 41.4667C25.0835 41.519 24.9894 41.519 24.9162 41.4772L23.4936 40.6508C23.4832 40.6508 23.4622 40.6299 23.4518 40.6195C23.525 40.7554 23.6296 40.86 23.7656 40.9542C23.8702 41.0169 23.9015 41.1529 23.8388 41.2575C23.776 41.3621 23.64 41.404 23.525 41.3412C23.138 41.1111 22.4267 40.7659 22.1024 40.5149C21.6736 40.2534 21.4644 39.8245 21.4225 39.312C21.3807 38.8099 21.4957 38.2241 21.7259 37.6593C21.956 37.0944 22.2907 36.5505 22.6882 36.1112C23.2635 35.4836 23.9539 35.0861 24.6547 35.1698C25.0103 35.2116 25.6902 35.63 26.1923 35.9334ZM25.4706 36.0275C25.1254 35.8288 24.7802 35.6405 24.6024 35.6196C24.0689 35.5568 23.5041 35.8915 23.0229 36.4145C22.6568 36.812 22.3535 37.3141 22.1443 37.8266C21.9351 38.3287 21.8305 38.8412 21.8723 39.2701C21.9037 39.6362 22.0501 39.95 22.3326 40.1174L22.8869 40.4416C22.7823 40.0337 22.8137 39.5525 22.9392 39.0609C23.0438 38.653 23.2216 38.2241 23.4518 37.8371C23.6819 37.4396 23.9538 37.084 24.2572 36.7806C24.6233 36.4145 25.0417 36.1426 25.4496 36.038L25.4706 36.0275Z" fill="#0076BF"/>
<path fill-rule="evenodd" clip-rule="evenodd" d="M27.3946 41.0379C26.767 40.6718 25.9198 40.7555 25.0411 41.268C24.1206 41.8015 23.2943 42.7115 22.6876 43.7575C22.1332 44.7198 21.7776 45.7868 21.7148 46.77L28.3674 42.9312C28.3151 42.0107 27.949 41.3517 27.3946 41.0379Z" fill="white"/>
<path fill-rule="evenodd" clip-rule="evenodd" d="M27.2799 41.226C27.008 41.0691 26.6837 41.0064 26.3385 41.0482C25.9724 41.0796 25.5645 41.226 25.1565 41.4666C24.7277 41.7177 24.3093 42.0524 23.9327 42.4499C23.5352 42.8683 23.1796 43.3494 22.8867 43.862C22.6148 44.3431 22.3951 44.8348 22.2382 45.3368C22.1336 45.6716 22.0499 46.0167 21.9976 46.341L28.1376 42.7951C28.1063 42.429 28.0121 42.1152 27.8866 41.8641C27.7402 41.5817 27.5414 41.362 27.3008 41.2156L27.2799 41.226ZM26.2862 40.5984C26.736 40.5566 27.1439 40.6298 27.4996 40.839C27.8134 41.0273 28.0749 41.2993 28.2632 41.6654C28.441 42.0106 28.5456 42.429 28.577 42.9206C28.577 43.0043 28.5351 43.0879 28.4619 43.1298L21.8302 46.9581C21.7884 46.9791 21.7466 47 21.6943 47C21.5687 47 21.4746 46.8849 21.4746 46.7594C21.506 46.2573 21.6106 45.7239 21.7779 45.2113C21.9453 44.6779 22.1859 44.1549 22.4683 43.6632C22.7821 43.1089 23.1587 42.5963 23.5771 42.1465C23.985 41.7177 24.4348 41.3516 24.9055 41.0796C25.3762 40.8076 25.8469 40.6507 26.2758 40.6089L26.2862 40.5984Z" fill="#0076BF"/>
<path fill-rule="evenodd" clip-rule="evenodd" d="M25.042 40.9959C25.5859 40.6821 26.0671 40.1486 26.4227 39.5315C26.7783 38.9143 26.998 38.224 26.998 37.5963C26.998 36.9687 26.7783 36.5294 26.4227 36.3307C26.0671 36.1215 25.5754 36.1529 25.042 36.4667C24.498 36.7805 24.0064 37.3139 23.6612 37.9311C23.3056 38.5482 23.0859 39.2386 23.0859 39.8662C23.0859 40.4938 23.3056 40.9331 23.6612 41.1318C24.0169 41.341 24.5085 41.3097 25.042 40.9959Z" fill="white"/>
<path fill-rule="evenodd" clip-rule="evenodd" d="M24.9268 40.797C25.1674 40.6506 25.408 40.4623 25.6276 40.2322C25.8578 39.9916 26.0565 39.7092 26.2343 39.4163V39.3954C26.4122 39.1025 26.5481 38.7887 26.6423 38.4854C26.7364 38.182 26.7783 37.8892 26.7783 37.5963C26.7783 37.3034 26.7364 37.0942 26.6527 36.9059C26.5691 36.7281 26.4645 36.6026 26.318 36.5189C26.182 36.4352 26.0042 36.4038 25.8159 36.4247C25.6172 36.4457 25.3975 36.5189 25.1569 36.6549H25.1465C24.9059 36.8013 24.6758 36.9896 24.4561 37.2197C24.226 37.4603 24.0273 37.7427 23.8494 38.0356C23.6821 38.3389 23.5357 38.6527 23.4415 38.9665C23.3474 39.2699 23.3055 39.5628 23.3055 39.8556C23.3055 40.1485 23.3474 40.3577 23.431 40.546C23.5147 40.7238 23.6193 40.8493 23.7658 40.933C23.9017 41.0167 24.0691 41.0481 24.2574 41.0272C24.4561 41.0062 24.6758 40.933 24.9164 40.797H24.9268ZM25.9519 40.546C25.7113 40.8075 25.4394 41.0272 25.1569 41.1945C24.8641 41.3619 24.5816 41.456 24.3201 41.4874C24.0377 41.5188 23.7762 41.4665 23.567 41.341H23.5566C23.3369 41.205 23.1591 41.0062 23.0336 40.7447C22.929 40.5042 22.8662 40.2113 22.8662 39.8766C22.8662 39.5418 22.9185 39.2071 23.0231 38.8619C23.1277 38.5063 23.2846 38.1611 23.4729 37.8369C23.6612 37.5126 23.8913 37.1988 24.1423 36.9373C24.3829 36.6862 24.6444 36.4666 24.9268 36.2992H24.9373C25.2302 36.1214 25.5126 36.0273 25.7741 35.9959C26.067 35.9645 26.3285 36.0168 26.5481 36.1528C26.7678 36.2783 26.9456 36.477 27.0711 36.749C27.1757 36.9896 27.2385 37.2825 27.2385 37.6172C27.2385 37.9519 27.1862 38.2866 27.0816 38.6318C26.977 38.977 26.8305 39.3326 26.6423 39.6569C26.454 39.9916 26.2239 40.295 25.9728 40.5669L25.9519 40.546Z" fill="#0076BF"/>
<path fill-rule="evenodd" clip-rule="evenodd" d="M40.0106 32.6175C40.7637 32.1991 41.5586 31.9586 42.3641 32.3874C41.7783 32.0422 40.9206 31.4356 40.3139 31.3623C39.6968 31.2891 39.1215 31.5088 38.588 31.8017C36.747 32.9209 35.4291 35.1698 35.2617 37.3036L36.6843 38.13C36.8412 35.9961 38.1696 33.7472 40.0106 32.628V32.6175Z" fill="#0076BF"/>
<path fill-rule="evenodd" clip-rule="evenodd" d="M39.9056 32.4187C40.3031 32.1991 40.7111 32.0213 41.1399 31.9585H41.2131C40.8784 31.7597 40.5542 31.6133 40.2927 31.5819C40.0102 31.5505 39.7487 31.5819 39.4872 31.6551C39.2153 31.7284 38.9538 31.8539 38.7027 31.9899C37.8345 32.5233 37.071 33.3288 36.5166 34.2492C35.9727 35.1488 35.617 36.1634 35.5124 37.1676L36.5061 37.7429C36.6421 36.7492 37.0082 35.7346 37.5521 34.8455C38.1484 33.8518 38.9642 32.994 39.9056 32.4187ZM41.2027 32.4187C40.8366 32.471 40.4809 32.6279 40.1253 32.8267C39.2467 33.3601 38.4935 34.1656 37.9287 35.086C37.3534 36.0274 36.9977 37.1048 36.9141 38.1404C36.9141 38.1718 36.9036 38.2031 36.8827 38.2345C36.8199 38.3391 36.684 38.381 36.5689 38.3182L35.1568 37.5023C35.0731 37.4605 35.0312 37.3768 35.0312 37.2826C35.1149 36.1739 35.502 35.0337 36.1086 34.0296C36.7049 33.0463 37.5103 32.1886 38.4517 31.6133L38.4726 31.5924C38.7446 31.4355 39.0374 31.2995 39.3512 31.2158C39.6651 31.1217 39.9998 31.0798 40.3345 31.1217C40.8575 31.1844 41.506 31.5924 42.0604 31.9271C42.2069 32.0108 42.3428 32.1049 42.4788 32.1782C42.5834 32.2409 42.6252 32.3769 42.5625 32.4815C42.4997 32.5966 42.3637 32.6384 42.2591 32.5756C41.9035 32.3874 41.5583 32.3455 41.2131 32.3978L41.2027 32.4187Z" fill="#0076BF"/>
<path fill-rule="evenodd" clip-rule="evenodd" d="M42.3634 32.3873C41.7358 32.0212 40.8885 32.1049 40.0099 32.6174C39.0894 33.1509 38.2631 34.0609 37.6564 35.1069C37.102 36.0692 36.7464 37.1361 36.6836 38.1194L43.3362 34.2805C43.2839 33.3601 42.9178 32.7011 42.3634 32.3873Z" fill="white"/>
<path fill-rule="evenodd" clip-rule="evenodd" d="M42.2592 32.5859C41.9873 32.429 41.663 32.3662 41.3178 32.4081C40.9517 32.4394 40.5438 32.5859 40.1358 32.8265C39.707 33.0775 39.2886 33.4122 38.912 33.8097C38.5145 34.2281 38.1589 34.7093 37.866 35.2218C37.5941 35.6925 37.3639 36.1946 37.207 36.6967C37.1024 37.0314 37.0188 37.3766 36.9665 37.7008L43.1065 34.1549C43.0751 33.7888 42.981 33.475 42.8555 33.2239C42.709 32.9415 42.5103 32.7219 42.2697 32.5754L42.2592 32.5859ZM41.2655 31.9478C41.7153 31.906 42.1233 31.9792 42.4789 32.1884C42.7927 32.3767 43.0542 32.6486 43.2425 33.0147C43.4203 33.3599 43.5249 33.7783 43.5563 34.2699C43.5563 34.3536 43.5249 34.4373 43.4412 34.4791L36.7886 38.318C36.7468 38.3389 36.705 38.3494 36.6631 38.3494C36.5376 38.3494 36.4435 38.2343 36.4539 38.1088C36.4853 37.6067 36.5899 37.0732 36.7572 36.5607C36.9246 36.0272 37.1652 35.4938 37.4581 34.9917C37.7719 34.4478 38.1484 33.9352 38.5668 33.4854C38.9748 33.0566 39.4246 32.6905 39.8953 32.4185C40.366 32.1466 40.8262 31.9897 41.2655 31.9478Z" fill="#0076BF"/>
<path fill-rule="evenodd" clip-rule="evenodd" d="M40.0107 32.3455C40.5546 32.0317 41.0358 31.4982 41.3914 30.8811C41.7471 30.2639 41.9667 29.5736 41.9667 28.946C41.9667 28.3184 41.7471 27.879 41.3914 27.6803C41.0358 27.4711 40.5442 27.5025 40.0107 27.8163C39.4668 28.1301 38.9752 28.6635 38.63 29.2807C38.2743 29.8978 38.0547 30.5882 38.0547 31.2158C38.0547 31.8434 38.2743 32.2827 38.63 32.4815C38.9856 32.6907 39.4772 32.6593 40.0107 32.3455Z" fill="white"/>
<path fill-rule="evenodd" clip-rule="evenodd" d="M39.8949 32.1574C40.1459 32.0109 40.3761 31.8226 40.5957 31.5925C40.8258 31.3519 41.0246 31.0695 41.2024 30.7766V30.7557C41.3802 30.4628 41.5162 30.149 41.6103 29.8457C41.7045 29.5423 41.7463 29.239 41.7463 28.9566C41.7463 28.6742 41.7045 28.4545 41.6208 28.2662C41.5371 28.0884 41.4325 27.9629 41.2861 27.8792C41.1501 27.7955 40.9723 27.7641 40.784 27.7851C40.5852 27.806 40.3656 27.8792 40.125 28.0152H40.1145C39.874 28.1616 39.6438 28.3499 39.4242 28.58H39.4137C39.1941 28.8311 38.9953 29.103 38.8175 29.3959C38.6502 29.6992 38.5037 30.013 38.4096 30.3268C38.3154 30.6302 38.2736 30.9335 38.2736 31.216C38.2736 31.4984 38.3154 31.718 38.3991 31.9063C38.4828 32.0841 38.5874 32.2097 38.7338 32.2933C38.8698 32.377 39.0372 32.4084 39.2254 32.3875C39.4242 32.3666 39.6439 32.2933 39.8844 32.1574H39.8949ZM40.9304 31.9063C40.6794 32.1678 40.4179 32.3875 40.1355 32.5548C39.8426 32.7222 39.5602 32.8163 39.2987 32.8477C39.0162 32.8791 38.7547 32.8268 38.5455 32.7013H38.5351C38.3154 32.5653 38.1376 32.3666 38.0121 32.1051C37.9075 31.8645 37.8447 31.5716 37.8447 31.2369C37.8447 30.9022 37.897 30.5674 38.0016 30.2222C38.1062 29.8666 38.2631 29.5214 38.4514 29.1867C38.6397 28.8624 38.8593 28.5591 39.1104 28.2976H39.1208C39.3614 28.0256 39.6229 27.8164 39.9053 27.6491H39.9158C40.2087 27.4713 40.4911 27.3771 40.7526 27.3457C41.0455 27.3144 41.307 27.3667 41.5267 27.5026C41.7463 27.6282 41.9241 27.8269 42.0497 28.0989C42.1543 28.3394 42.217 28.6323 42.217 28.967C42.217 29.3018 42.1647 29.6365 42.0601 29.9817C41.9555 30.3269 41.8091 30.672 41.6208 30.9963L41.5999 31.0381C41.4116 31.3624 41.1919 31.6553 40.9409 31.9168L40.9304 31.9063Z" fill="#0076BF"/>
<path fill-rule="evenodd" clip-rule="evenodd" d="M35.6795 30.6091L34.1837 29.7409L33.3365 29.9187L34.8322 30.7869L35.6795 30.6091ZM31.3281 36.8537L29.8323 35.9855L30.1043 36.8014L31.6001 37.6696L31.3281 36.8432V36.8537ZM27.165 33.7994L28.0123 32.9939L28.2006 32.3663L27.7926 31.6864L28.5981 30.2952H29.3826C29.3826 30.3057 29.8323 29.835 29.8323 29.835L30.1043 28.7053L31.2445 28.0463L32.1649 28.5798L32.7507 27.8999L34.2465 28.7681L33.462 29.6886L33.0122 29.7304L32.1649 29.2388L31.6001 29.563L31.3281 30.6927L30.8784 31.1634H30.0938C30.0938 31.153 29.2884 32.5442 29.2884 32.5442L29.6964 33.2241L29.5081 33.8517L28.6608 34.6571V35.3161L29.5081 35.8077L29.6964 36.2156L29.2884 37.3662L27.7926 36.5085L28.096 35.6612L27.1755 35.1278V33.8098L27.165 33.7994Z" fill="white"/>
<path fill-rule="evenodd" clip-rule="evenodd" d="M35.0513 30.5044L34.1517 29.9814L33.9739 30.0233L34.8735 30.5463L35.0513 30.5044ZM34.2877 29.5526L35.773 30.4103C35.8358 30.4417 35.8776 30.494 35.8985 30.5672C35.9195 30.6927 35.8462 30.8078 35.7207 30.8392L34.8735 31.017C34.8212 31.0275 34.7584 31.017 34.7166 30.9961L33.2208 30.1279C33.1685 30.0965 33.1266 30.0442 33.1162 29.9814V29.9605H33.0325C32.9907 29.9605 32.9384 29.9605 32.8965 29.9291L32.1643 29.5107L31.7982 29.7199L31.5472 30.7555C31.5472 30.7973 31.5158 30.8287 31.4949 30.8601L31.0555 31.3203C31.0137 31.3726 30.9509 31.404 30.8777 31.404H30.2187C30.2187 31.3936 29.5493 32.5546 29.5493 32.5546L29.884 33.1195C29.9154 33.1718 29.9259 33.2345 29.9049 33.2973L29.7167 33.9249C29.7062 33.9667 29.6853 33.9981 29.6539 34.0295L28.8799 34.7617V35.1905L29.6016 35.6089C29.6434 35.6299 29.6853 35.6717 29.7062 35.7135L29.7376 35.7868C29.8004 35.7554 29.8736 35.7658 29.9363 35.7972L31.4216 36.6549C31.4739 36.6863 31.5158 36.7282 31.5367 36.7805L31.8087 37.6068C31.8296 37.6696 31.8191 37.7323 31.7877 37.7951C31.725 37.8997 31.589 37.9415 31.4739 37.8788L29.9886 37.021C29.9363 36.9897 29.8945 36.9478 29.8736 36.8851L29.7794 36.6026L29.4865 37.4395L29.4656 37.4813C29.4029 37.5859 29.2669 37.6277 29.1518 37.565L27.6665 36.7072C27.5619 36.6549 27.5096 36.5399 27.5514 36.4248L27.792 35.7554L27.0494 35.3265C26.9761 35.2847 26.9238 35.2115 26.9238 35.1173V33.7994C26.9238 33.7366 26.9448 33.6843 26.9971 33.632L27.8025 32.8789L27.9385 32.4082L27.5828 31.8224C27.541 31.7492 27.541 31.6655 27.5828 31.5923L28.3882 30.2011C28.4301 30.1279 28.5033 30.086 28.587 30.086H29.2773C29.2773 30.0965 29.6121 29.7409 29.6121 29.7409L29.8631 28.6635C29.8736 28.6007 29.9154 28.5484 29.9677 28.517L31.1078 27.8581C31.1811 27.8162 31.2648 27.8162 31.338 27.8581L32.1015 28.2974L32.5618 27.7639C32.635 27.6802 32.7501 27.6593 32.8547 27.7116L34.3505 28.5798L34.3818 28.6007C34.476 28.6844 34.4864 28.8308 34.4028 28.925L33.8275 29.5944L34.1203 29.5317C34.1726 29.5317 34.2249 29.5317 34.2772 29.5526H34.2877ZM31.1392 37.0106L30.2397 36.4876L30.292 36.6654L31.1915 37.1884L31.1392 37.0106ZM27.3841 33.8935V34.9813L28.2 35.452C28.2941 35.5043 28.336 35.6194 28.3046 35.724L28.064 36.3934L29.1623 37.021L29.4447 36.2156L29.3296 35.9541L28.5451 35.5043C28.4719 35.4625 28.4301 35.3893 28.4301 35.3056V34.6466C28.4301 34.5734 28.4615 34.5106 28.5138 34.4688L29.2983 33.7261L29.4342 33.2554L29.0786 32.6697C29.0368 32.5965 29.0368 32.5023 29.0786 32.4291L29.884 31.0379C29.9259 30.9647 30.0095 30.9229 30.0932 30.9229H30.7731C30.7731 30.9333 31.1078 30.5777 31.1078 30.5777L31.3693 29.5003C31.3903 29.4271 31.4321 29.3748 31.4949 29.3434L32.0388 29.0296C32.112 28.9877 32.1957 28.9877 32.2689 29.0296L33.0534 29.4794L33.3358 29.448L33.8902 28.7995L32.7919 28.1719L32.3317 28.7158C32.2585 28.7995 32.1434 28.8204 32.0492 28.7681L31.2334 28.2974L30.292 28.8413L30.0409 29.8768C30.0305 29.9187 30.0096 29.9605 29.9782 29.9919L29.5388 30.4521C29.4865 30.5044 29.4238 30.5254 29.361 30.5254H28.7125C28.7125 30.5149 28.0431 31.676 28.0431 31.676L28.3778 32.2408C28.4092 32.3036 28.4196 32.3768 28.3987 32.4291L28.2209 33.0462C28.2104 33.0881 28.1791 33.1299 28.1477 33.1613L27.3841 33.883V33.8935Z" fill="#0076BF"/>
<path fill-rule="evenodd" clip-rule="evenodd" d="M34.6443 33.3498L34.8326 32.7222L35.6798 31.9272V30.6092L34.8326 30.7871L34.6443 30.3791L35.0522 29.2285C34.7803 29.0716 34.5187 28.9147 34.2468 28.7578L33.4623 29.6783L33.0125 29.7201L32.7405 28.9043C32.364 29.1239 31.977 29.3436 31.6004 29.5632L31.3284 30.6929L30.8787 31.1636H30.0942C29.8222 31.6134 29.5607 32.0841 29.2887 32.5443L29.6967 33.2242L29.5084 33.8518L28.6611 34.6468V35.9648L29.5084 35.787L29.6967 36.1949L29.2887 37.3455C29.5607 37.5024 29.8222 37.6593 30.0942 37.8162L30.8787 36.8957L31.3284 36.8539L31.6004 37.6698C31.977 37.4501 32.364 37.2304 32.7405 37.0108L33.0125 35.8811L33.4623 35.4104H34.2468C34.5187 34.9606 34.7803 34.4899 35.0522 34.0297L34.6443 33.3498Z" fill="white"/>
<path fill-rule="evenodd" clip-rule="evenodd" d="M34.4243 33.287L34.6125 32.6698C34.623 32.628 34.6544 32.5861 34.6858 32.5548L35.4493 31.833V30.8916L34.874 31.0067C34.7694 31.0276 34.6648 30.9753 34.623 30.8812L34.4347 30.4732C34.4138 30.4209 34.4138 30.3582 34.4347 30.3059L34.7799 29.3331L34.2987 29.0611L33.6293 29.8456C33.5875 29.8979 33.5352 29.9188 33.4724 29.9293L33.0331 29.9711C32.9285 29.9816 32.8239 29.9188 32.7925 29.8142L32.6042 29.2599L31.7883 29.7306L31.5373 30.7661C31.5268 30.8079 31.5059 30.8498 31.4745 30.8812L31.0352 31.3414C30.9829 31.3937 30.9201 31.4146 30.8574 31.4146H30.2089C30.2089 31.4042 29.5394 32.5652 29.5394 32.5652L29.8742 33.1301C29.9055 33.1928 29.916 33.266 29.8951 33.3183L29.7173 33.9355C29.7068 33.9773 29.6754 34.0192 29.644 34.0505L28.8805 34.7723V35.7137L29.4558 35.5986C29.5604 35.5777 29.6649 35.63 29.7068 35.7242L29.8951 36.1321C29.916 36.1844 29.916 36.2472 29.8951 36.2995L29.5499 37.2722L30.0311 37.5442L30.7005 36.7597C30.7423 36.7074 30.7946 36.6865 30.8574 36.676L31.2967 36.6342C31.4013 36.6237 31.5059 36.6865 31.5373 36.7911L31.7151 37.3455L32.531 36.8748L32.782 35.8392C32.7925 35.7974 32.8134 35.7555 32.8448 35.7242L33.2841 35.2639C33.3364 35.2116 33.3992 35.1907 33.4619 35.1907H34.1105C34.1105 35.2012 34.7799 34.0401 34.7799 34.0401L34.4452 33.4752C34.4138 33.4125 34.4033 33.3497 34.4243 33.287ZM35.0309 32.8476L34.895 33.3183L35.2506 33.9041C35.2924 33.9773 35.2924 34.061 35.2506 34.1342L34.4452 35.5254C34.4033 35.5986 34.3301 35.6509 34.236 35.6509H33.5456C33.5456 35.6405 33.2109 35.9961 33.2109 35.9961L32.9599 37.0735C32.9494 37.1363 32.9076 37.1886 32.8553 37.2199L31.7256 37.8685C31.7047 37.8789 31.6837 37.8894 31.6628 37.8998C31.5477 37.9417 31.4118 37.8685 31.3804 37.7534L31.1712 37.1049L30.9934 37.1258L30.2612 37.9835C30.1879 38.0672 30.0729 38.0881 29.9683 38.0358L29.1733 37.5756C29.0792 37.5233 29.0269 37.4082 29.0687 37.2932L29.4453 36.2367L29.3721 36.0798L28.7236 36.2158C28.7026 36.2158 28.6817 36.2158 28.6608 36.2158C28.5353 36.2158 28.4307 36.1112 28.4307 35.9857V34.6677C28.4307 34.6049 28.4516 34.5526 28.5039 34.5003L29.3093 33.7472L29.4453 33.2765L29.0897 32.6907C29.0478 32.6175 29.0478 32.5338 29.0897 32.4606L29.8951 31.0694C29.9369 30.9962 30.0101 30.9439 30.1043 30.9439H30.7946C30.7946 30.9544 31.1294 30.5987 31.1294 30.5987L31.3804 29.5214C31.3908 29.4586 31.4327 29.4063 31.485 29.3749L32.6042 28.7264C32.6251 28.7159 32.6461 28.7055 32.667 28.695C32.782 28.6532 32.918 28.7159 32.9494 28.8415L33.1586 29.49L33.3364 29.4691L34.0686 28.6113C34.1418 28.5277 34.2569 28.5067 34.3615 28.559L35.1565 29.0193C35.2506 29.0716 35.3029 29.1866 35.2611 29.3017L34.8845 30.3582L34.9577 30.5151L35.6062 30.3791C35.6272 30.3791 35.6481 30.3791 35.669 30.3791C35.7945 30.3791 35.8991 30.4837 35.8991 30.6092V31.9272C35.8991 31.9899 35.8782 32.0422 35.8259 32.0945L35.0205 32.8476H35.0309Z" fill="#0076BF"/>
<path fill-rule="evenodd" clip-rule="evenodd" d="M32.8242 33.674C33.1903 33.0464 33.1903 32.3769 32.8242 32.1677C32.4581 31.9585 31.8828 32.2933 31.5167 32.9209C31.1611 33.5485 31.1611 34.2179 31.5167 34.4271C31.8828 34.6363 32.4581 34.3016 32.8242 33.674Z" fill="white"/>
<path fill-rule="evenodd" clip-rule="evenodd" d="M33.0128 33.7994C32.8141 34.1341 32.563 34.3956 32.3015 34.5525H32.291C31.9877 34.7408 31.6634 34.7722 31.4124 34.6257C31.1614 34.4793 31.0254 34.1864 31.0254 33.8308C31.0254 33.4751 31.1195 33.1613 31.3183 32.8161C31.517 32.4605 31.7785 32.1885 32.04 32.0316H32.0505C32.3538 31.8434 32.6676 31.812 32.9186 31.9584C33.1697 32.1153 33.3057 32.4082 33.3057 32.7534C33.3057 33.0567 33.2115 33.4124 33.0128 33.7575L32.9919 33.7889L33.0128 33.7994ZM32.6362 33.5379C32.7931 33.2659 32.8663 32.994 32.8663 32.7534C32.8663 32.5651 32.8141 32.4187 32.7199 32.3559H32.699C32.5944 32.2931 32.448 32.3245 32.2806 32.4187H32.2701C32.0714 32.5442 31.8726 32.7429 31.7157 33.0149L31.6948 33.0463C31.5379 33.3182 31.4647 33.5902 31.4647 33.8308C31.4647 34.0713 31.517 34.1759 31.6216 34.2282C31.7262 34.291 31.8831 34.2596 32.0505 34.1655H32.0609C32.2597 34.04 32.4584 33.8412 32.6153 33.5693L32.6362 33.5379Z" fill="#0076BF"/>
<path fill-rule="evenodd" clip-rule="evenodd" d="M31.7043 29.375C31.8089 29.4377 31.8507 29.5737 31.788 29.6888C31.7252 29.7934 31.5892 29.8352 31.4742 29.7724L29.9784 28.9043C29.8738 28.8415 29.832 28.7055 29.8947 28.5905C29.9575 28.4859 30.0935 28.444 30.2085 28.5068L31.7043 29.375Z" fill="#0076BF"/>
<path fill-rule="evenodd" clip-rule="evenodd" d="M30.1985 30.9648C30.3031 31.0276 30.3449 31.1635 30.2821 31.2786C30.2194 31.3832 30.0834 31.4251 29.9683 31.3623L28.4725 30.4941C28.3679 30.4313 28.3261 30.2954 28.3889 30.1803C28.4516 30.0757 28.5876 30.0339 28.7027 30.0966L30.1985 30.9648Z" fill="#0076BF"/>
<path fill-rule="evenodd" clip-rule="evenodd" d="M29.3938 32.3664C29.4984 32.4292 29.5402 32.5652 29.4775 32.6802C29.4147 32.7848 29.2787 32.8267 29.1636 32.7639L27.6679 31.8957C27.5633 31.833 27.5214 31.697 27.5842 31.5819C27.6469 31.4773 27.7829 31.4355 27.898 31.4982L29.3938 32.3664Z" fill="#0076BF"/>
<path fill-rule="evenodd" clip-rule="evenodd" d="M28.7658 34.469C28.8704 34.5317 28.9123 34.6677 28.8495 34.7828C28.7868 34.8874 28.6508 34.9292 28.5357 34.8664L27.0399 33.9983C26.9353 33.9355 26.8935 33.7995 26.9562 33.6845C27.019 33.5799 27.155 33.538 27.27 33.6008L28.7658 34.469Z" fill="#0076BF"/>
<path fill-rule="evenodd" clip-rule="evenodd" d="M28.7659 35.7868C28.8705 35.8495 28.9123 35.9855 28.8495 36.1006C28.7868 36.2052 28.6508 36.247 28.5357 36.1843L27.1132 35.3684C27.0086 35.3056 26.9667 35.1696 27.0295 35.0546C27.0922 34.95 27.2282 34.9081 27.3433 34.9709L28.7659 35.7868Z" fill="#0076BF"/>
<path fill-rule="evenodd" clip-rule="evenodd" d="M32.855 28.7157C32.9596 28.7785 33.0014 28.9145 32.9387 29.0295C32.8759 29.1341 32.7399 29.176 32.6249 29.1132L31.2128 28.2973C31.1082 28.2346 31.0663 28.0986 31.1291 27.9835C31.1919 27.8789 31.3278 27.8371 31.4429 27.8998L32.855 28.7157Z" fill="#0076BF"/>
<path fill-rule="evenodd" clip-rule="evenodd" d="M25.4907 25.7767C25.564 25.6721 25.7104 25.6616 25.8045 25.7348C25.9091 25.808 25.9196 25.9545 25.8464 26.0486C25.5535 26.4356 25.2711 26.8331 24.9991 27.2411C24.7272 27.649 24.4657 28.0674 24.2251 28.4858C23.4929 29.7515 22.8757 31.0799 22.405 32.4292C21.9448 33.7367 21.631 35.0652 21.4741 36.3517C21.4636 36.4773 21.3486 36.5609 21.223 36.5505C21.0975 36.54 21.0139 36.425 21.0243 36.2994C21.1812 34.9815 21.516 33.6217 21.9762 32.2828C22.4574 30.9125 23.085 29.5527 23.8276 28.2661C24.0787 27.8373 24.3402 27.4084 24.6121 26.99C24.8841 26.5716 25.177 26.1637 25.4698 25.7767H25.4907ZM26.997 45.3474C26.8715 45.3474 26.7669 45.2637 26.7564 45.1382C26.7564 45.0127 26.8401 44.9081 26.9656 44.8976C28.3882 44.8139 29.9258 44.2386 31.453 43.2449C32.9906 42.2512 34.5073 40.8496 35.8671 39.1341C35.9403 39.04 36.0868 39.0191 36.1809 39.0923C36.275 39.1655 36.296 39.3119 36.2228 39.4061C34.8316 41.1634 33.273 42.6068 31.6936 43.6215C30.1036 44.6466 28.4823 45.2532 26.9865 45.3369L26.997 45.3474ZM41.0658 25.9336C41.0658 26.0591 40.9821 26.1637 40.8566 26.1741C40.731 26.1741 40.6264 26.0905 40.616 25.9649C40.595 25.557 40.5427 25.17 40.48 24.7934C40.1976 23.1826 39.549 21.9064 38.6181 21.0696C37.6871 20.2328 36.4738 19.8249 35.0512 19.9086C34.8107 19.919 34.5596 19.9504 34.3086 19.9923C34.183 20.0132 34.068 19.9295 34.0471 19.804C34.0261 19.6785 34.1098 19.5634 34.2353 19.5425C34.5073 19.5006 34.7688 19.4693 35.0303 19.4483C36.5784 19.3542 37.9068 19.8144 38.9214 20.7245C39.9361 21.6345 40.6264 22.9943 40.9298 24.7097C40.9925 25.0968 41.0448 25.5047 41.0658 25.9231V25.9336Z" fill="#0076BF"/>
</svg>
