<svg width="64" height="64" viewBox="0 0 64 64" fill="none" xmlns="http://www.w3.org/2000/svg">
<rect width="64" height="64" rx="32" fill="#F2FBFF"/>
<path d="M8 32C8 18.7452 18.7452 8 32 8C45.2548 8 56 18.7452 56 32C56 45.2548 45.2548 56 32 56C18.7452 56 8 45.2548 8 32Z" fill="#D1F0FF"/>
<path d="M19.8252 31.5618V45.0665L20.3683 45.6458L44.6261 31.598L44.5175 17.8399L44.1916 17.6951L19.8252 31.5618Z" fill="white"/>
<path d="M27.682 45.1754L26.0527 35.8705C27.9958 34.1688 32.3525 29.9762 34.2352 26.8191C35.8162 27.326 39.5068 28.0863 41.6212 27.0725C41.6212 27.0725 42.2314 27.2307 42.3804 27.2614L42.3815 27.2536C42.4271 27.2688 42.42 27.2696 42.3804 27.2614L40.8246 39.0204C38.8575 41.6031 34.8217 46.7901 34.4162 46.877C34.0107 46.9639 30.2647 46.2857 28.4423 45.9357L27.682 45.1754Z" fill="white"/>
<path d="M44.6698 17.7169V17.6951L44.6626 17.6734V17.6517C44.6553 17.6517 44.6408 17.6372 44.6408 17.6372V17.6227C44.6336 17.6227 44.6046 17.6083 44.6046 17.6083H44.5974C44.5974 17.601 43.5692 17 43.5692 17H43.4099L19.0652 31.055L19.0362 31.084H19.029C19.029 31.0912 19.0145 31.1202 19.0145 31.1202V31.1347L19 31.1564V31.1709V31.1926L19.0362 45.0956L19.1159 45.2332L20.1441 45.8342H20.1658C20.1658 45.8414 20.1803 45.8487 20.1803 45.8487H20.2238H20.26L20.3106 45.8197L26.7046 42.1267L27.2955 45.0535C27.3118 45.1343 27.3387 45.2126 27.3756 45.2863C27.4574 45.45 27.5856 45.5861 27.7441 45.6775L28.4424 46.0804C28.5482 46.1333 28.6598 46.172 28.7758 46.195C29.7689 46.3926 32.9779 47 34.1557 47C34.525 47 34.525 46.9783 34.6119 46.9276C35.1984 46.5873 39.6155 40.7944 40.9624 39.0275L40.9768 39.013L41.0058 38.9406L41.7661 33.4446L44.6553 31.7791L44.735 31.6416L44.6988 17.7386V17.7169H44.6698ZM42.5988 27.239V27.1955V27.181V27.1593C42.5916 27.1593 42.5844 27.1448 42.5844 27.1448L42.5699 27.1231H42.5626C42.5626 27.1159 42.5554 27.1014 42.5554 27.1014H42.5409C42.5409 27.0941 42.5337 27.0869 42.5337 27.0869L41.8241 26.6741C41.8313 26.5655 41.8458 26.4569 41.8458 26.3483C41.8458 25.5083 41.4041 24.958 40.7234 24.958C40.0427 24.958 40.1658 25.0449 39.8617 25.2187C39.239 25.5807 38.6886 26.2614 38.3628 27.0072C38.218 27.0072 38.0804 27.0145 37.9428 27.0145C36.6901 27.0145 35.5822 26.8045 34.7784 26.5945L34.677 26.5655C34.0036 26.3845 33.5692 26.2035 33.475 26.1673H33.4605H33.4461H33.4316H33.4026H33.3881H33.3809L33.3664 26.1745H33.3592L33.3447 26.189H33.3374C33.3374 26.1962 33.323 26.2107 33.323 26.2107H33.3157C33.3157 26.218 33.3085 26.2324 33.3085 26.2324C33.2578 26.3193 33.1637 26.4931 33.0116 26.7321C32.7799 26.819 32.5482 26.9276 32.3092 27.0652C30.4772 28.1224 28.9348 30.4323 28.4569 32.6408C27.8776 33.2491 27.2549 33.8573 26.5959 34.4366C26.4222 33.9804 26.0673 33.7125 25.5894 33.7125C25.1115 33.7125 25.0319 33.7994 24.7277 33.9732C23.7285 34.5525 22.9175 35.9573 22.9175 37.1014C22.9175 37.9486 23.3592 38.4917 24.0398 38.4917C24.7205 38.4917 24.5974 38.4048 24.8943 38.231C25.1405 38.0862 25.3867 37.8907 25.5967 37.6589L25.727 37.5141L26.4004 40.6568L21.8385 43.2925L21.8096 32.3584L42.9392 20.1571L42.9681 31.0912L42.0196 31.6416L42.6206 27.2462L42.5988 27.239ZM41.5054 26.4931L41.4547 26.4642L41.3172 26.4497C40.4917 26.7393 39.6155 26.9131 38.7031 26.9783C39.0072 26.3555 39.4779 25.7907 40.0065 25.4866C40.2527 25.3418 40.4917 25.2694 40.7089 25.2694C41.2013 25.2694 41.5127 25.6821 41.5127 26.3411V26.4931H41.5054ZM24.0036 38.1658C23.5112 38.1658 23.1999 37.7531 23.1999 37.0941C23.1999 36.0442 23.9385 34.7625 24.8508 34.2339C25.097 34.0891 25.336 34.0167 25.5532 34.0167C25.9225 34.0167 26.1904 34.2484 26.2991 34.6466C25.9877 34.9146 25.6691 35.168 25.3505 35.4142L25.3215 35.4432C25.3215 35.4504 25.307 35.4794 25.307 35.4794V35.4938L25.2998 35.5228V35.5373V35.5518V35.5663V35.5735L25.6256 37.1014C25.365 37.449 25.0536 37.7458 24.7133 37.9413L24.6191 37.992L24.3802 38.0934C24.2498 38.1369 24.1267 38.1586 24.0109 38.1586L24.0036 38.1658ZM32.664 27.2028C31.9327 28.3251 30.6075 30.2295 28.8624 32.1557C29.4345 30.2078 30.8103 28.2672 32.4251 27.3331L32.664 27.2028ZM40.6799 38.861C37.8559 42.5829 34.8364 46.4352 34.4381 46.6669C34.4381 46.6669 34.3802 46.6959 34.134 46.6959C33.2668 46.6959 30.2118 46.2469 28.8407 45.7183C28.4986 45.5864 28.37 45.3563 28.2252 45.2115C28.1166 45.0304 28.0804 44.7408 28.0442 44.5597L26.6756 36.2397L26.7408 36.189L26.8421 36.1093L26.9508 36.0224L27.0449 35.95L27.1535 35.8631L27.2477 35.7835L27.3563 35.6966L27.4504 35.6169L27.559 35.5228L27.6459 35.4504L27.7618 35.349L27.8414 35.2766L28.008 35.1318L28.0731 35.0739L28.218 34.9363L28.2976 34.8711L28.4062 34.7697L28.4931 34.6901L28.5945 34.5959L28.6814 34.5163L28.7828 34.4222L28.8624 34.3425L28.9566 34.2484L29.0435 34.1615L29.1376 34.0673L29.2172 33.9805L29.3114 33.8863L29.391 33.7994L29.4852 33.7053L29.5648 33.6184L29.6589 33.5243L29.7386 33.4374L29.8327 33.3432L29.9124 33.2563L29.9993 33.1622L30.0789 33.0753L30.1658 32.9812L30.2382 32.8943L30.3251 32.7929L30.3975 32.7133L30.4844 32.6119L30.5568 32.5322L30.6437 32.4308L30.7089 32.3512L30.803 32.2426L30.861 32.1702L30.9768 32.0326L31.013 31.9891L31.1579 31.8154L31.2086 31.7574L31.3099 31.6416L31.3679 31.5692L31.4547 31.4678L31.5127 31.3954L31.5923 31.294L31.6575 31.2216L31.7372 31.1274L31.7951 31.0478L31.8747 30.9537L31.9327 30.874L32.0051 30.7799L32.063 30.7075L32.1354 30.6133L32.1933 30.5409L32.2585 30.454L32.3164 30.3816L32.3889 30.2875L32.4395 30.2151L32.5047 30.1282L32.5554 30.063L32.6206 29.9689L32.6713 29.9037L32.7364 29.8168L32.7799 29.7516L32.845 29.6575L32.8885 29.5996L32.9537 29.5054L32.9971 29.4475L33.0695 29.3534L33.1057 29.3027L33.1926 29.1796V29.1651C33.1999 29.1651 33.4026 28.8827 33.4026 28.8827V28.8682C33.4099 28.8682 33.4967 28.7523 33.4967 28.7523L33.5185 28.7234L33.5836 28.6293L33.6054 28.593L33.6705 28.5062L33.6923 28.47L33.7502 28.3831L33.7719 28.3468L33.8226 28.2672L33.8443 28.231L33.895 28.1513L33.9167 28.1151L33.9674 28.0355L33.9891 28.0065L34.0398 27.9269L34.0543 27.9051L34.105 27.8255L34.1195 27.8038L34.1702 27.7241V27.7096C34.1774 27.7096 34.2353 27.63 34.2353 27.63C34.3584 27.42 34.4598 27.2607 34.525 27.1521L34.6408 27.1955L34.706 27.2172H34.7133L34.7784 27.2462H34.7929L34.8581 27.2752H34.8798L34.9522 27.3041H34.9739L35.0463 27.3331H35.0681L35.1477 27.3621C35.2419 27.391 35.336 27.4272 35.4446 27.4562H35.4808C35.4808 27.4634 35.5605 27.4852 35.5605 27.4852L35.6112 27.4996L35.6908 27.5214L35.7487 27.5358L35.8212 27.5503L35.8863 27.5648L35.966 27.5865L36.0311 27.601L36.1108 27.6227L36.1904 27.6372L36.2701 27.6517L36.3497 27.6662L36.4294 27.6807L36.5163 27.7024L36.5959 27.7169L36.6973 27.7386H36.7625C36.7625 27.7458 36.9363 27.782 36.9363 27.782H36.987C36.987 27.7893 37.1173 27.811 37.1173 27.811H37.1897C37.1897 27.8182 37.2983 27.84 37.2983 27.84H37.378C37.378 27.8472 37.4866 27.8689 37.4866 27.8689H37.5735C37.5735 27.8762 37.6821 27.8907 37.6821 27.8907H37.769C37.769 27.8979 37.8776 27.9124 37.8776 27.9124H37.9645C37.9645 27.9196 38.0804 27.9269 38.0804 27.9269H38.1673L38.2831 27.9413H38.37L38.4931 27.9486H38.5728H38.7176H38.79H39C39.1521 27.9486 39.2969 27.9486 39.4417 27.9413H39.5865C39.5865 27.9341 39.8834 27.9196 39.8834 27.9196L40.0572 27.9051L40.3179 27.8762L40.4989 27.8545L40.7451 27.8183L40.9261 27.7893L41.1651 27.7458L41.3461 27.7096L41.5779 27.6589L41.7589 27.6083L41.9834 27.5431L42.1571 27.4924L42.2513 27.4707L40.6799 38.8827V38.861ZM41.7951 33.0463L41.882 32.4164L43.4823 31.4895L43.5619 31.3519L43.5257 19.3389L43.4461 19.2013H43.2868L21.223 31.9457L21.1434 32.0833L21.1723 44.0963L21.252 44.2339L21.3316 44.2556L21.4113 44.2339L26.5018 41.294L26.6104 41.8081L20.3541 45.4214L20.3396 41.2433L20.3106 31.8878L44.344 18.0138L44.3874 31.5547L41.7878 33.0536L41.7951 33.0463Z" fill="#2072B4"/>
<path d="M40.7091 29.0494L40.6512 29.0711H40.6367C39.7677 29.3535 38.8336 29.4983 37.8706 29.4983H37.733C36.0096 29.4621 34.6845 28.9914 34.5324 28.9335L34.5179 28.9263H34.4962L34.3224 28.9914L34.25 29.1145L34.1631 29.2594L34.0907 29.3752C33.3666 30.5121 31.2087 33.6982 28.2616 36.0081L28.095 36.1384L28.0371 36.2977L29.6953 44.0675L29.8184 44.1906H29.8401C30.1153 44.2485 30.615 44.3499 31.1942 44.4513H31.216L31.3463 44.4802H31.4042C31.4042 44.4875 31.5056 44.5092 31.5056 44.5092L31.5853 44.5237L31.6722 44.5381L31.759 44.5526L31.8387 44.5671L31.9256 44.5816L32.0125 44.5961L32.0921 44.6106L32.179 44.625L32.2587 44.6395L32.3456 44.654H32.4252C32.4252 44.6613 32.5121 44.6757 32.5121 44.6757L32.5918 44.6902L32.6787 44.7047L32.7511 44.7192L32.8452 44.7337H32.9104C32.9104 44.7409 33.0045 44.7554 33.0045 44.7554H33.0697C33.0697 44.7626 33.1638 44.7771 33.1638 44.7771H33.2218L33.3159 44.7988H33.3738L33.4607 44.8133H33.5186L33.6055 44.8278H33.6562L33.7431 44.8423H33.7866L33.8735 44.8495H33.9169L33.9966 44.8568H34.0328H34.1124H34.1414H34.2355H34.3007C34.4528 44.8568 34.5469 44.835 34.6121 44.7988C35.0755 44.5309 38.573 39.9473 39.6302 38.5497H39.6374C39.6374 38.5425 39.6664 38.4701 39.6664 38.4701L40.9336 29.2738V29.2304L40.8829 29.0856L40.7308 29.0566L40.7091 29.0494ZM34.2138 44.5381C33.4897 44.5381 31.5708 44.2123 29.985 43.9009L28.3702 36.3339C31.3391 34.0313 33.5331 30.8379 34.3152 29.6142L34.3586 44.5309H34.2138V44.5381ZM39.3405 38.3759C37.8199 40.3817 35.4593 43.4303 34.67 44.292L34.6338 32.1124V29.2956C35.1262 29.4621 36.3644 29.8169 37.8995 29.8169C39.4346 29.8169 39.0654 29.7662 39.6229 29.6576H39.6302L39.8908 29.5997L39.9777 29.578L40.166 29.5345L40.2963 29.4983H40.3253C40.3253 29.4911 40.3325 29.4838 40.3325 29.4838L40.5715 29.4187L39.3405 38.3687V38.3759Z" fill="#2072B4"/>
</svg>
