<svg width="64" height="64" viewBox="0 0 64 64" fill="none" xmlns="http://www.w3.org/2000/svg">
<rect width="64" height="64" rx="32" fill="#F2FBFF"/>
<path d="M6.40039 31.9999C6.40039 17.8614 17.8619 6.3999 32.0004 6.3999C46.1389 6.3999 57.6004 17.8614 57.6004 31.9999C57.6004 46.1384 46.1389 57.5999 32.0004 57.5999C17.8619 57.5999 6.40039 46.1384 6.40039 31.9999Z" fill="#D1F0FF"/>
<path fill-rule="evenodd" clip-rule="evenodd" d="M30.5055 17.7983C23.4884 17.7983 17.7988 23.4879 17.7988 30.505C17.7988 37.5221 23.4793 43.2117 30.5055 43.2117C37.5317 43.2117 43.2122 37.5221 43.2122 30.505C43.2122 23.4879 37.5226 17.7983 30.5055 17.7983Z" fill="white"/>
<path fill-rule="evenodd" clip-rule="evenodd" d="M30.506 17.9972C23.6062 17.9972 17.998 23.6055 17.998 30.5052C17.998 37.4049 23.6153 43.0132 30.506 43.0132C37.3966 43.0132 43.0139 37.4049 43.0139 30.5052C43.0139 23.6055 37.3966 17.9972 30.506 17.9972ZM30.506 43.4015C23.3895 43.4015 17.6006 37.6126 17.6006 30.5052C17.6006 23.3978 23.3895 17.6089 30.506 17.6089C37.6224 17.6089 43.4023 23.3978 43.4023 30.5052C43.4023 37.6126 37.6134 43.4015 30.506 43.4015Z" fill="#0076BF"/>
<path fill-rule="evenodd" clip-rule="evenodd" d="M38.6069 22.3952C37.5503 21.3386 36.2859 20.4896 34.8861 19.9026C33.5314 19.3427 32.0504 19.0356 30.497 19.0356C28.9437 19.0356 27.4626 19.3427 26.1079 19.9026C24.7081 20.4806 23.4438 21.3386 22.3781 22.3952C21.3215 23.4518 20.4726 24.7162 19.8855 26.116C19.3256 27.4706 19.0186 28.9517 19.0186 30.5051C19.0186 32.0584 19.3346 33.5395 19.8855 34.8942C20.4635 36.294 21.3215 37.5583 22.3781 38.6149C23.4438 39.6716 24.6991 40.5205 26.1079 41.1075C27.4626 41.6674 28.9346 41.9745 30.497 41.9745C32.0594 41.9745 33.5314 41.6674 34.8861 41.1075C36.2859 40.5295 37.5503 39.6716 38.6069 38.6149C39.6635 37.5583 40.5124 36.294 41.0995 34.8942C41.6594 33.5395 41.9664 32.0584 41.9664 30.5051C41.9664 28.9517 41.6594 27.4706 41.0995 26.116C40.5215 24.7162 39.6635 23.4518 38.6069 22.3952Z" fill="white"/>
<path fill-rule="evenodd" clip-rule="evenodd" d="M30.5058 19.2256C29.0156 19.2256 27.5616 19.5146 26.1889 20.0745C24.8162 20.6435 23.588 21.4653 22.5314 22.5219C21.4747 23.5786 20.6529 24.8068 20.0839 26.1795C19.515 27.5432 19.235 28.9972 19.235 30.4964C19.235 31.9955 19.515 33.4405 20.0839 34.8132C20.6439 36.1859 21.4747 37.4141 22.5314 38.4708C23.597 39.5274 24.8252 40.3492 26.1889 40.9182C28.9253 42.0471 32.0862 42.0471 34.8136 40.9182C36.1863 40.3492 37.4145 39.5274 38.4711 38.4708C39.5278 37.4141 40.3496 36.1859 40.9186 34.8132C41.4785 33.4495 41.7765 31.9955 41.7765 30.4964C41.7765 28.9972 41.4875 27.5522 40.9186 26.1795C40.3496 24.8068 39.5278 23.5786 38.4711 22.5219C37.4145 21.4653 36.1863 20.6435 34.8136 20.0745C33.4499 19.5056 31.9959 19.2256 30.5058 19.2256ZM30.5058 42.1645C28.9614 42.1645 27.4623 41.8664 26.0444 41.2794C24.6265 40.6924 23.3532 39.8345 22.2604 38.7417C21.1677 37.6489 20.3097 36.3756 19.7317 34.9577C19.1447 33.5489 18.8467 32.0407 18.8467 30.4964C18.8467 28.9521 19.1447 27.4529 19.7317 26.035C20.3187 24.6172 21.1677 23.3438 22.2604 22.251C23.3532 21.1583 24.6265 20.3093 26.0444 19.7223C28.8802 18.5483 32.1313 18.5483 34.9671 19.7223C36.385 20.3093 37.6583 21.1673 38.7511 22.26C39.8439 23.3528 40.6928 24.6262 41.2798 26.0441C41.8668 27.4619 42.1648 28.9611 42.1648 30.5054C42.1648 32.0497 41.8668 33.5489 41.2798 34.9667C40.6837 36.3846 39.8439 37.658 38.7511 38.7507C37.6583 39.8435 36.385 40.6924 34.9671 41.2885C33.5583 41.8755 32.0501 42.1735 30.5058 42.1735V42.1645Z" fill="#0076BF"/>
<path fill-rule="evenodd" clip-rule="evenodd" d="M30.5062 21.0946C23.7149 21.0946 18.1969 25.7547 18.1969 31.4803C18.1969 37.206 23.7149 41.857 30.5062 41.857C37.2976 41.857 42.8065 37.206 42.8065 31.4803C42.8065 25.7547 37.2886 21.0946 30.5062 21.0946ZM30.5062 42.2453C23.5072 42.2453 17.8086 37.4137 17.8086 31.4713C17.8086 25.5289 23.5072 20.7063 30.5062 20.7063C37.5053 20.7063 43.2039 25.5379 43.2039 31.4713C43.2039 37.4047 37.5053 42.2453 30.5062 42.2453Z" fill="#0076BF"/>
<path fill-rule="evenodd" clip-rule="evenodd" d="M30.5059 38.1003C23.3895 38.1003 17.6006 34.2621 17.6006 29.5479C17.6006 24.8337 17.6909 29.3492 17.7993 29.3492C17.9076 29.3492 17.9889 29.4395 17.9889 29.5479C17.9889 34.0544 23.6062 37.7119 30.4969 37.7119C37.3876 37.7119 43.0049 34.0544 43.0049 29.5479C43.0049 25.0414 43.0952 29.3492 43.2036 29.3492C43.312 29.3492 43.3933 29.4395 43.3933 29.5479C43.3933 34.2621 37.6044 38.1003 30.4969 38.1003H30.5059Z" fill="#0076BF"/>
<path fill-rule="evenodd" clip-rule="evenodd" d="M30.506 31.0021C24.5997 31.0021 19.7861 28.2025 19.7861 24.7526C19.7861 21.3028 20.2286 22.7026 20.9331 21.8446C20.9963 21.7634 21.1227 21.7543 21.204 21.8175C21.2943 21.8808 21.3033 22.0072 21.2311 22.0885C20.5809 22.8742 20.1745 23.8947 20.1745 24.7436C20.1745 27.9767 24.8074 30.6047 30.506 30.6047C36.2046 30.6047 40.8285 27.9767 40.8285 24.7436C40.8285 21.5105 40.1963 22.2872 39.0584 21.357C38.9681 21.2937 38.959 21.1673 39.0223 21.086C39.0945 21.0047 39.2119 20.9867 39.2932 21.0589C40.5304 22.0704 41.2168 23.3799 41.2168 24.7436C41.2168 28.1844 36.4123 30.9931 30.506 30.9931V31.0021Z" fill="#0076BF"/>
<path fill-rule="evenodd" clip-rule="evenodd" d="M30.5063 43.4015C30.3979 43.4015 30.3076 43.3112 30.3076 43.2029V17.7985C30.3076 17.6902 30.3979 17.5999 30.5063 17.5999C30.6147 17.5999 30.6959 17.6902 30.6959 17.7985V43.2029C30.6959 43.3112 30.6056 43.4015 30.5063 43.4015Z" fill="#0076BF"/>
<path fill-rule="evenodd" clip-rule="evenodd" d="M24.058 41.6496C24.0219 41.6496 23.9857 41.6406 23.9496 41.6135C21.746 40.0963 20.7165 37.9198 20.861 35.1292C21.15 29.6745 26.2164 22.9644 30.5423 20.6163C34.6153 18.4037 38.3451 19.2165 40.7654 22.856C40.8286 22.9464 40.8015 23.0638 40.7112 23.127C40.6209 23.1902 40.5035 23.1631 40.4403 23.0728C38.1464 19.6229 34.6062 18.8553 30.7319 20.9595C26.4964 23.2624 21.5383 29.819 21.2584 35.1563C21.1229 37.8024 22.0982 39.8705 24.1754 41.2974C24.2657 41.3607 24.2838 41.4781 24.2205 41.5684C24.1844 41.6226 24.1212 41.6496 24.058 41.6496Z" fill="#0076BF"/>
<path fill-rule="evenodd" clip-rule="evenodd" d="M36.945 41.6496C36.8818 41.6496 36.8186 41.6226 36.7824 41.5684C36.7192 41.4781 36.7463 41.3607 36.8276 41.2974C38.9047 39.8705 39.8891 37.8024 39.7537 35.1563C39.4737 29.819 34.5157 23.2624 30.2801 20.9595C26.3967 18.8553 22.8566 19.6229 20.5627 23.0728C20.4995 23.1631 20.3821 23.1902 20.2918 23.127C20.2015 23.0638 20.1744 22.9464 20.2376 22.856C22.6579 19.2165 26.3787 18.4037 30.4607 20.6163C34.7956 22.9644 39.853 29.6745 40.142 35.1292C40.2865 37.9198 39.2479 40.0963 37.0534 41.6135C37.0263 41.6316 36.9811 41.6496 36.945 41.6496Z" fill="#0076BF"/>
<path fill-rule="evenodd" clip-rule="evenodd" d="M46.2562 37.0527V38.8138L40.3408 40.6652V38.9131L46.2562 37.0527Z" fill="#0076BF"/>
<path fill-rule="evenodd" clip-rule="evenodd" d="M40.476 39.0126V40.4846L46.1204 38.7145V37.2425L40.476 39.0126ZM40.3405 40.8007C40.3135 40.8007 40.2864 40.7917 40.2593 40.7736C40.2231 40.7465 40.2051 40.7104 40.2051 40.6652V38.9042C40.2051 38.841 40.2412 38.7958 40.3044 38.7778L46.2288 36.9264C46.2739 36.9174 46.3101 36.9264 46.3462 36.9445C46.3823 36.9716 46.4004 37.0077 46.4004 37.0528V38.8139C46.4004 38.8771 46.3643 38.9223 46.301 38.9403L40.3767 40.7917C40.3676 40.7917 40.3496 40.7917 40.3405 40.7917V40.8007Z" fill="#0076BF"/>
<path fill-rule="evenodd" clip-rule="evenodd" d="M45.3261 41.7939V43.546L42.9238 44.9367V43.1757L45.3261 41.7939Z" fill="#0076BF"/>
<path fill-rule="evenodd" clip-rule="evenodd" d="M43.0583 43.257V44.702L45.1896 43.4737V42.0288L43.0583 43.257ZM42.9228 45.0722C42.8957 45.0722 42.8777 45.0722 42.8506 45.0542C42.8054 45.0271 42.7783 44.9819 42.7783 44.9368V43.1757C42.7783 43.1306 42.8054 43.0854 42.8506 43.0583L45.2528 41.6766C45.298 41.6495 45.3431 41.6495 45.3883 41.6766C45.4334 41.7037 45.4605 41.7488 45.4605 41.794V43.555C45.4605 43.6002 45.4334 43.6453 45.3883 43.6724L42.9951 45.0542C42.968 45.0632 42.9499 45.0722 42.9228 45.0722Z" fill="#0076BF"/>
<path fill-rule="evenodd" clip-rule="evenodd" d="M42.9236 43.1758V44.9369L37.9385 42.056V40.2949L42.9236 43.1758Z" fill="#0076BF"/>
<path fill-rule="evenodd" clip-rule="evenodd" d="M38.0737 41.9745L42.7879 44.7019V43.2569L38.0737 40.5295V41.9745ZM42.9233 45.0721C42.8962 45.0721 42.8782 45.0721 42.8511 45.0541L37.8659 42.1732C37.8208 42.1461 37.8027 42.1009 37.8027 42.0558V40.2947C37.8027 40.2495 37.8298 40.2044 37.8659 40.1773C37.9111 40.1502 37.9653 40.1502 38.0014 40.1773L42.9866 43.0582C43.0317 43.0853 43.0498 43.1305 43.0498 43.1756V44.9367C43.0498 44.9818 43.0227 45.027 42.9866 45.0541C42.9595 45.0631 42.9414 45.0721 42.9143 45.0721H42.9233Z" fill="#0076BF"/>
<path fill-rule="evenodd" clip-rule="evenodd" d="M37.9387 40.2949V42.056L34.7236 45.4697V43.7087L37.9387 40.2949Z" fill="#0076BF"/>
<path fill-rule="evenodd" clip-rule="evenodd" d="M34.8591 43.7627V45.1264L37.8032 42.0017V40.638L34.8591 43.7627ZM34.7236 45.6051C34.7055 45.6051 34.6875 45.6051 34.6694 45.596C34.6152 45.578 34.5791 45.5238 34.5791 45.4696V43.7086C34.5791 43.6724 34.5972 43.6363 34.6152 43.6183L37.8303 40.2045C37.8664 40.1594 37.9296 40.1503 37.9838 40.1684C38.038 40.1865 38.0651 40.2406 38.0651 40.2948V42.0559C38.0651 42.092 38.0561 42.1281 38.029 42.1462L34.8139 45.5599C34.7868 45.587 34.7507 45.6051 34.7146 45.6051H34.7236Z" fill="#0076BF"/>
<path fill-rule="evenodd" clip-rule="evenodd" d="M34.723 43.7083V45.4694L28.916 35.4539V33.6929L34.723 43.7083Z" fill="#0076BF"/>
<path fill-rule="evenodd" clip-rule="evenodd" d="M29.0522 35.4182L34.5882 44.964V43.7448L29.0522 34.199V35.4182ZM34.7237 45.6052C34.6695 45.6052 34.6334 45.5781 34.6063 45.533L28.7993 35.5176C28.7903 35.4995 28.7812 35.4724 28.7812 35.4453V33.6843C28.7812 33.621 28.8264 33.5668 28.8806 33.5578C28.9438 33.5398 29.007 33.5669 29.0341 33.621L34.8411 43.6365C34.8591 43.6545 34.8591 43.6816 34.8591 43.7087V45.4698C34.8591 45.533 34.814 45.5872 34.7598 45.6052C34.7508 45.6052 34.7327 45.6052 34.7237 45.6052Z" fill="#0076BF"/>
<path fill-rule="evenodd" clip-rule="evenodd" d="M28.916 33.6929L46.2556 37.0524L40.3403 38.9128L45.3254 41.7937L42.9232 43.1755L37.938 40.2946L34.723 43.7083L28.916 33.6929Z" fill="white"/>
<path fill-rule="evenodd" clip-rule="evenodd" d="M29.178 33.8828L34.7501 43.4828L37.8387 40.2045C37.8839 40.1594 37.9471 40.1503 38.0103 40.1774L42.9322 43.0222L45.0545 41.794L40.2771 39.0305C40.2319 39.0034 40.2049 38.9492 40.2049 38.895C40.2049 38.8408 40.25 38.7957 40.3042 38.7776L45.7138 37.0888L29.187 33.8828H29.178ZM34.723 43.844H34.714C34.6688 43.844 34.6327 43.8169 34.6056 43.7808L28.7986 33.7654C28.7715 33.7202 28.7715 33.6661 28.7986 33.6209C28.8257 33.5757 28.8799 33.5577 28.9341 33.5667L46.2827 36.9263C46.346 36.9353 46.3911 36.9895 46.3911 37.0527C46.3911 37.1159 46.355 37.1701 46.2918 37.1882L40.6654 38.9492L45.3796 41.6766C45.4248 41.7037 45.4519 41.7488 45.4519 41.794C45.4519 41.8391 45.4248 41.8843 45.3796 41.9114L42.9864 43.2931C42.9413 43.3202 42.8871 43.3202 42.851 43.2931L37.9561 40.4664L34.8133 43.8079C34.7862 43.835 34.7501 43.8531 34.714 43.8531L34.723 43.844Z" fill="#0076BF"/>
</svg>
