<svg width="64" height="64" viewBox="0 0 64 64" fill="none" xmlns="http://www.w3.org/2000/svg">
<rect width="64" height="64" rx="32" fill="#F2FBFF"/>
<path d="M6.40039 31.9999C6.40039 17.8614 17.8619 6.3999 32.0004 6.3999C46.1389 6.3999 57.6004 17.8614 57.6004 31.9999C57.6004 46.1384 46.1389 57.5999 32.0004 57.5999C17.8619 57.5999 6.40039 46.1384 6.40039 31.9999Z" fill="#D1F0FF"/>
<path fill-rule="evenodd" clip-rule="evenodd" d="M24.8072 46.5566L22.7192 45.3689C22.3532 45.074 22.3365 44.8938 22.2949 44.4432V32.3694L24.383 33.5571V45.631C24.4246 46.0815 24.4412 46.2617 24.8072 46.5566Z" fill="#0076BF"/>
<path fill-rule="evenodd" clip-rule="evenodd" d="M22.4485 32.8334V44.5117C22.49 44.9127 22.4983 45.0272 22.789 45.2646L24.1096 46.0175C24.093 45.9275 24.093 45.8293 24.0764 45.7229V33.7664L22.4485 32.8416V32.8334ZM24.7325 46.844C24.691 46.844 24.6578 46.8359 24.6163 46.8195L22.5316 45.6328C22.0831 45.2728 22.0415 45.0272 22 44.5362V32.4488C22 32.3669 22.0415 32.2933 22.1163 32.2524C22.1827 32.2114 22.2741 32.2114 22.3488 32.2524L24.4252 33.439C24.5 33.4799 24.5415 33.5536 24.5415 33.6354V45.6983C24.5747 46.0993 24.583 46.2139 24.8737 46.4512C24.9651 46.5249 24.9817 46.6558 24.9153 46.754C24.8737 46.8195 24.799 46.8522 24.7325 46.8522V46.844Z" fill="#0076BF"/>
<path fill-rule="evenodd" clip-rule="evenodd" d="M24.3645 33.5516L22.2949 32.3647V28.4522C22.3361 27.47 22.8968 26.5124 23.7378 25.9803L38.5791 17.4842C38.9913 17.2959 39.1645 17.2222 39.5932 17.3859L41.6545 18.5728C41.2258 18.4091 41.0526 18.4828 40.6404 18.671L25.7991 27.1672C24.9663 27.6992 24.4057 28.6487 24.3645 29.6391V33.5516Z" fill="#0076BF"/>
<path fill-rule="evenodd" clip-rule="evenodd" d="M22.4369 32.2959L24.0606 33.2284V29.6716C24.1018 28.5906 24.6953 27.5673 25.602 26.9897L40.4467 18.4155C40.5539 18.366 40.6528 18.3248 40.7352 18.2835L39.3917 17.5078C39.0785 17.3923 38.9713 17.4335 38.5839 17.6151L23.7639 26.1727C22.9891 26.6678 22.4781 27.5508 22.4369 28.4833V32.2876V32.2959ZM24.2832 33.8473C24.242 33.8473 24.209 33.839 24.1678 33.8143L22.1072 32.6177C22.033 32.5764 22 32.5022 22 32.4196V28.4751C22.0412 27.394 22.6347 26.3707 23.5413 25.7931L38.3861 17.219C38.8477 17.0044 39.0867 16.9136 39.5977 17.1034L41.6913 18.3083C41.7902 18.366 41.8315 18.4898 41.782 18.5971C41.7325 18.7044 41.6089 18.7539 41.5018 18.7126C41.1556 18.5806 41.0484 18.6301 40.661 18.8034L25.841 27.361C25.0662 27.8561 24.5552 28.7391 24.514 29.6634V33.5997C24.514 33.6822 24.4727 33.7565 24.3986 33.7978C24.3656 33.8143 24.3244 33.8308 24.2832 33.8308V33.8473Z" fill="#0076BF"/>
<path fill-rule="evenodd" clip-rule="evenodd" d="M25.7964 27.1667L40.5265 18.6697C41.3122 18.2195 41.9505 18.5879 41.9505 19.4965V23.4012L24.3643 33.5517V29.6388C24.3643 28.7302 25.0026 27.6169 25.7882 27.1667H25.7964Z" fill="white"/>
<path fill-rule="evenodd" clip-rule="evenodd" d="M25.8433 27.3794C25.1255 27.7924 24.5149 28.8497 24.5149 29.6757V33.2359L41.7929 23.2575V19.4412C41.7929 19.0778 41.6856 18.8217 41.4793 18.7061C41.2813 18.5904 41.009 18.6235 40.6955 18.8052L25.8433 27.3794ZM24.2921 33.8472C24.2509 33.8472 24.2179 33.8389 24.1766 33.8141C24.1106 33.7728 24.0693 33.6985 24.0693 33.6241V29.6757C24.0693 28.6845 24.7707 27.4785 25.6206 26.9829L40.4644 18.4087C40.9182 18.1444 41.3638 18.1113 41.7104 18.3096C42.0486 18.5078 42.2467 18.9126 42.2467 19.433V23.3731C42.2467 23.4557 42.1972 23.5301 42.1312 23.5631L24.3994 33.8059C24.3664 33.8224 24.3251 33.8389 24.2839 33.8389L24.2921 33.8472Z" fill="#0076BF"/>
<path fill-rule="evenodd" clip-rule="evenodd" d="M41.9423 23.3547V35.4884C41.9423 36.4015 41.304 37.5203 40.5184 37.9728C35.1173 41.107 31.1892 43.3774 25.7882 46.5116C25.0026 46.964 24.3643 46.5939 24.3643 45.6807V33.5553L41.9505 23.3547H41.9423Z" fill="white"/>
<path fill-rule="evenodd" clip-rule="evenodd" d="M24.5147 33.7502V45.7423C24.5147 46.0958 24.6137 46.3588 24.8199 46.4738C25.0178 46.5889 25.29 46.556 25.6034 46.3752L40.4487 37.8435C41.1663 37.4325 41.7766 36.3804 41.7766 35.5585V23.8212L24.5147 33.7584V33.7502ZM25.0838 46.9917C24.9023 46.9917 24.7374 46.9506 24.5972 46.8602C24.259 46.6629 24.0693 46.2601 24.0693 45.7423V33.6269C24.0693 33.5447 24.1106 33.4708 24.1848 33.4297L41.9085 23.2376C41.9745 23.1965 42.057 23.1965 42.1312 23.2376C42.1972 23.2787 42.2467 23.3527 42.2467 23.4349V35.5585C42.2467 36.5448 41.5456 37.7448 40.6962 38.238L25.8508 46.7697C25.5869 46.9177 25.3312 46.9999 25.1003 46.9999L25.0838 46.9917Z" fill="#0076BF"/>
<path fill-rule="evenodd" clip-rule="evenodd" d="M35.2216 23.744C35.5915 23.5244 35.8906 23.7033 35.8906 24.1425C35.8906 24.5816 35.5915 25.1101 35.2216 25.3297C34.8596 25.5492 34.5605 25.3703 34.5605 24.9312C34.5605 24.4921 34.8596 23.9636 35.2216 23.744Z" fill="white"/>
<path fill-rule="evenodd" clip-rule="evenodd" d="M35.5416 23.9372C35.49 23.9372 35.4124 23.9617 35.3349 24.0026C35.0075 24.1824 34.7232 24.6402 34.7232 24.9999C34.7232 25.3595 34.7663 25.2206 34.8266 25.2533C34.8869 25.286 34.9903 25.2696 35.1023 25.2042C35.4297 25.0244 35.7053 24.5666 35.7053 24.207C35.7053 23.8473 35.6709 23.9863 35.6106 23.9536C35.5933 23.9454 35.5675 23.9372 35.5416 23.9372ZM34.8955 25.7192C34.7921 25.7192 34.6801 25.6947 34.594 25.6456C34.3872 25.5312 34.2666 25.2941 34.2666 25.008C34.2666 24.4931 34.6371 23.88 35.1109 23.6266C35.378 23.4795 35.645 23.4631 35.8604 23.5775C36.0672 23.692 36.1878 23.929 36.1878 24.2151C36.1878 24.7301 35.8259 25.3432 35.3435 25.5966C35.197 25.6783 35.042 25.7192 34.8955 25.7192Z" fill="#0076BF"/>
<path fill-rule="evenodd" clip-rule="evenodd" d="M37.5957 22.4139C37.9577 22.1944 38.2568 22.3733 38.2568 22.8124C38.2568 23.2515 37.9577 23.7801 37.5957 23.9996C37.2258 24.2192 36.9268 24.0403 36.9268 23.6012C36.9268 23.162 37.2258 22.6335 37.5957 22.4139Z" fill="white"/>
<path fill-rule="evenodd" clip-rule="evenodd" d="M37.9049 22.4676C37.8532 22.4676 37.7757 22.4921 37.6982 22.533C37.3708 22.7128 37.0865 23.1706 37.0865 23.5302C37.0865 23.8899 37.1296 23.751 37.1899 23.7836C37.2502 23.8163 37.3536 23.8 37.4656 23.7346C37.7929 23.5548 38.0772 23.097 38.0772 22.7373C38.0772 22.3777 38.0342 22.5166 37.9825 22.4839C37.9652 22.4758 37.9394 22.4676 37.9049 22.4676ZM37.2588 24.2414C37.1554 24.2414 37.0434 24.2169 36.9573 24.1678C36.7505 24.0534 36.6299 23.8245 36.6299 23.5302C36.6299 23.0153 37.0003 22.4022 37.4742 22.1488C37.7412 22.0017 38.0083 21.9853 38.2237 22.0998C38.4304 22.2142 38.5511 22.4513 38.5511 22.7373C38.5511 23.2523 38.1806 23.8654 37.7068 24.1188C37.5603 24.2005 37.4052 24.2414 37.2674 24.2414H37.2588Z" fill="#0076BF"/>
<path fill-rule="evenodd" clip-rule="evenodd" d="M39.96 20.9442C40.322 20.7064 40.6211 20.9002 40.6211 21.3759C40.6211 21.8516 40.322 22.4242 39.96 22.662C39.5901 22.8999 39.291 22.7061 39.291 22.2304C39.291 21.7547 39.5901 21.1821 39.96 20.9442Z" fill="white"/>
<path fill-rule="evenodd" clip-rule="evenodd" d="M40.2711 21.1375C40.2194 21.1375 40.1419 21.162 40.0644 21.2029C39.737 21.3827 39.4613 21.8405 39.4613 22.2002C39.4613 22.5598 39.4958 22.4209 39.5561 22.4536C39.6164 22.4863 39.7198 22.4699 39.8318 22.4045C40.1591 22.2247 40.4434 21.7669 40.4434 21.4073C40.4434 21.0476 40.4004 21.1866 40.3487 21.1539C40.3228 21.1457 40.3056 21.1375 40.2711 21.1375ZM39.625 22.9113C39.513 22.9113 39.4096 22.8868 39.3235 22.8378C39.1081 22.7233 38.9961 22.4944 38.9961 22.2002C38.9961 21.6852 39.3665 21.0721 39.8404 20.8187C40.1075 20.6716 40.3745 20.6552 40.5899 20.7697C40.8053 20.8841 40.9173 21.113 40.9173 21.4073C40.9173 21.9222 40.5468 22.5353 40.073 22.7887C39.9265 22.8705 39.7715 22.9113 39.6336 22.9113H39.625Z" fill="#0076BF"/>
<path fill-rule="evenodd" clip-rule="evenodd" d="M29.833 36.6551V36.0162L32.7887 34.2905V34.9377L29.833 36.6551Z" fill="#0076BF"/>
<path fill-rule="evenodd" clip-rule="evenodd" d="M30.1361 36.0983V36.2157L32.632 34.8377V34.7203L30.1361 36.0983ZM29.9145 36.8029C29.8734 36.8029 29.8324 36.7951 29.7995 36.7794C29.7338 36.7403 29.6846 36.6698 29.6846 36.5915V35.9808C29.6846 35.9025 29.7338 35.8321 29.7995 35.7929L32.747 34.1722C32.8209 34.133 32.903 34.133 32.9686 34.1722C33.0343 34.2113 33.0836 34.2818 33.0836 34.3523V34.963C33.0836 35.0413 33.0425 35.1117 32.9686 35.1509L30.0212 36.7716C29.9884 36.7951 29.9555 36.8029 29.9145 36.8029Z" fill="#0076BF"/>
<path fill-rule="evenodd" clip-rule="evenodd" d="M26.5811 37.8374V36.8522L28.7501 34.6518L26.5811 34.9228V33.9376L29.6845 33.6995V34.5451L26.5811 37.8374Z" fill="white"/>
<path fill-rule="evenodd" clip-rule="evenodd" d="M26.7524 36.8626V37.1904L29.3917 34.3793V33.8712L26.7524 34.0679V34.5924L28.659 34.3547C28.7506 34.3383 28.8422 34.3875 28.8921 34.4777C28.9337 34.5596 28.9171 34.6662 28.8505 34.7317L26.7607 36.8626H26.7524ZM26.5193 37.9853C26.486 37.9853 26.461 37.9853 26.436 37.9689C26.3444 37.9362 26.2861 37.8542 26.2861 37.7641V36.7724C26.2861 36.715 26.3111 36.6577 26.3527 36.6167L28.0595 34.8792L26.5442 35.0677C26.4776 35.0759 26.411 35.0595 26.3611 35.0186C26.3194 34.9776 26.2861 34.912 26.2861 34.8465V33.863C26.2861 33.7483 26.386 33.6499 26.4943 33.6417L29.5915 33.4041C29.6498 33.4041 29.7164 33.4204 29.758 33.4614C29.808 33.5024 29.8329 33.5598 29.8329 33.6253V34.4613C29.8329 34.5186 29.808 34.576 29.7663 34.617L26.6775 37.9116C26.6358 37.9607 26.5692 37.9853 26.5109 37.9853H26.5193Z" fill="#0076BF"/>
</svg>
