<svg width="64" height="64" viewBox="0 0 64 64" fill="none" xmlns="http://www.w3.org/2000/svg">
<rect width="64" height="64" rx="32" fill="#F2FBFF"/>
<path d="M6.40039 31.9999C6.40039 17.8614 17.8619 6.3999 32.0004 6.3999C46.1389 6.3999 57.6004 17.8614 57.6004 31.9999C57.6004 46.1384 46.1389 57.5999 32.0004 57.5999C17.8619 57.5999 6.40039 46.1384 6.40039 31.9999Z" fill="#D1F0FF"/>
<path fill-rule="evenodd" clip-rule="evenodd" d="M29.2415 36.6523L28.0469 35.9722C29.9391 37.3499 29.9391 39.2596 29.9391 41.4657L31.1163 42.1459C31.1163 39.9484 31.1163 38.0388 29.2415 36.6523Z" fill="white"/>
<path fill-rule="evenodd" clip-rule="evenodd" d="M30.1489 41.3435L30.9337 41.7969C30.9162 39.8611 30.829 38.1694 29.2769 36.9312C30.1314 38.1956 30.1489 39.7303 30.1489 41.3435ZM31.1168 42.3375C31.0819 42.3375 31.047 42.3375 31.0296 42.3114L29.835 41.6312C29.7826 41.5963 29.7303 41.5266 29.7303 41.4568C29.7303 39.303 29.7303 37.4457 27.934 36.129C27.8294 36.0679 27.8119 35.9458 27.8817 35.8586C27.934 35.7714 28.0561 35.7453 28.1346 35.7976L29.3292 36.4778C29.3292 36.4778 29.3292 36.4777 29.3466 36.4865C31.3086 37.9253 31.3086 39.9744 31.3086 42.137C31.3086 44.2995 31.2738 42.2765 31.204 42.3114C31.1866 42.3288 31.1517 42.3375 31.0994 42.3375H31.1168Z" fill="#0076BF"/>
<path fill-rule="evenodd" clip-rule="evenodd" d="M31.1161 42.1372L29.9389 41.457C28.3345 41.989 27.2532 42.1285 25.6836 41.396L26.8608 42.0762C28.4478 42.8086 29.5116 42.6691 31.1161 42.1372Z" fill="white"/>
<path fill-rule="evenodd" clip-rule="evenodd" d="M27.4274 42.0935C28.5348 42.5208 29.4243 42.4423 30.6189 42.0935L29.9213 41.6837C28.9621 41.9889 28.2122 42.1633 27.4274 42.1023V42.0935ZM28.9185 42.7824C28.2558 42.7824 27.5844 42.6255 26.7821 42.2505L25.5875 41.5616C25.5003 41.5093 25.4654 41.3872 25.5177 41.2913C25.5701 41.1954 25.6747 41.1605 25.7706 41.2041C27.2704 41.9017 28.2994 41.7796 29.8864 41.2564C29.9387 41.239 29.9911 41.2477 30.0434 41.2739L31.2206 41.954C31.2903 41.9889 31.3427 42.0674 31.3252 42.1459C31.3252 42.2243 31.2729 42.2941 31.1857 42.3115C30.3137 42.5993 29.6161 42.765 28.9185 42.765V42.7824Z" fill="#0076BF"/>
<path fill-rule="evenodd" clip-rule="evenodd" d="M40.4122 27.5574L39.235 26.8772C39.2873 31.6644 36.4184 36.7918 32.7822 39.7914L33.9594 40.4716C37.5956 37.4719 40.4645 32.3533 40.4122 27.5574Z" fill="white"/>
<path fill-rule="evenodd" clip-rule="evenodd" d="M33.131 39.7566L33.9333 40.2275C37.709 37.0622 40.2203 32.057 40.2029 27.6796L39.4355 27.2261C39.3483 31.621 36.8544 36.5739 33.131 39.7566ZM33.9507 40.6722C33.9158 40.6722 33.881 40.6722 33.8461 40.6461L32.6689 39.9659C32.6166 39.931 32.5817 39.87 32.5817 39.809C32.5642 39.7479 32.5991 39.6782 32.6514 39.6346C36.5144 36.4518 39.0693 31.3245 39.0257 26.8773C39.0257 26.8076 39.0606 26.7378 39.1304 26.7029C39.2001 26.668 39.2699 26.668 39.3396 26.7029L40.5168 27.3831C40.5866 27.418 40.6215 27.4877 40.6215 27.5575C40.6738 32.118 38.0404 37.3674 34.0989 40.6286C34.0641 40.6635 34.0118 40.6722 33.9594 40.6722H33.9507Z" fill="#0076BF"/>
<path fill-rule="evenodd" clip-rule="evenodd" d="M25.2561 45.3897C21.1229 42.9655 21.1752 35.2135 25.2561 28.1068L25.4131 27.8713L27.4274 29.0398L27.2879 29.2752C24.2795 34.4898 24.2795 40.1316 27.2704 41.893L27.4099 41.9714L27.2704 42.2069L25.509 45.2327L25.3869 45.4681L25.2474 45.3897H25.2561Z" fill="white"/>
<path fill-rule="evenodd" clip-rule="evenodd" d="M25.4833 28.1415L25.4485 28.2025C21.4198 35.2134 21.3675 42.8171 25.3089 45.1889L27.1401 42.0411C24.0969 40.2012 24.0794 34.4373 27.1052 29.1705L27.1576 29.1094L25.4833 28.1502V28.1415ZM25.3961 45.6685C25.3612 45.6685 25.3264 45.6598 25.2915 45.6424L25.152 45.5639C20.949 43.1049 20.9315 35.2308 25.0822 28.0107L25.2217 27.7753C25.2566 27.7317 25.2915 27.6968 25.3438 27.6793C25.3961 27.6619 25.4484 27.6793 25.5008 27.6968L27.5325 28.8653C27.6197 28.9176 27.6546 29.0397 27.6023 29.1356L27.4628 29.371C24.5241 34.4722 24.4893 40.0093 27.3756 41.7184L27.5151 41.7969C27.6023 41.8492 27.6372 41.9713 27.5848 42.0672L25.5705 45.5639C25.5356 45.6075 25.4833 45.6424 25.4485 45.6598C25.4136 45.6598 25.4136 45.6598 25.3961 45.6598V45.6685Z" fill="#0076BF"/>
<path fill-rule="evenodd" clip-rule="evenodd" d="M38.1186 18.2358L40.0806 19.3694L38.0663 22.8661C42.2519 25.3426 40.0981 32.2488 38.0489 35.8065L36.0869 34.6729C38.014 31.307 40.0806 24.863 36.6711 22.1162L38.1274 18.2358H38.1186Z" fill="#0076BF"/>
<path fill-rule="evenodd" clip-rule="evenodd" d="M36.3657 34.5943L37.9876 35.5273C40.124 31.6905 41.8505 25.3337 37.9702 23.0317C37.8655 22.9706 37.8481 22.8573 37.9004 22.7613L39.8101 19.439L38.2231 18.5235L36.9064 22.0463C40.1153 24.8105 38.3887 30.9668 36.357 34.5943H36.3657ZM38.0487 36.0069C38.0138 36.0069 37.9789 35.9982 37.944 35.9807L35.982 34.8471C35.8948 34.7948 35.86 34.6727 35.9123 34.5681C37.9266 31.054 39.7752 24.8628 36.5401 22.2643C36.4703 22.212 36.4355 22.1161 36.4704 22.0376L37.9266 18.1572C37.944 18.1049 37.9963 18.0613 38.0487 18.0351C38.101 18.0177 38.1707 18.0177 38.2231 18.0526L40.185 19.1862C40.2374 19.2123 40.2722 19.2559 40.2897 19.3082C40.2897 19.3606 40.2897 19.4129 40.2548 19.4565L38.3451 22.7875C42.304 25.3512 40.4641 31.9957 38.2231 35.8935C38.2056 35.9371 38.1533 35.972 38.101 35.9895C38.0835 35.9895 38.0661 35.9895 38.0487 35.9895V36.0069Z" fill="#0076BF"/>
<path fill-rule="evenodd" clip-rule="evenodd" d="M39.7224 36.7743L38.1877 35.8848L37.9697 35.754L37.9523 35.7802C36.8797 37.6114 35.4933 39.2507 33.9586 40.4715V39.5559C33.9586 34.9867 36.2345 30.7401 39.9579 27.8276L39.9753 27.8102C39.9579 27.3655 39.9056 26.9469 39.8358 26.5545C39.7312 26.0313 39.6004 25.5517 39.4085 25.1332C39.3562 25.0285 39.3039 24.9239 39.2516 24.828L25.7967 32.5974C25.727 32.7718 25.6746 32.9462 25.6223 33.1206C25.4305 33.7659 25.2822 34.4112 25.1776 35.0477C25.1078 35.5448 25.0555 36.0331 25.0381 36.5127C28.5522 35.3704 31.1159 36.7481 31.1159 41.1865V42.137C29.6509 42.6951 28.3168 42.7125 27.2355 42.2504L25.509 45.2239L25.4741 45.3024C27.314 46.1656 29.7817 45.9215 32.4587 44.3693C35.2753 42.7387 37.8389 39.957 39.7137 36.7656L39.7224 36.7743ZM25.2561 27.784C27.1309 24.6449 29.6596 21.9155 32.4675 20.3023C35.3363 18.6368 37.9523 18.4799 39.8271 19.5699C39.862 19.5873 39.8968 19.6135 39.9317 19.6309L38.2052 22.6306L38.1877 22.6567C38.1528 22.6393 38.118 22.6131 38.0831 22.5957C37.3506 22.1684 36.4786 21.994 35.502 22.0899C34.5602 22.1858 33.54 22.5259 32.4587 23.1538C31.3862 23.7729 30.3398 24.6187 29.398 25.604C28.5086 26.5545 27.6889 27.6358 26.9913 28.7955L25.5264 27.9497L25.2561 27.7927V27.784Z" fill="white"/>
<path fill-rule="evenodd" clip-rule="evenodd" d="M25.5353 27.7142L26.9393 28.5252C27.6368 27.4003 28.4216 26.3801 29.2762 25.4732C30.2528 24.4443 31.2905 23.6072 32.3718 22.988C33.4443 22.3602 34.5081 22.0027 35.4935 21.8981C36.4701 21.8021 37.3508 21.9678 38.1269 22.3864L39.6616 19.7094C37.7694 18.6542 35.2581 18.9246 32.5723 20.4767C29.9563 21.9853 27.4625 24.5489 25.5353 27.7142ZM27.0003 28.9961C26.9654 28.9961 26.9305 28.9961 26.9131 28.9699L25.1691 27.9584C25.1168 27.9322 25.0819 27.8886 25.0645 27.8363C25.047 27.784 25.0645 27.7317 25.0819 27.6794C27.0439 24.3745 29.625 21.6975 32.3543 20.1279C35.1883 18.4886 37.8915 18.227 39.9232 19.3954L40.0279 19.4565C40.1325 19.5088 40.1674 19.6309 40.0976 19.7268L38.3711 22.7264C38.3536 22.77 38.3013 22.8224 38.249 22.8311C38.1792 22.8485 38.1269 22.8485 38.0746 22.8224L37.97 22.7613C37.2724 22.3515 36.4352 22.1945 35.5109 22.2817C34.5692 22.3776 33.5838 22.7264 32.5549 23.3194C31.5085 23.9211 30.5057 24.732 29.5465 25.7348C28.6571 26.6679 27.8548 27.723 27.1747 28.8914C27.1224 28.9525 27.0526 28.9873 26.9829 28.9873L27.0003 28.9961ZM25.7708 45.2064L27.3229 42.5032C28.4478 42.9218 29.782 42.8695 31.2033 42.3201C31.2731 42.294 31.3254 42.2155 31.3254 42.137V41.1865C31.3254 39.0414 30.7063 37.4631 29.5639 36.6173C28.5088 35.8412 27.0177 35.7104 25.2563 36.2336C25.2737 35.8499 25.3261 35.4663 25.3784 35.0739C25.483 34.446 25.6138 33.8095 25.8057 33.1729C25.858 33.0247 25.9103 32.8764 25.9452 32.7282L39.1646 25.0983C39.182 25.1331 39.1995 25.168 39.2169 25.2116C39.4087 25.6215 39.5395 26.0836 39.6442 26.5894C39.7139 26.9556 39.7488 27.3218 39.7663 27.7142C35.9557 30.7313 33.7757 35.0477 33.7757 39.5559V40.4715C33.7757 40.55 33.8106 40.6197 33.8803 40.6546C33.9501 40.6895 34.0373 40.6808 34.0983 40.6284C35.5807 39.4425 36.9323 37.8642 38.0397 36.033L39.4611 36.844C37.534 40.0617 35.0226 42.6689 32.3718 44.2036C29.9302 45.6075 27.6107 45.965 25.7795 45.2151L25.7708 45.2064ZM27.8025 45.9912C26.9305 45.9912 26.1283 45.8255 25.3958 45.4854C25.3435 45.4593 25.3086 45.4157 25.2912 45.3634C25.2737 45.311 25.2737 45.25 25.3086 45.1977L27.0701 42.1544C27.1224 42.0672 27.227 42.0324 27.3229 42.0672C28.3519 42.5032 29.5814 42.4771 30.9243 41.9975V41.1865C30.9243 39.1722 30.3575 37.7073 29.3198 36.9486C28.3083 36.2162 26.8433 36.129 25.0994 36.7045C25.0296 36.7219 24.9598 36.7132 24.9075 36.6783C24.8552 36.6347 24.8203 36.5737 24.8203 36.5126C24.8378 36.033 24.8901 35.5273 24.9773 35.0215C25.0819 34.3763 25.2127 33.7223 25.422 33.0683C25.4743 32.8939 25.5266 32.7195 25.5789 32.5451C25.5964 32.5015 25.6313 32.4579 25.6836 32.4317L39.1384 24.6623C39.1907 24.6361 39.2431 24.6274 39.2954 24.6448C39.3477 24.6623 39.4 24.6971 39.4175 24.7407C39.4698 24.8454 39.5221 24.95 39.5744 25.0547C39.7837 25.4994 39.9319 25.9964 40.0366 26.5196C40.1063 26.9294 40.1587 27.348 40.1761 27.8014C40.1761 27.8712 40.1412 27.9322 40.0889 27.9671C36.3132 30.9319 34.1593 35.1523 34.1593 39.5559V40.0442C35.5284 38.8845 36.7753 37.3846 37.7781 35.6755C37.8479 35.5796 37.9874 35.5273 38.0659 35.5796L39.8273 36.5998C39.8796 36.626 39.9145 36.6696 39.9145 36.7219C39.9319 36.7742 39.9319 36.8266 39.8971 36.8789C37.9351 40.2361 35.3191 42.9567 32.5723 44.5524C30.8981 45.5116 29.2762 45.9999 27.8112 45.9999L27.8025 45.9912Z" fill="#0076BF"/>
<path fill-rule="evenodd" clip-rule="evenodd" d="M35.0663 29.0746C34.857 27.9672 30.2354 30.6442 30.0262 31.9783C28.9798 39.0764 36.104 34.9606 35.0663 29.0746Z" fill="white"/>
<path fill-rule="evenodd" clip-rule="evenodd" d="M34.6397 29.0137C33.5148 29.0311 30.3669 31.028 30.2361 32.0046C29.9832 33.7486 30.2012 34.9432 30.8639 35.3705C31.3261 35.6583 31.9539 35.5536 32.6428 35.1002C34.0903 34.1149 35.3373 31.743 34.8664 29.1096C34.8664 29.0835 34.8489 29.0137 34.6484 29.0137H34.6397ZM31.4394 35.9286C31.1517 35.9286 30.8727 35.8588 30.6547 35.7106C30.0704 35.3444 29.46 34.4026 29.835 31.9523C30.0268 30.6879 33.4014 28.6387 34.6135 28.6126C35.128 28.5864 35.2326 28.9091 35.2413 29.0399C35.7558 31.8477 34.4217 34.3765 32.8521 35.4403C32.355 35.7716 31.8754 35.9373 31.4307 35.9373L31.4394 35.9286Z" fill="#0076BF"/>
<path fill-rule="evenodd" clip-rule="evenodd" d="M34.4822 29.8682C34.3253 29.0224 30.7588 31.0803 30.6019 32.1005C29.7997 37.5592 35.2845 34.3938 34.4822 29.8682Z" fill="white"/>
<path fill-rule="evenodd" clip-rule="evenodd" d="M34.1596 29.8682C34.0898 29.8682 33.9852 29.8769 33.8544 29.9205C32.7992 30.1996 30.8983 31.4989 30.8111 32.1354C30.6193 33.4434 30.7937 34.3677 31.2733 34.6729C31.5959 34.8822 32.0929 34.8037 32.59 34.4636C33.6974 33.7137 34.6392 31.9087 34.2816 29.9031C34.2642 29.8857 34.2293 29.8682 34.1596 29.8682ZM31.7005 35.1874C31.4651 35.1874 31.2558 35.1263 31.0727 35.013C30.6106 34.7252 30.131 33.984 30.4274 32.0744C30.5669 31.089 33.2091 29.4846 34.1508 29.4758C34.5781 29.4758 34.6653 29.7287 34.6828 29.8421C35.0751 32.0133 34.0375 33.984 32.8167 34.8037C32.4417 35.0653 32.0493 35.1961 31.7093 35.1961L31.7005 35.1874Z" fill="#0076BF"/>
<path fill-rule="evenodd" clip-rule="evenodd" d="M26.4857 30.8274L38.0483 24.1479L39.2429 24.8281L38.9377 25.0025L38.4581 25.2815L25.7881 32.6063C25.945 32.1267 26.1282 31.6558 26.3374 31.1849C26.3898 31.0716 26.4421 30.9495 26.4944 30.8361L26.4857 30.8274Z" fill="white"/>
<path fill-rule="evenodd" clip-rule="evenodd" d="M26.6434 30.9669C26.591 31.0628 26.5562 31.1587 26.5213 31.2546C26.3818 31.5511 26.2684 31.8563 26.1463 32.1528L38.8338 24.828L38.049 24.3746L26.6434 30.9669ZM25.7888 32.7981C25.7365 32.7981 25.6842 32.7806 25.6493 32.7545C25.5795 32.7021 25.5621 32.6149 25.5795 32.5365C25.7539 32.0569 25.937 31.5773 26.1463 31.0977C26.1986 30.9843 26.251 30.8622 26.3033 30.7489C26.3207 30.714 26.3556 30.6791 26.3905 30.6617L37.9705 23.9822C38.0229 23.9473 38.1101 23.9473 38.1624 23.9822L39.357 24.6624C39.4093 24.6972 39.4442 24.767 39.4442 24.8368C39.4442 24.9065 39.4093 24.9763 39.357 25.0112L25.9022 32.7806C25.8673 32.7981 25.8324 32.8068 25.7975 32.8068L25.7888 32.7981Z" fill="#0076BF"/>
<path fill-rule="evenodd" clip-rule="evenodd" d="M40.2201 19.4479C44.4754 21.9505 44.2487 29.7199 40.0631 36.9749C39.4004 36.5825 38.7115 36.1988 38.0488 35.8064C40.3334 31.8389 41.127 27.6533 39.8626 24.8629C39.4353 23.9125 38.8511 23.3282 38.0663 22.8661L38.2058 22.6306L39.9498 19.6048L40.0893 19.3694L40.2288 19.4479H40.2201Z" fill="white"/>
<path fill-rule="evenodd" clip-rule="evenodd" d="M38.3277 35.7278L40.0019 36.6958C44.0828 29.4844 44.1526 22.0376 40.1589 19.6396L38.3451 22.7962C39.1299 23.2932 39.6618 23.9123 40.0368 24.7756C41.2837 27.5311 40.6559 31.612 38.3277 35.7278ZM40.0717 37.1666C40.0368 37.1666 40.0019 37.1666 39.967 37.1405L37.9527 35.972C37.8655 35.9197 37.8307 35.7976 37.883 35.7017C40.1676 31.6992 40.8739 27.5747 39.6793 24.9413C39.2869 24.0867 38.7724 23.5199 37.9702 23.0316C37.8655 22.9706 37.8481 22.8572 37.9004 22.7613L39.9147 19.2646C39.9496 19.221 39.9845 19.1861 40.0368 19.1687C40.0891 19.16 40.1589 19.1687 40.1938 19.1861L40.3333 19.2646C44.5886 21.7672 44.5537 29.5803 40.2635 37.062C40.2286 37.1056 40.1763 37.1405 40.124 37.1579C40.1066 37.1579 40.0891 37.1579 40.0717 37.1579V37.1666Z" fill="#0076BF"/>
<path fill-rule="evenodd" clip-rule="evenodd" d="M38.0663 23.0666C38.0489 23.0666 38.0315 23.0666 38.014 23.0666L37.1769 22.8399C37.0723 22.8138 37.0025 22.7004 37.0374 22.5958C37.0723 22.4911 37.1769 22.4301 37.2728 22.4562L38.1099 22.6742C38.2146 22.7004 38.2843 22.8138 38.2495 22.9184C38.232 23.0056 38.1448 23.0666 38.0576 23.0666H38.0663Z" fill="#0076BF"/>
<path fill-rule="evenodd" clip-rule="evenodd" d="M25.0913 28.0805L23.9141 27.4003C26.3208 23.2932 31.169 17.9479 36.244 18.2008C37.7787 18.2793 38.5287 18.8199 39.8279 19.5698C34.5349 16.7969 28.3699 22.8834 25.6319 27.1736L25.0825 28.0805H25.0913Z" fill="white"/>
<path fill-rule="evenodd" clip-rule="evenodd" d="M24.1836 27.3219L25.0207 27.8015L25.4654 27.0603C28.0116 23.0492 33.0866 18.105 37.8477 18.7241C37.3681 18.5409 36.8885 18.4276 36.2432 18.3927C31.7001 18.1573 26.9565 22.6829 24.1836 27.3132V27.3219ZM25.0904 28.2811C25.0556 28.2811 25.0207 28.2724 24.9858 28.2549L23.8086 27.5748C23.7563 27.5486 23.7214 27.505 23.7214 27.4527C23.704 27.4004 23.704 27.3481 23.7389 27.3045C26.3548 22.8573 31.2031 17.7562 36.2607 18.009C37.682 18.0788 38.4494 18.541 39.5219 19.1688L39.9318 19.4042C40.0364 19.4565 40.0713 19.5786 40.0015 19.6745C39.9492 19.7705 39.8271 19.8053 39.7486 19.753C34.7085 17.1196 28.6482 22.8137 25.8142 27.287L25.2648 28.1939C25.23 28.2549 25.1602 28.2898 25.0904 28.2898V28.2811Z" fill="#0076BF"/>
<path fill-rule="evenodd" clip-rule="evenodd" d="M25.2562 45.3896C22.492 43.7939 20.8527 42.9917 20.3207 39.1549C19.7191 34.917 21.3497 30.3565 23.425 26.729L25.4045 27.8626C22.8234 32.3446 20.1812 40.5937 24.2447 44.6048L25.2562 45.3809V45.3896Z" fill="#0076BF"/>
<path fill-rule="evenodd" clip-rule="evenodd" d="M23.5213 26.9992C22.0651 29.5628 19.8677 34.3849 20.5304 39.1199C20.9228 41.9626 21.8994 43.0787 23.5737 44.16C20.0857 39.739 22.9545 31.8213 25.1258 27.9409L23.5213 27.0079V26.9992ZM25.2566 45.59C25.2217 45.59 25.1868 45.59 25.152 45.5639L24.8642 45.3982C22.2308 43.8897 20.6612 42.9741 20.1206 39.1809C19.4404 34.2193 21.7948 29.1879 23.2597 26.6329C23.2772 26.5893 23.3295 26.5544 23.3818 26.537C23.4341 26.5196 23.4865 26.537 23.5388 26.5544L25.5008 27.688C25.6054 27.7404 25.6403 27.8624 25.5705 27.9584C23.3295 31.8562 20.2078 40.3232 24.3933 44.4564L25.3874 45.2151C25.4572 45.2761 25.492 45.3982 25.4223 45.4854C25.3874 45.5464 25.3176 45.5726 25.2653 45.5726L25.2566 45.59Z" fill="#0076BF"/>
<path fill-rule="evenodd" clip-rule="evenodd" d="M36.9932 43.7853L37.7256 43.3667V40.4106L36.9932 40.8292V43.7853Z" fill="white"/>
<path fill-rule="evenodd" clip-rule="evenodd" d="M37.7256 40.4105L35.9991 39.4077L35.2666 39.8263L36.9932 40.8291L37.7256 40.4105Z" fill="white"/>
</svg>
