<svg width="64" height="64" viewBox="0 0 64 64" fill="none" xmlns="http://www.w3.org/2000/svg">
<rect width="64" height="64" rx="32" fill="#F2FBFF"/>
<path d="M6.40039 31.9999C6.40039 17.8614 17.8619 6.3999 32.0004 6.3999C46.1389 6.3999 57.6004 17.8614 57.6004 31.9999C57.6004 46.1384 46.1389 57.5999 32.0004 57.5999C17.8619 57.5999 6.40039 46.1384 6.40039 31.9999Z" fill="#D1F0FF"/>
<path d="M38.3853 21.6636L17.2061 33.4846L17.3955 42.3503L17.6986 42.6155L38.3853 30.7566V21.6636Z" fill="white"/>
<path d="M22.0557 33.5983L39.0673 42.4261L47.6678 37.8417V37.1597L47.4784 36.9324L30.9214 28.8623L22.0557 33.5983Z" fill="white" stroke="black" stroke-width="0.8"/>
<path d="M44.2205 37.8492C43.8492 37.6674 43.637 37.4173 43.6219 37.1597C43.6219 36.9096 43.8113 36.6444 44.1675 36.4398L44.2508 36.2958L44.1599 36.1518L32.6647 30.5293H32.5208L32.2328 30.6581L32.1798 30.6808C31.9979 30.749 31.8009 30.7945 31.5887 30.8248H31.5736L31.4144 30.8476H31.3614L31.2629 30.8627C31.1492 30.8703 31.0355 30.8779 30.9143 30.8779C30.6188 30.8779 30.3384 30.8476 30.0732 30.7869C29.861 30.7415 29.6716 30.6808 29.5049 30.6051H29.3533L25.9662 32.507L25.8828 32.651L25.9737 32.795C26.3299 32.9768 26.5345 33.2193 26.5421 33.4694C26.5421 33.7195 26.3678 33.9619 26.0344 34.1665L25.9586 34.3105V34.356L26.0495 34.4545L37.5598 40.0846L37.6356 40.0998L37.7114 40.077C38.1357 39.8421 38.7343 39.7133 39.3633 39.7133C39.9922 39.7133 40.4014 39.8118 40.7803 39.9937H40.9318L44.2356 38.1372L44.319 37.9856L44.2281 37.8416L44.2205 37.8492ZM40.8333 39.6603C40.4241 39.486 39.9013 39.3875 39.3557 39.3875C38.8101 39.3875 38.0902 39.5239 37.6204 39.7512L26.436 34.2802C26.7239 34.0453 26.8755 33.7573 26.8679 33.4618C26.8603 33.1587 26.686 32.8783 26.3754 32.6586L29.4443 30.9385L29.6034 30.9991C29.9823 31.1355 30.4445 31.2037 30.9143 31.2037C31.3841 31.2037 32.1419 31.0825 32.6041 30.8627L43.7658 36.3261C43.493 36.5383 43.3339 36.7884 43.3036 37.0536V37.1672C43.3036 37.4779 43.493 37.7659 43.8189 37.9932L40.8409 39.6603H40.8333Z" fill="#2072B4"/>
<path d="M31.3906 32.7649C31.3906 32.5603 31.2542 32.3708 31.0269 32.2269L30.9208 32.1662C30.6783 32.0526 30.3601 31.9844 30.0343 31.9844C29.7084 31.9844 29.2917 32.0677 29.0113 32.2193C28.7233 32.3784 28.5718 32.5982 28.5794 32.8331L28.6476 33.0907C28.7233 33.2195 28.8597 33.3408 29.0416 33.4317C29.1931 33.5075 29.375 33.5605 29.5645 33.5832C29.6781 33.5984 29.8069 33.6135 29.9282 33.6135C30.3146 33.6135 30.6784 33.5302 30.9436 33.3786C31.2315 33.2195 31.3831 32.9998 31.3831 32.7649H31.3906ZM29.9357 33.2877H29.8297C29.5872 33.2726 29.3599 33.2271 29.1856 33.1362C29.0113 33.0452 28.9052 32.9392 28.9052 32.8255C28.9052 32.7194 28.9961 32.5982 29.1704 32.5072C29.3902 32.386 29.7084 32.3102 30.0267 32.3102C30.3449 32.3102 30.5723 32.3633 30.7693 32.4618C30.9511 32.5451 31.0497 32.6588 31.0572 32.7649V32.8103C31.0345 32.9088 30.936 33.0074 30.792 33.0907C30.5723 33.2119 30.2616 33.2801 29.9357 33.2801V33.2877Z" fill="#2072B4"/>
<path d="M39.3706 35.1897C39.3554 34.5532 38.8781 33.9697 38.0369 33.5605C37.2868 33.1968 36.3017 32.9922 35.2636 32.9922C34.2254 32.9922 32.9145 33.2574 32.081 33.7272C31.2626 34.1894 30.8231 34.7881 30.8383 35.4246C30.861 36.0611 31.3308 36.6446 32.1795 37.0538C32.9297 37.4175 33.9148 37.6221 34.9529 37.6221C35.991 37.6221 37.158 37.3872 37.9688 36.9704L38.1279 36.8871C38.9463 36.4324 39.3858 35.8262 39.3706 35.1897ZM37.9688 36.6067C37.1807 37.0462 36.0819 37.2962 34.9529 37.2962C33.8238 37.2962 33.0282 37.1068 32.3235 36.7582L32.1947 36.69C31.5506 36.3415 31.1868 35.8944 31.1717 35.4094C31.1565 34.9017 31.543 34.4016 32.2477 34.0076C33.0282 33.5681 34.1345 33.318 35.2636 33.318C36.3926 33.318 36.1198 33.3559 36.5139 33.4241C36.7033 33.4544 36.8927 33.4999 37.0746 33.5454C37.3701 33.6287 37.6505 33.7272 37.893 33.8485C38.3704 34.0834 38.7114 34.3713 38.8932 34.682L38.9614 34.8184C39.0145 34.9396 39.0448 35.0684 39.0448 35.1973C39.0599 35.705 38.681 36.2051 37.9688 36.5991V36.6067Z" fill="#2072B4"/>
<path d="M41.1584 37.1824C40.9159 37.0611 40.5976 37.0005 40.2718 37.0005C39.946 37.0005 39.5292 37.0838 39.2564 37.2354C38.9685 37.3945 38.8169 37.6143 38.8245 37.8492C38.8245 38.0841 38.9988 38.2963 39.2943 38.4402C39.5368 38.5615 39.855 38.6221 40.1809 38.6221C40.5067 38.6221 40.931 38.5387 41.2038 38.3872C41.4918 38.228 41.6433 38.0083 41.6358 37.7658C41.6358 37.5309 41.4615 37.3187 41.1659 37.1748L41.1584 37.1824ZM41.2872 37.8643L41.2493 37.9249L41.0371 38.0992C40.8174 38.2205 40.5067 38.2887 40.1809 38.2887C39.855 38.2887 39.6353 38.2356 39.4383 38.1371C39.3019 38.0689 39.2109 37.9931 39.173 37.9098L39.1503 37.8264C39.1503 37.7204 39.2413 37.5991 39.4155 37.5082C39.6353 37.3869 39.9535 37.3112 40.2718 37.3112C40.59 37.3112 40.8174 37.3642 41.0144 37.4627C41.1887 37.5461 41.2948 37.6597 41.2948 37.7658L41.2796 37.8492L41.2872 37.8643Z" fill="#2072B4"/>
<path d="M47.9328 37.0915V37.0461V37.0309L47.9176 37.0082V36.993C47.9101 36.993 47.8873 36.9703 47.8873 36.9703H47.8722C47.8722 36.9627 47.857 36.9476 47.857 36.9476L37.0817 31.6812L38.5442 30.8401L38.6275 30.6961L38.5972 21.8076V21.7849V21.7622V21.7394L38.5821 21.7167L38.5669 21.694V21.6788C38.5593 21.6788 38.5366 21.6636 38.5366 21.6636H38.5215C38.5215 21.6561 38.5215 21.6561 38.5215 21.6561L37.0514 20.7998H36.8847L16.0768 32.8102L16.0389 32.833V32.8481C16.0313 32.8481 16.0161 32.8709 16.0161 32.8709V32.886C16.0086 32.886 16.001 32.9087 16.001 32.9087V32.9239V32.9466L16.0237 41.8351L16.1071 41.9791L17.5771 42.8353L17.6074 42.8505H17.615L17.6529 42.8581H17.6983L17.7514 42.8353L27.0945 37.4401L39.355 43.4415H39.3777L39.3929 43.4491H39.4308H39.4762H39.4914L39.5141 43.434L47.9176 38.7283L48.001 38.5843L47.9555 37.084L47.9328 37.0915ZM17.8044 42.4261L17.7817 33.9166L38.2638 22.0956L38.2866 30.6052L36.718 31.5145L35.4601 30.9007L36.3088 30.4081L36.3922 30.2717L36.377 24.8159L36.2937 24.6719H36.127L19.7519 34.1212L19.6685 34.2651L19.6837 39.721L19.767 39.8649L19.8504 39.8877L19.9337 39.8649L25.4653 36.6748L26.7232 37.2886L17.8044 42.4413V42.4261ZM36.0588 29.9762L35.5283 29.6655L34.9221 29.3094V25.7404C34.9146 25.7404 36.0512 25.0811 36.0512 25.0811V28.4304C36.0588 28.4304 36.0663 29.9686 36.0663 29.9686L36.0588 29.9762ZM23.8665 35.8867L25.1092 36.4929L20.0171 39.433V38.3797V38.1069L23.874 35.8791L23.8665 35.8867ZM34.7554 29.5973L35.8996 30.2642L35.104 30.7264L33.8613 30.1202L34.7554 29.6049V29.5973ZM22.8132 33.5225L30.8681 29.0139L47.4175 37.1067L39.3701 41.6154L22.8208 33.5225H22.8132Z" fill="#2072B4"/>
</svg>
