<svg width="64" height="64" viewBox="0 0 64 64" fill="none" xmlns="http://www.w3.org/2000/svg">
<rect width="64" height="64" rx="32" fill="#F2FBFF"/>
<path d="M6.40039 31.9999C6.40039 17.8614 17.8619 6.3999 32.0004 6.3999C46.1389 6.3999 57.6004 17.8614 57.6004 31.9999C57.6004 46.1384 46.1389 57.5999 32.0004 57.5999C17.8619 57.5999 6.40039 46.1384 6.40039 31.9999Z" fill="#D1F0FF"/>
<path fill-rule="evenodd" clip-rule="evenodd" d="M23.1892 47.7157L20.4447 46.1347C20.2671 46.0104 20.2315 45.8505 20.2227 45.6462V23.344C20.2404 23.113 20.347 22.9798 20.5424 22.8644C20.8533 22.6867 21.1641 22.5002 21.4839 22.3226C21.5549 22.287 21.5905 22.2782 21.6704 22.3048L24.406 23.8858C24.3261 23.8591 24.2994 23.868 24.2284 23.9035C23.8908 24.0989 23.5622 24.2943 23.2247 24.4808C23.0648 24.5874 22.9849 24.7295 22.9671 24.9249V43.1859L40.2956 33.185C40.3666 33.1495 40.4021 33.1406 40.4732 33.1673L43.2088 34.7482C43.1289 34.7216 43.1022 34.7305 43.0312 34.766L24.477 45.4774L22.9671 44.607V47.2272C22.9671 47.4403 23.0115 47.5913 23.1892 47.7157Z" fill="#0076BF"/>
<path fill-rule="evenodd" clip-rule="evenodd" d="M21.5898 22.5271L20.6573 23.06C20.524 23.14 20.4707 23.2199 20.453 23.3531V45.6376C20.453 45.8241 20.4885 45.8774 20.5773 45.9396L22.7267 47.183V44.6073C22.7267 44.5274 22.7711 44.4474 22.8422 44.403C22.9132 44.3586 23.0021 44.3586 23.082 44.403L24.4764 45.2113L42.6664 34.7041L40.4015 33.3985L23.082 43.3994C23.0109 43.4438 22.9221 43.4438 22.8422 43.3994C22.7711 43.355 22.7267 43.275 22.7267 43.1951V24.9341C22.7445 24.6499 22.8688 24.4456 23.082 24.2946L23.8547 23.8505L21.5898 22.5449V22.5271ZM23.1886 47.9557C23.1442 47.9557 23.1086 47.9469 23.0731 47.9202L20.3375 46.3393C20.0533 46.1439 20.0089 45.8952 20 45.6554V23.3442C20.0266 23.0334 20.1599 22.8202 20.4352 22.6603L21.3767 22.1186C21.501 22.0564 21.5987 22.0209 21.7586 22.083L24.5386 23.6818C24.6452 23.7439 24.6807 23.8771 24.6363 23.9837C24.583 24.0903 24.4587 24.1436 24.3432 24.1081L23.3573 24.6854C23.2774 24.7476 23.233 24.8275 23.2152 24.943V42.7776L40.1972 32.9721C40.3038 32.9188 40.4104 32.8744 40.5792 32.9366L43.3592 34.5353C43.4658 34.5975 43.5013 34.7307 43.4569 34.8373C43.4036 34.9528 43.2792 34.9972 43.1638 34.9617L24.6274 45.6731C24.5564 45.7175 24.4676 45.7175 24.3965 45.6731L23.233 45.007V47.2186C23.233 47.4051 23.2685 47.4584 23.3573 47.5205C23.4639 47.5916 23.4906 47.7337 23.4195 47.8403C23.3751 47.9113 23.2952 47.9469 23.2241 47.9469L23.1886 47.9557Z" fill="#0076BF"/>
<path fill-rule="evenodd" clip-rule="evenodd" d="M23.7208 47.6625C23.5076 47.7869 23.3211 47.7958 23.1879 47.7158C23.0546 47.6359 22.9658 47.4671 22.9658 47.2273V24.9251C22.9658 24.7652 23.0813 24.561 23.2234 24.481C23.5609 24.2856 23.8895 24.0991 24.227 23.9037C24.3691 23.8238 24.4846 23.8859 24.4846 24.0547V45.4776L43.0387 34.7662C43.1808 34.6862 43.2963 34.7484 43.2963 34.9171V36.0718C43.2963 36.2317 43.1808 36.4359 43.0387 36.5159L23.7297 47.6625H23.7208Z" fill="white"/>
<path fill-rule="evenodd" clip-rule="evenodd" d="M24.2462 24.1611L23.3403 24.6851C23.2692 24.7207 23.2071 24.845 23.2071 24.9249V47.2272C23.2071 47.3693 23.2426 47.4759 23.3136 47.5114C23.3758 47.5469 23.4913 47.5291 23.6156 47.4581L42.9336 36.3114C43.0046 36.267 43.0757 36.1515 43.0757 36.0716V35.0236L24.6193 45.6817C24.5482 45.7261 24.4594 45.7261 24.3883 45.6817C24.3173 45.6373 24.2729 45.5574 24.2729 45.4775V24.1611H24.2462ZM23.3847 47.9999C23.2692 47.9999 23.1627 47.9732 23.0738 47.9199C22.8607 47.7956 22.7363 47.538 22.7363 47.2272V24.9249C22.7363 24.6762 22.8962 24.4009 23.1094 24.2766L24.113 23.6992C24.2551 23.6193 24.4061 23.6104 24.5305 23.6815C24.6548 23.7525 24.7259 23.8858 24.7259 24.0545V45.0778L42.9336 34.5706C43.0757 34.4906 43.2267 34.4818 43.351 34.5528C43.4754 34.6239 43.5464 34.7571 43.5464 34.917V36.0716C43.5464 36.3203 43.3865 36.5956 43.1734 36.72L23.8554 47.8667C23.6956 47.9555 23.5446 47.9999 23.4025 47.9999H23.3847Z" fill="#0076BF"/>
<path fill-rule="evenodd" clip-rule="evenodd" d="M39.6378 35.3079L24.4766 44.0565V27.8028L39.6378 19.0542V35.3079Z" fill="white"/>
<path fill-rule="evenodd" clip-rule="evenodd" d="M24.7159 27.9449V43.6569L39.4064 35.1747V19.4628L24.7159 27.9449ZM24.476 44.2964C24.4405 44.2964 24.3961 44.2875 24.3606 44.2608C24.2895 44.2164 24.2451 44.1365 24.2451 44.0565V27.8028C24.2451 27.7229 24.2895 27.643 24.3606 27.5985L39.513 18.85C39.584 18.8055 39.6728 18.8055 39.7439 18.85C39.8149 18.8944 39.8593 18.9654 39.8593 19.0542V35.308C39.8593 35.3879 39.8149 35.4678 39.7439 35.5122L24.5915 44.2608C24.556 44.2786 24.5116 44.2964 24.476 44.2964Z" fill="#0076BF"/>
<path fill-rule="evenodd" clip-rule="evenodd" d="M34.7709 25.227C34.7087 25.1826 34.6909 25.156 34.6465 25.0938L34.3534 24.5786C34.2291 24.3211 34.2824 24.0635 34.3801 23.8059C34.5399 23.4151 34.7531 23.2286 35.0373 22.9C35.4548 22.4292 35.8633 21.9496 36.2808 21.4789C37.1689 20.4664 38.0571 19.445 38.9453 18.4324C39.416 17.8906 39.8868 17.3488 40.3664 16.8071L39.3628 16.2297C38.7144 16.9758 38.0571 17.7219 37.4088 18.4591C36.636 19.3384 35.8722 20.2177 35.0995 21.097C34.682 21.5677 34.2735 22.0384 33.856 22.5181C33.6073 22.8023 33.4741 22.9444 33.3498 23.3085C33.2787 23.5484 33.2521 23.7615 33.3498 23.9924L33.634 24.5076C33.6784 24.5698 33.6962 24.5875 33.7583 24.6408L34.762 25.2181L34.7709 25.227ZM38.7499 25.6977L37.7463 25.1204C37.5597 24.9872 37.5509 24.8984 37.5242 24.6852L37.4798 23.2997L38.4835 23.877L38.5279 25.2625C38.5545 25.4846 38.5723 25.5645 38.7499 25.6977ZM26.4397 40.3794L25.4361 39.8021C25.0897 39.58 25.2318 39.0649 25.365 38.754L29.1309 30.9469C29.3263 30.5561 29.575 30.2364 29.9569 30.0054L33.9537 27.6873L35.7212 23.0421L36.7249 23.6194L34.9574 28.2646L30.9606 30.5827C30.5875 30.8048 30.3388 31.1245 30.1346 31.5153L26.3687 39.3225C26.2266 39.6333 26.0844 40.1485 26.4397 40.3705V40.3794Z" fill="#0076BF"/>
<path fill-rule="evenodd" clip-rule="evenodd" d="M37.7279 23.7082L37.7545 24.6764C37.7812 24.854 37.7812 24.854 37.8789 24.9339L38.2786 25.1649L38.243 24.0191L37.719 23.7171L37.7279 23.7082ZM38.7493 25.9287C38.7049 25.9287 38.6694 25.9198 38.6338 25.902L37.6302 25.3247C37.3549 25.1293 37.3193 24.9695 37.2927 24.7208L37.2483 23.3086C37.2483 23.2286 37.2927 23.1398 37.3637 23.0954C37.4348 23.051 37.5236 23.051 37.6036 23.0954L38.6072 23.6727C38.6783 23.7082 38.7227 23.7882 38.7315 23.8681L38.7759 25.2537C38.8026 25.4224 38.8026 25.4313 38.9003 25.5024C39.0069 25.5734 39.0246 25.7155 38.9625 25.8221C38.9181 25.8932 38.8381 25.9287 38.7671 25.9287H38.7493ZM39.4066 16.5317L39.9928 16.8692L36.1025 21.319L34.7258 22.8911C34.5038 23.1309 34.3173 23.3441 34.1663 23.7171C34.0775 23.9658 34.0064 24.25 34.113 24.5609L33.9176 24.4454C33.8939 24.4277 33.8732 24.4069 33.8554 24.3833L33.5712 23.8859C33.4913 23.726 33.5179 23.575 33.5712 23.3796C33.6778 23.0776 33.7844 22.9533 34.0331 22.6691L39.4066 16.5229V16.5317ZM35.8449 23.3885L34.1752 27.7761C34.1574 27.8294 34.1219 27.8649 34.0775 27.9005L30.0807 30.2186C29.7787 30.3962 29.5477 30.6627 29.3523 31.0624L25.5865 38.8695C25.542 38.9583 25.3378 39.4646 25.5687 39.6156L25.995 39.8554C26.0128 39.6689 26.0661 39.4735 26.1638 39.2514L29.9385 31.4354C30.1784 30.9558 30.4715 30.6272 30.8534 30.3962L34.7791 28.1225L36.4489 23.7438L35.8627 23.4063L35.8449 23.3885ZM26.4391 40.6103C26.4036 40.6103 26.3592 40.6014 26.3236 40.5837L25.32 40.0064C24.9381 39.7666 24.8848 39.2692 25.1512 38.6652L28.926 30.8492C29.1658 30.3696 29.4589 30.041 29.8408 29.81L33.7666 27.5363L34.5837 25.3958L33.6511 24.8629C33.5446 24.7829 33.509 24.7385 33.4469 24.6586L33.1449 24.1257C32.9939 23.8059 33.0383 23.5217 33.1182 23.2553C33.2603 22.8556 33.4025 22.6868 33.6511 22.4026L39.1756 16.0788C39.2467 15.9988 39.371 15.9722 39.4687 16.0344L40.4724 16.6117C40.5346 16.6472 40.5701 16.7094 40.5878 16.7715C40.5967 16.8426 40.5878 16.9137 40.5346 16.9669L35.0722 23.2109C34.868 23.4418 34.717 23.6105 34.6015 23.8948C34.5216 24.1168 34.486 24.2944 34.5749 24.481L34.788 24.854L35.5074 22.9622C35.5341 22.9 35.5785 22.8467 35.6496 22.8201C35.7117 22.8023 35.7917 22.8023 35.8449 22.8378L36.8486 23.4151C36.9463 23.4773 36.9907 23.5928 36.9463 23.6994L35.1788 28.3445C35.161 28.3978 35.1255 28.4422 35.0811 28.4689L31.0843 30.787C30.7823 30.9647 30.5514 31.2311 30.356 31.6308L26.5901 39.4379C26.5279 39.5712 26.3503 40.033 26.5723 40.184C26.6789 40.2551 26.7144 40.3972 26.6523 40.5037C26.6079 40.5748 26.5279 40.6192 26.448 40.6192L26.4391 40.6103Z" fill="#0076BF"/>
<path fill-rule="evenodd" clip-rule="evenodd" d="M26.3688 39.3313L30.1346 31.5242C30.2323 31.3199 30.3567 31.1334 30.4988 30.9735C30.6409 30.8137 30.8008 30.6804 30.9607 30.5916L34.9575 28.2735L36.7249 23.6283L35.5881 24.925C35.2417 25.3247 34.8154 25.3957 34.6466 25.0938L34.3535 24.5786C34.1847 24.2766 34.3269 23.7082 34.6733 23.3085C36.5651 21.1414 38.4569 18.9831 40.3487 16.8159C40.4287 19.2051 40.4997 21.5943 40.5708 23.9835C40.5885 24.4276 40.2777 24.9783 39.8958 25.2181L39.2385 25.6267C38.8477 25.8665 38.5191 25.7066 38.5102 25.2625L38.4658 23.877L36.3963 29.2771C36.3075 29.4814 36.1832 29.6857 36.041 29.8633C35.8901 30.0498 35.7124 30.2097 35.5348 30.3074L31.4492 32.6788L27.9941 39.8465C27.7543 40.335 27.3102 40.6547 27.0082 40.5659L26.4842 40.406C26.1822 40.3083 26.1201 39.8287 26.3599 39.3402L26.3688 39.3313Z" fill="white"/>
<path fill-rule="evenodd" clip-rule="evenodd" d="M26.5819 39.4379C26.4309 39.7399 26.4398 39.9797 26.4931 40.0951C26.5198 40.1573 26.5553 40.1751 26.5731 40.1751L27.0971 40.3349C27.257 40.3793 27.5945 40.1751 27.7987 39.7399L31.2538 32.5722C31.2715 32.5278 31.3071 32.4923 31.3515 32.4745L35.4371 30.1031C35.5881 30.0143 35.748 29.881 35.8812 29.7123C36.0055 29.5524 36.121 29.3659 36.2009 29.1794L38.2704 23.7881C38.3148 23.6815 38.4125 23.6194 38.528 23.6371C38.6346 23.6549 38.7234 23.7526 38.7234 23.8592L38.7678 25.2447C38.7678 25.3602 38.8033 25.449 38.8566 25.4757C38.9188 25.5112 39.0254 25.4757 39.1408 25.4135L39.7981 25.0049C40.1089 24.8095 40.3754 24.3299 40.3665 23.9746L40.1622 17.4021L34.8776 23.4417C34.5756 23.7881 34.4779 24.25 34.5845 24.4454L34.8776 24.9605C34.8953 25.0049 34.9308 25.0227 34.9664 25.0227C35.0641 25.0316 35.2506 24.9516 35.4371 24.7474L36.574 23.4506C36.645 23.3618 36.7783 23.344 36.876 23.4062C36.9737 23.4684 37.0181 23.5838 36.9737 23.6904L35.2062 28.3356C35.1884 28.3889 35.1529 28.4333 35.1085 28.46L31.1117 30.7781C30.9784 30.858 30.8363 30.9735 30.712 31.1156C30.5876 31.2666 30.4722 31.4354 30.3834 31.6219L26.6175 39.429L26.5819 39.4379ZM27.1326 40.8146C27.0704 40.8146 27.0083 40.8146 26.9461 40.7879L26.4221 40.628C26.2622 40.5747 26.129 40.4504 26.0579 40.2905C25.9336 40.0152 25.978 39.6155 26.1556 39.2425L29.9215 31.4354C30.0281 31.2133 30.1613 31.009 30.3212 30.8314C30.4811 30.6449 30.6587 30.5028 30.8363 30.3962L34.7532 28.1224L36.0322 24.7829L35.7568 25.0937C35.4904 25.3957 35.1707 25.5556 34.8864 25.529C34.691 25.5112 34.5312 25.4046 34.4335 25.227L34.1492 24.7118C33.9272 24.321 34.0782 23.646 34.4956 23.1664L40.1711 16.6738C40.2333 16.6027 40.331 16.5761 40.4287 16.6116C40.5175 16.6471 40.5797 16.7271 40.5886 16.8248L40.8106 23.9924C40.8284 24.5164 40.482 25.147 40.0201 25.4313L39.3629 25.8398C39.0964 25.9997 38.8211 26.0263 38.6168 25.9198C38.4125 25.8043 38.2882 25.5822 38.2793 25.2891V25.0671L36.6184 29.3837C36.5118 29.6235 36.3786 29.8455 36.2276 30.032C36.0588 30.2452 35.8546 30.414 35.6592 30.5383L31.6357 32.8742L28.2073 39.9708C27.9497 40.4948 27.5145 40.8412 27.1237 40.8412L27.1326 40.8146Z" fill="#0076BF"/>
</svg>
