<svg width="36" height="36" viewBox="0 0 36 36" fill="none" xmlns="http://www.w3.org/2000/svg">
<rect x="2" y="2" width="32" height="32" rx="16" fill="#D1F0FF"/>
<rect x="2" y="2" width="32" height="32" rx="16" stroke="#F2FBFF" stroke-width="4"/>
<path d="M16.0002 22C15.9995 22 15.9988 22 15.9975 22C15.8195 21.9993 15.6502 21.928 15.5255 21.8013L12.8588 19.0933C12.6002 18.8307 12.6035 18.4087 12.8662 18.1507C13.1288 17.8927 13.5502 17.8953 13.8088 18.158L16.0042 20.3873L22.1962 14.196C22.4568 13.9353 22.8782 13.9353 23.1388 14.196C23.3995 14.456 23.3995 14.8787 23.1388 15.1387L16.4722 21.8053C16.3468 21.93 16.1768 22 16.0002 22Z" fill="#25314C"/>
</svg>
