<svg width="80" height="85" viewBox="0 0 80 85" fill="none" xmlns="http://www.w3.org/2000/svg">
<g filter="url(#filter0_d_966_1306)">
<g filter="url(#filter1_dd_966_1306)">
<path d="M12 24.3745C12 17.4049 12 13.9202 13.3564 11.2582C14.5495 8.91659 16.4532 7.01283 18.7948 5.81974C21.4568 4.46338 24.9416 4.46338 31.9111 4.46338H48.0889C55.0584 4.46338 58.5432 4.46338 61.2052 5.81974C63.5468 7.01283 65.4505 8.91659 66.6436 11.2582C68 13.9202 68 17.4049 68 24.3745V40.5523C68 47.5218 68 51.0066 66.6436 53.6686C65.4505 56.0102 63.5468 57.9139 61.2052 59.107C58.5432 60.4634 55.0584 60.4634 48.0889 60.4634H31.9111C24.9416 60.4634 21.4568 60.4634 18.7948 59.107C16.4532 57.9139 14.5495 56.0102 13.3564 53.6686C12 51.0066 12 47.5218 12 40.5523V24.3745Z" fill="white"/>
</g>
<path d="M47.7597 23.1918H45.634C45.3735 22.108 44.9534 21.0997 44.3904 20.1755L45.8944 18.6799C46.1717 18.4026 46.1717 17.9405 45.8944 17.6633C42.3824 14.1512 43.2394 14.1596 40.8112 16.5878C39.8869 16.0249 38.8787 15.6047 37.7948 15.3443V13.227C37.7948 12.8321 37.4755 12.5044 37.0722 12.5044C32.1066 12.5044 32.7283 11.8994 32.7283 15.3443C31.6445 15.6047 30.6362 16.0333 29.712 16.5878L28.2164 15.0922C27.9391 14.8149 27.4854 14.8149 27.1998 15.0922C23.6877 18.6043 23.6961 17.7389 26.1243 20.1755C25.5614 21.0997 25.1412 22.1164 24.8808 23.1918H22.7551C22.3602 23.1918 22.0409 23.5111 22.0409 23.906C22.0409 28.8717 21.4359 28.2583 24.8808 28.2583C25.1412 29.3338 25.5698 30.3504 26.1243 31.2663L24.6287 32.7618C24.3514 33.0475 24.3514 33.5012 24.6287 33.7785C28.1408 37.2906 27.2754 37.2822 29.712 34.8455C30.6362 35.4085 31.6445 35.8286 32.7283 36.0891V38.2148C32.7283 38.6097 33.0476 38.9374 33.4425 38.9374C38.4082 38.9374 37.7948 39.5339 37.7948 36.0975C38.8787 35.837 39.8869 35.4169 40.8112 34.854C43.2478 37.2906 42.3824 37.299 45.8944 33.7869C46.1717 33.5012 46.1717 33.0475 45.8944 32.7702L44.3904 31.2747C44.9534 30.3504 45.3735 29.3422 45.634 28.2667C49.0788 28.2667 48.4739 28.8801 48.4739 23.9144C48.4739 18.9488 48.1546 23.2002 47.7597 23.2002V23.1918ZM38.2569 25.7293C38.2569 29.6867 32.2662 29.6951 32.2662 25.7293C32.2662 21.7635 38.2569 21.7635 38.2569 25.7293Z" fill="#1C75BC"/>
<path d="M51.3472 42.8611C51.1876 42.2058 50.9271 41.584 50.5911 41.0211L51.4985 40.1137C51.6665 39.9372 51.6665 39.6683 51.4985 39.4919C49.3644 37.3578 49.8853 37.3578 48.4065 38.8449C47.8436 38.5005 47.2302 38.2484 46.5749 38.0888V36.7948C46.5749 36.5596 46.3816 36.3579 46.1379 36.3579C43.1132 36.3579 43.4913 35.9966 43.4913 38.0888C42.8359 38.2484 42.2142 38.5005 41.6596 38.8449C40.1809 37.3662 40.7018 37.3578 38.5677 39.4919C38.3996 39.6683 38.3996 39.9372 38.5677 40.1137L39.4835 41.0211C39.1474 41.584 38.8869 42.1974 38.7273 42.8611C36.6352 42.8611 36.9965 42.483 36.9965 45.5078C36.9965 48.5326 37.1897 45.9447 37.4334 45.9447H38.7273C38.8869 46.6001 39.1474 47.2134 39.4835 47.7764C38.0047 49.2551 37.9963 48.7342 40.1389 50.8683C40.3069 51.0364 40.5842 51.0364 40.7522 50.8683L41.668 49.9609C42.2226 50.3054 42.8443 50.5575 43.4997 50.7171V52.011C43.4997 52.2463 43.6929 52.4395 43.9366 52.4395C46.9614 52.4395 46.5833 52.8008 46.5833 50.7171C47.2386 50.5575 47.8604 50.297 48.4149 49.9609L49.3224 50.8683C49.4904 51.0364 49.7677 51.0364 49.9441 50.8683C52.0782 48.7342 52.0782 49.2551 50.5911 47.7764C50.9271 47.2134 51.1876 46.6001 51.3472 45.9447H52.6412C52.8848 45.9447 53.0781 45.7431 53.0781 45.5078C53.0781 42.483 53.4478 42.8611 51.3472 42.8611ZM45.0373 47.6671C40.727 47.6671 40.7186 41.1471 45.0373 41.1471C49.356 41.1471 49.3476 47.6671 45.0373 47.6671Z" fill="#1C75BC"/>
<path d="M57.0856 31.5604C56.9679 31.0898 56.7831 30.6361 56.5394 30.2328C57.4973 29.275 57.6737 29.6027 56.0689 27.9979C55.7496 27.6786 55.3043 28.3087 54.9598 28.6616C54.5565 28.4096 54.1028 28.2247 53.6323 28.1155C53.6323 26.6367 53.918 26.8636 51.7166 26.8636C49.5153 26.8636 51.3974 27.6282 51.3974 28.1155C50.9184 28.2331 50.4731 28.418 50.0698 28.6616C49.1204 27.7122 49.4397 27.5273 47.8265 29.1321C47.5072 29.4514 48.1373 29.8967 48.4902 30.2412C48.2466 30.6445 48.0533 31.0982 47.9441 31.5688C47.4568 31.5688 46.6922 31.4343 46.6922 31.888C46.6922 34.0726 46.4233 33.8037 47.9441 33.8037C48.0533 34.2826 48.2466 34.7279 48.4902 35.1312C48.1457 35.4757 47.5156 35.9211 47.8265 36.2403C49.3724 37.7863 48.9943 37.7779 50.0698 36.7108C50.4731 36.9545 50.9184 37.1478 51.3974 37.257C51.3974 38.7358 51.1117 38.5089 53.313 38.5089C55.5144 38.5089 53.6323 37.7443 53.6323 37.257C54.1028 37.1394 54.5565 36.9545 54.9598 36.7108C55.3043 37.0553 55.7496 37.6855 56.0689 37.3662C57.6737 35.7698 57.4973 36.0891 56.5394 35.1312C56.7831 34.7195 56.9763 34.2742 57.0856 33.8037C57.5729 33.8037 58.3375 33.9382 58.3375 33.4844C58.3375 31.2915 58.5727 31.5688 57.0856 31.5688V31.5604ZM50.1622 32.6778C50.1622 29.5607 54.8758 29.5523 54.8758 32.6778C54.8758 35.8034 50.1622 35.795 50.1622 32.6778Z" fill="#1C75BC"/>
</g>
<defs>
<filter id="filter0_d_966_1306" x="6" y="-0.536621" width="68" height="68" filterUnits="userSpaceOnUse" color-interpolation-filters="sRGB">
<feFlood flood-opacity="0" result="BackgroundImageFix"/>
<feColorMatrix in="SourceAlpha" type="matrix" values="0 0 0 0 0 0 0 0 0 0 0 0 0 0 0 0 0 0 127 0" result="hardAlpha"/>
<feOffset dy="1"/>
<feGaussianBlur stdDeviation="1"/>
<feColorMatrix type="matrix" values="0 0 0 0 0.0627451 0 0 0 0 0.0941176 0 0 0 0 0.156863 0 0 0 0.05 0"/>
<feBlend mode="normal" in2="BackgroundImageFix" result="effect1_dropShadow_966_1306"/>
<feBlend mode="normal" in="SourceGraphic" in2="effect1_dropShadow_966_1306" result="shape"/>
</filter>
<filter id="filter1_dd_966_1306" x="0" y="4.46338" width="80" height="80" filterUnits="userSpaceOnUse" color-interpolation-filters="sRGB">
<feFlood flood-opacity="0" result="BackgroundImageFix"/>
<feColorMatrix in="SourceAlpha" type="matrix" values="0 0 0 0 0 0 0 0 0 0 0 0 0 0 0 0 0 0 127 0" result="hardAlpha"/>
<feMorphology radius="2" operator="erode" in="SourceAlpha" result="effect1_dropShadow_966_1306"/>
<feOffset dy="4"/>
<feGaussianBlur stdDeviation="3"/>
<feColorMatrix type="matrix" values="0 0 0 0 0.0627451 0 0 0 0 0.0941176 0 0 0 0 0.156863 0 0 0 0.05 0"/>
<feBlend mode="normal" in2="BackgroundImageFix" result="effect1_dropShadow_966_1306"/>
<feColorMatrix in="SourceAlpha" type="matrix" values="0 0 0 0 0 0 0 0 0 0 0 0 0 0 0 0 0 0 127 0" result="hardAlpha"/>
<feMorphology radius="4" operator="erode" in="SourceAlpha" result="effect2_dropShadow_966_1306"/>
<feOffset dy="12"/>
<feGaussianBlur stdDeviation="8"/>
<feColorMatrix type="matrix" values="0 0 0 0 0.0627451 0 0 0 0 0.0941176 0 0 0 0 0.156863 0 0 0 0.1 0"/>
<feBlend mode="normal" in2="effect1_dropShadow_966_1306" result="effect2_dropShadow_966_1306"/>
<feBlend mode="normal" in="SourceGraphic" in2="effect2_dropShadow_966_1306" result="shape"/>
</filter>
</defs>
</svg>
