<svg xmlns="http://www.w3.org/2000/svg" width="24" height="24" viewBox="0 0 24 24" fill="none">
  <g clip-path="url(#clip0_853_41424)">
    <path d="M24 11.9985C24 5.37111 18.6274 -0.00146484 12 -0.00146484C5.37258 -0.00146484 0 5.37111 0 11.9985C0 17.988 4.3882 22.9525 10.125 23.8528V15.4673H7.07812V11.9985H10.125V9.35479C10.125 6.34729 11.9166 4.68604 14.6576 4.68604C15.9701 4.68604 17.3438 4.92041 17.3438 4.92041V7.87354H15.8306C14.34 7.87354 13.875 8.79861 13.875 9.74854V11.9985H17.2031L16.6711 15.4673H13.875V23.8528C19.6118 22.9525 24 17.988 24 11.9985Z" fill="#E4E7EC"/>
  </g>
  <defs>
    <clipPath id="clip0_853_41424">
      <rect width="24" height="24" fill="white" transform="translate(0 -0.00146484)"/>
    </clipPath>
  </defs>
</svg>