<svg xmlns="http://www.w3.org/2000/svg" width="52" height="53" viewBox="0 0 52 53" fill="none">
  <path d="M0.400391 26.4633C0.400391 12.3248 11.8619 0.863281 26.0004 0.863281C40.1389 0.863281 51.6004 12.3248 51.6004 26.4633C51.6004 40.6018 40.1389 52.0633 26.0004 52.0633C11.8619 52.0633 0.400391 40.6018 0.400391 26.4633Z" fill="#D1F0FF"/>
  <path fill-rule="evenodd" clip-rule="evenodd" d="M24.5075 12.262C17.4903 12.262 11.8008 17.9515 11.8008 24.9686C11.8008 31.9858 17.4813 37.6753 24.5075 37.6753C31.5336 37.6753 37.2141 31.9858 37.2141 24.9686C37.2141 17.9515 31.5246 12.262 24.5075 12.262Z" fill="white"/>
  <path fill-rule="evenodd" clip-rule="evenodd" d="M24.5069 12.4608C17.6072 12.4608 11.9989 18.0691 11.9989 24.9688C11.9989 31.8686 17.6162 37.4768 24.5069 37.4768C31.3976 37.4768 37.0149 31.8686 37.0149 24.9688C37.0149 18.0691 31.3976 12.4608 24.5069 12.4608ZM24.5069 37.8652C17.3905 37.8652 11.6016 32.0763 11.6016 24.9688C11.6016 17.8614 17.3905 12.0725 24.5069 12.0725C31.6234 12.0725 37.4033 17.8614 37.4033 24.9688C37.4033 32.0763 31.6144 37.8652 24.5069 37.8652Z" fill="#0076BF"/>
  <path fill-rule="evenodd" clip-rule="evenodd" d="M32.6079 16.8588C31.5512 15.8022 30.2869 14.9533 28.8871 14.3662C27.5324 13.8063 26.0513 13.4993 24.498 13.4993C22.9446 13.4993 21.4636 13.8063 20.1089 14.3662C18.7091 14.9442 17.4447 15.8022 16.3791 16.8588C15.3224 17.9154 14.4735 19.1798 13.8865 20.5796C13.3266 21.9343 13.0195 23.4154 13.0195 24.9687C13.0195 26.522 13.3356 28.0031 13.8865 29.3578C14.4645 30.7576 15.3224 32.0219 16.3791 33.0786C17.4447 34.1352 18.7001 34.9841 20.1089 35.5711C21.4636 36.1311 22.9356 36.4381 24.498 36.4381C26.0604 36.4381 27.5324 36.1311 28.8871 35.5711C30.2869 34.9931 31.5512 34.1352 32.6079 33.0786C33.6645 32.0219 34.5134 30.7576 35.1004 29.3578C35.6604 28.0031 35.9674 26.522 35.9674 24.9687C35.9674 23.4154 35.6604 21.9343 35.1004 20.5796C34.5224 19.1798 33.6645 17.9154 32.6079 16.8588Z" fill="white"/>
  <path fill-rule="evenodd" clip-rule="evenodd" d="M24.5067 13.6891C23.0166 13.6891 21.5626 13.9781 20.1899 14.538C18.8172 15.1069 17.589 15.9288 16.5323 16.9854C15.4757 18.042 14.6539 19.2702 14.0849 20.643C13.5159 22.0066 13.236 23.4606 13.236 24.9598C13.236 26.459 13.5159 27.9039 14.0849 29.2766C14.6448 30.6494 15.4757 31.8776 16.5323 32.9342C17.598 33.9908 18.8262 34.8127 20.1899 35.3816C22.9263 36.5105 26.0872 36.5105 28.8145 35.3816C30.1873 34.8127 31.4155 33.9908 32.4721 32.9342C33.5288 31.8776 34.3506 30.6494 34.9195 29.2766C35.4795 27.9129 35.7775 26.459 35.7775 24.9598C35.7775 23.4606 35.4885 22.0157 34.9195 20.643C34.3506 19.2702 33.5288 18.042 32.4721 16.9854C31.4155 15.9288 30.1873 15.1069 28.8145 14.538C27.4509 13.969 25.9969 13.6891 24.5067 13.6891ZM24.5067 36.6279C22.9624 36.6279 21.4633 36.3299 20.0454 35.7429C18.6275 35.1558 17.3542 34.2979 16.2614 33.2051C15.1686 32.1124 14.3107 30.839 13.7327 29.4211C13.1457 28.0123 12.8477 26.5041 12.8477 24.9598C12.8477 23.4155 13.1457 21.9163 13.7327 20.4985C14.3197 19.0806 15.1686 17.8072 16.2614 16.7145C17.3542 15.6217 18.6275 14.7728 20.0454 14.1858C22.8811 13.0117 26.1323 13.0117 28.9681 14.1858C30.3859 14.7728 31.6593 15.6307 32.7521 16.7235C33.8448 17.8162 34.6938 19.0896 35.2808 20.5075C35.8678 21.9254 36.1658 23.4245 36.1658 24.9688C36.1658 26.5131 35.8678 28.0123 35.2808 29.4302C34.6847 30.848 33.8448 32.1214 32.7521 33.2142C31.6593 34.3069 30.3859 35.1558 28.9681 35.7519C27.5592 36.3389 26.051 36.6369 24.5067 36.6369V36.6279Z" fill="#0076BF"/>
  <path fill-rule="evenodd" clip-rule="evenodd" d="M24.5062 15.5581C17.7149 15.5581 12.1969 20.2182 12.1969 25.9438C12.1969 31.6695 17.7149 36.3205 24.5062 36.3205C31.2976 36.3205 36.8065 31.6695 36.8065 25.9438C36.8065 20.2182 31.2886 15.5581 24.5062 15.5581ZM24.5062 36.7088C17.5072 36.7088 11.8086 31.8772 11.8086 25.9348C11.8086 19.9924 17.5072 15.1698 24.5062 15.1698C31.5053 15.1698 37.2039 20.0014 37.2039 25.9348C37.2039 31.8682 31.5053 36.7088 24.5062 36.7088Z" fill="#0076BF"/>
  <path fill-rule="evenodd" clip-rule="evenodd" d="M24.5069 32.5639C17.3905 32.5639 11.6016 28.7257 11.6016 24.0115C11.6016 19.2973 11.6919 23.8128 11.8003 23.8128C11.9086 23.8128 11.9899 23.9031 11.9899 24.0115C11.9899 28.518 17.6072 32.1756 24.4979 32.1756C31.3886 32.1756 37.0059 28.518 37.0059 24.0115C37.0059 19.505 37.0962 23.8128 37.2046 23.8128C37.3129 23.8128 37.3942 23.9031 37.3942 24.0115C37.3942 28.7257 31.6053 32.5639 24.4979 32.5639H24.5069Z" fill="#0076BF"/>
  <path fill-rule="evenodd" clip-rule="evenodd" d="M24.507 25.4655C18.6007 25.4655 13.7871 22.6659 13.7871 19.216C13.7871 15.7661 14.2296 17.166 14.934 16.308C14.9973 16.2267 15.1237 16.2177 15.205 16.2809C15.2953 16.3441 15.3043 16.4706 15.2321 16.5519C14.5818 17.3376 14.1754 18.3581 14.1754 19.207C14.1754 22.4401 18.8084 25.0681 24.507 25.0681C30.2055 25.0681 34.8294 22.4401 34.8294 19.207C34.8294 15.9739 34.1973 16.7505 33.0594 15.8203C32.969 15.7571 32.96 15.6307 33.0232 15.5494C33.0955 15.4681 33.2129 15.4501 33.2942 15.5223C34.5314 16.5338 35.2178 17.8433 35.2178 19.207C35.2178 22.6478 30.4133 25.4565 24.507 25.4565V25.4655Z" fill="#0076BF"/>
  <path fill-rule="evenodd" clip-rule="evenodd" d="M24.5073 37.865C24.3989 37.865 24.3086 37.7747 24.3086 37.6664V12.262C24.3086 12.1537 24.3989 12.0634 24.5073 12.0634C24.6156 12.0634 24.6969 12.1537 24.6969 12.262V37.6664C24.6969 37.7747 24.6066 37.865 24.5073 37.865Z" fill="#0076BF"/>
  <path fill-rule="evenodd" clip-rule="evenodd" d="M18.058 36.1131C18.0219 36.1131 17.9857 36.1041 17.9496 36.077C15.746 34.5598 14.7165 32.3833 14.861 29.5927C15.15 24.138 20.2164 17.4279 24.5423 15.0798C28.6153 12.8672 32.3451 13.68 34.7654 17.3195C34.8286 17.4099 34.8015 17.5273 34.7112 17.5905C34.6209 17.6537 34.5035 17.6266 34.4403 17.5363C32.1464 14.0864 28.6062 13.3188 24.7319 15.423C20.4964 17.7259 15.5383 24.2825 15.2584 29.6198C15.1229 32.2659 16.0982 34.334 18.1754 35.7609C18.2657 35.8242 18.2838 35.9416 18.2205 36.0319C18.1844 36.0861 18.1212 36.1131 18.058 36.1131Z" fill="#0076BF"/>
  <path fill-rule="evenodd" clip-rule="evenodd" d="M30.945 36.1131C30.8818 36.1131 30.8186 36.0861 30.7824 36.0319C30.7192 35.9416 30.7463 35.8242 30.8276 35.7609C32.9047 34.334 33.8891 32.2659 33.7537 29.6198C33.4737 24.2825 28.5157 17.7259 24.2801 15.423C20.3967 13.3188 16.8566 14.0864 14.5627 17.5363C14.4995 17.6266 14.3821 17.6537 14.2918 17.5905C14.2015 17.5273 14.1744 17.4099 14.2376 17.3195C16.6579 13.68 20.3787 12.8672 24.4607 15.0798C28.7956 17.4279 33.853 24.138 34.142 29.5927C34.2865 32.3833 33.2479 34.5598 31.0534 36.077C31.0263 36.0951 30.9811 36.1131 30.945 36.1131Z" fill="#0076BF"/>
  <path fill-rule="evenodd" clip-rule="evenodd" d="M40.2571 31.5164V33.2774L34.3418 35.1288V33.3767L40.2571 31.5164Z" fill="#0076BF"/>
  <path fill-rule="evenodd" clip-rule="evenodd" d="M34.478 33.476V34.9481L40.1224 33.178V31.7059L34.478 33.476ZM34.3425 35.2642C34.3154 35.2642 34.2883 35.2551 34.2612 35.2371C34.2251 35.21 34.207 35.1738 34.207 35.1287V33.3676C34.207 33.3044 34.2432 33.2593 34.3064 33.2412L40.2307 31.3898C40.2759 31.3808 40.312 31.3898 40.3481 31.4079C40.3843 31.435 40.4023 31.4711 40.4023 31.5163V33.2773C40.4023 33.3405 40.3662 33.3857 40.303 33.4038L34.3786 35.2551C34.3696 35.2551 34.3515 35.2551 34.3425 35.2551V35.2642Z" fill="#0076BF"/>
  <path fill-rule="evenodd" clip-rule="evenodd" d="M39.328 36.2574V38.0094L36.9258 39.4002V37.6391L39.328 36.2574Z" fill="#0076BF"/>
  <path fill-rule="evenodd" clip-rule="evenodd" d="M37.0593 37.7204V39.1653L39.1906 37.9371V36.4922L37.0593 37.7204ZM36.9238 39.5356C36.8967 39.5356 36.8786 39.5356 36.8515 39.5176C36.8064 39.4905 36.7793 39.4453 36.7793 39.4002V37.6391C36.7793 37.5939 36.8064 37.5488 36.8515 37.5217L39.2538 36.1399C39.299 36.1129 39.3441 36.1129 39.3893 36.1399C39.4344 36.167 39.4615 36.2122 39.4615 36.2574V38.0184C39.4615 38.0636 39.4344 38.1087 39.3893 38.1358L36.996 39.5176C36.969 39.5266 36.9509 39.5356 36.9238 39.5356Z" fill="#0076BF"/>
  <path fill-rule="evenodd" clip-rule="evenodd" d="M36.9246 37.6392V39.4003L31.9395 36.5194V34.7583L36.9246 37.6392Z" fill="#0076BF"/>
  <path fill-rule="evenodd" clip-rule="evenodd" d="M32.0756 36.438L36.7898 39.1654V37.7204L32.0756 34.993V36.438ZM36.9253 39.5356C36.8982 39.5356 36.8801 39.5356 36.853 39.5176L31.8679 36.6367C31.8227 36.6096 31.8047 36.5644 31.8047 36.5193V34.7582C31.8047 34.7131 31.8318 34.6679 31.8679 34.6408C31.9131 34.6137 31.9672 34.6137 32.0034 34.6408L36.9885 37.5217C37.0337 37.5488 37.0517 37.594 37.0517 37.6391V39.4002C37.0517 39.4453 37.0246 39.4905 36.9885 39.5176C36.9614 39.5266 36.9433 39.5356 36.9163 39.5356H36.9253Z" fill="#0076BF"/>
  <path fill-rule="evenodd" clip-rule="evenodd" d="M31.9397 34.7583V36.5194L28.7246 39.9331V38.172L31.9397 34.7583Z" fill="#0076BF"/>
  <path fill-rule="evenodd" clip-rule="evenodd" d="M28.86 38.2264V39.5901L31.8042 36.4653V35.1016L28.86 38.2264ZM28.7246 40.0687C28.7065 40.0687 28.6885 40.0687 28.6704 40.0597C28.6162 40.0416 28.5801 39.9874 28.5801 39.9332V38.1722C28.5801 38.1361 28.5981 38.0999 28.6162 38.0819L31.8313 34.6681C31.8674 34.623 31.9306 34.614 31.9848 34.632C32.039 34.6501 32.0661 34.7043 32.0661 34.7584V36.5195C32.0661 36.5556 32.057 36.5917 32.0299 36.6098L28.8149 40.0235C28.7878 40.0506 28.7517 40.0687 28.7155 40.0687H28.7246Z" fill="#0076BF"/>
  <path fill-rule="evenodd" clip-rule="evenodd" d="M28.7249 38.1719V39.933L22.918 29.9175V28.1565L28.7249 38.1719Z" fill="#0076BF"/>
  <path fill-rule="evenodd" clip-rule="evenodd" d="M23.0522 29.8817L28.5882 39.4275V38.2083L23.0522 28.6625V29.8817ZM28.7237 40.0687C28.6695 40.0687 28.6334 40.0416 28.6063 39.9964L22.7993 29.981C22.7903 29.9629 22.7812 29.9358 22.7812 29.9087V28.1477C22.7812 28.0845 22.8264 28.0303 22.8806 28.0213C22.9438 28.0032 23.007 28.0303 23.0341 28.0845L28.8411 38.0999C28.8591 38.118 28.8591 38.1451 28.8591 38.1722V39.9332C28.8591 39.9964 28.814 40.0506 28.7598 40.0687C28.7508 40.0687 28.7327 40.0687 28.7237 40.0687Z" fill="#0076BF"/>
  <path fill-rule="evenodd" clip-rule="evenodd" d="M22.918 28.1565L40.2576 31.516L34.3422 33.3764L39.3274 36.2573L36.9251 37.6391L31.94 34.7582L28.7249 38.1719L22.918 28.1565Z" fill="white"/>
  <path fill-rule="evenodd" clip-rule="evenodd" d="M23.1789 28.3463L28.7511 37.9463L31.8397 34.668C31.8849 34.6229 31.9481 34.6138 32.0113 34.6409L36.9332 37.4857L39.0555 36.2575L34.2781 33.494C34.2329 33.4669 34.2058 33.4127 34.2058 33.3585C34.2058 33.3043 34.251 33.2592 34.3052 33.2411L39.7148 31.5523L23.188 28.3463H23.1789ZM28.724 38.3075H28.715C28.6698 38.3075 28.6337 38.2804 28.6066 38.2443L22.7996 28.2289C22.7725 28.1837 22.7725 28.1296 22.7996 28.0844C22.8267 28.0392 22.8809 28.0212 22.9351 28.0302L40.2837 31.3898C40.3469 31.3988 40.3921 31.453 40.3921 31.5162C40.3921 31.5794 40.356 31.6336 40.2928 31.6517L34.6664 33.4127L39.3806 36.1401C39.4258 36.1672 39.4529 36.2123 39.4529 36.2575C39.4529 36.3026 39.4258 36.3478 39.3806 36.3749L36.9874 37.7566C36.9422 37.7837 36.8881 37.7837 36.8519 37.7566L31.9571 34.9299L28.8143 38.2714C28.7872 38.2985 28.7511 38.3166 28.715 38.3166L28.724 38.3075Z" fill="#0076BF"/>
</svg>