<svg width="24" height="24" viewBox="0 0 24 24" fill="none" xmlns="http://www.w3.org/2000/svg">
<g id="Group">
<path id="Vector" d="M22.2234 -0.00146484H1.77187C0.792187 -0.00146484 0 0.771973 0 1.72822V22.2642C0 23.2204 0.792187 23.9985 1.77187 23.9985H22.2234C23.2031 23.9985 24 23.2204 24 22.2688V1.72822C24 0.771973 23.2031 -0.00146484 22.2234 -0.00146484ZM7.12031 20.4501H3.55781V8.99385H7.12031V20.4501ZM5.33906 7.43291C4.19531 7.43291 3.27188 6.50947 3.27188 5.37041C3.27188 4.23135 4.19531 3.30791 5.33906 3.30791C6.47813 3.30791 7.40156 4.23135 7.40156 5.37041C7.40156 6.50479 6.47813 7.43291 5.33906 7.43291ZM20.4516 20.4501H16.8937V14.8813C16.8937 13.5548 16.8703 11.8438 15.0422 11.8438C13.1906 11.8438 12.9094 13.2923 12.9094 14.7876V20.4501H9.35625V8.99385H12.7687V10.5595H12.8156C13.2891 9.65947 14.4516 8.70791 16.1813 8.70791C19.7859 8.70791 20.4516 11.0798 20.4516 14.1642V20.4501Z" fill="#E4E7EC"/>
</g>
</svg>
