<svg width="36" height="36" viewBox="0 0 36 36" fill="none" xmlns="http://www.w3.org/2000/svg">
<rect x="2" y="2" width="32" height="32" rx="16" fill="#D1F0FF"/>
<rect x="2" y="2" width="32" height="32" rx="16" stroke="#F2FBFF" stroke-width="4"/>
<path d="M21.1663 15.536V14.6667C21.1663 12.9207 19.7457 11.5 17.9997 11.5C16.2537 11.5 14.833 12.9207 14.833 14.6667V15.536C13.541 15.7073 12.833 16.564 12.833 18V22C12.833 23.612 13.721 24.5 15.333 24.5H20.6663C22.2783 24.5 23.1663 23.612 23.1663 22V18C23.1663 16.5647 22.4583 15.708 21.1663 15.536ZM17.9997 12.5C19.1943 12.5 20.1663 13.472 20.1663 14.6667V15.5H15.833V14.6667C15.833 13.472 16.805 12.5 17.9997 12.5ZM22.1663 22C22.1663 23.0513 21.7177 23.5 20.6663 23.5H15.333C14.2817 23.5 13.833 23.0513 13.833 22V18C13.833 16.9487 14.2817 16.5 15.333 16.5H20.6663C21.7177 16.5 22.1663 16.9487 22.1663 18V22ZM18.8464 19.3333C18.8464 19.608 18.705 19.84 18.4997 19.9914V21.3333C18.4997 21.6093 18.2757 21.8333 17.9997 21.8333C17.7237 21.8333 17.4997 21.6093 17.4997 21.3333V19.9746C17.3077 19.8219 17.1763 19.5967 17.1763 19.3333C17.1763 18.8733 17.5463 18.5 18.0063 18.5H18.013C18.473 18.5 18.8464 18.8733 18.8464 19.3333Z" fill="#1C75BC"/>
</svg>
