<svg width="80" height="85" viewBox="0 0 80 85" fill="none" xmlns="http://www.w3.org/2000/svg">
<g filter="url(#filter0_d_966_1404)">
<g filter="url(#filter1_dd_966_1404)">
<path d="M12 24.3745C12 17.4049 12 13.9202 13.3564 11.2582C14.5495 8.91659 16.4532 7.01283 18.7948 5.81974C21.4568 4.46338 24.9416 4.46338 31.9111 4.46338H48.0889C55.0584 4.46338 58.5432 4.46338 61.2052 5.81974C63.5468 7.01283 65.4505 8.91659 66.6436 11.2582C68 13.9202 68 17.4049 68 24.3745V40.5523C68 47.5218 68 51.0066 66.6436 53.6686C65.4505 56.0102 63.5468 57.9139 61.2052 59.107C58.5432 60.4634 55.0584 60.4634 48.0889 60.4634H31.9111C24.9416 60.4634 21.4568 60.4634 18.7948 59.107C16.4532 57.9139 14.5495 56.0102 13.3564 53.6686C12 51.0066 12 47.5218 12 40.5523V24.3745Z" fill="white"/>
</g>
<path d="M55.7895 42.9896C55.7895 41.5343 55.4783 40.143 54.9291 38.8889C54.8833 38.7791 54.8284 38.6693 54.7735 38.5594C54.4805 37.9462 54.1236 37.3695 53.7208 36.8386C53.6384 36.7288 53.5561 36.6189 53.4645 36.5091C53.3089 36.3169 53.1533 36.1338 52.9794 35.9599C52.3295 35.2734 51.5881 34.6693 50.7643 34.1842C49.4005 33.3695 47.8352 32.8661 46.151 32.7562L44.8696 35.6487L43.6888 38.3214L43.1854 39.4748L42.2792 41.5343L42.1968 40.9484L41.968 39.4015L41.6934 37.5068C41.6568 37.223 41.4188 37.1132 41.1716 37.2597L40.3387 37.7539C40.2746 37.7906 40.2105 37.818 40.1282 37.8363C40.0549 37.8546 39.9725 37.8638 39.8902 37.8638C39.7254 37.8638 39.5698 37.8272 39.4417 37.7539L38.6087 37.2597C38.3616 37.1132 38.1327 37.223 38.087 37.5068L37.5011 41.5343L36.0824 38.3306L34.9016 35.667L33.6201 32.7745C32 32.8752 30.4897 33.3512 29.1625 34.1201C28.833 34.3031 28.5217 34.5137 28.2197 34.7334C28.0915 34.8249 27.9634 34.9256 27.8444 35.0263C27.4783 35.3192 27.1304 35.6487 26.8009 35.9874C26.6911 36.1063 26.5904 36.2162 26.4806 36.3352C24.9336 38.1292 24 40.4725 24 43.0262V52.4633H55.762V43.0262L55.7895 42.9896Z" fill="#1C75BC"/>
<path d="M41.3721 36.0972C41.4819 36.0332 41.5826 35.9691 41.6467 35.9325C41.6741 35.9142 41.7016 35.905 41.7108 35.8959C41.7199 35.8959 41.7382 35.8501 41.7474 35.7952C41.7657 35.6945 41.7748 35.5206 41.7748 35.3375V34.0927C41.7748 33.8089 41.5368 33.5709 41.2531 33.5709H38.5803C38.2966 33.5709 38.0586 33.8089 38.0586 34.0927V35.3375C38.0586 35.3741 38.0586 35.4107 38.0586 35.4382C38.0586 35.5389 38.0586 35.6304 38.0769 35.7128C38.0769 35.7677 38.086 35.8043 38.0952 35.8318C38.0952 35.8501 38.0952 35.8593 38.1044 35.8684C38.1044 35.8776 38.1044 35.8867 38.1135 35.8867C38.1135 35.8867 38.1318 35.8959 38.141 35.905C38.1684 35.9233 38.2142 35.9508 38.2874 35.9966C38.3332 36.024 38.3881 36.0515 38.443 36.0881C38.4979 36.1247 38.562 36.1613 38.6261 36.1979L39.459 36.6922C39.4774 36.7014 39.4957 36.7105 39.514 36.7197C39.7611 36.8387 40.1181 36.8295 40.3469 36.6922L41.1799 36.1979C41.2439 36.1613 41.2989 36.1247 41.3538 36.0881L41.3721 36.0972Z" fill="#1C75BC"/>
<path d="M39.9091 12.4634C37.7856 12.4634 35.8359 13.1773 34.2707 14.3673C34.0785 14.5137 33.8863 14.6693 33.7032 14.8341C33.575 14.9439 33.4561 15.0629 33.3371 15.1819C31.6528 16.8661 30.6094 19.1911 30.6094 21.754C30.6094 24.3169 31.9091 27.1819 33.9503 28.8936C33.9869 28.9302 34.0327 28.9577 34.0693 28.9943C34.7375 29.5343 35.4881 29.992 36.2936 30.3307C36.4309 30.3856 36.5773 30.4405 36.7146 30.4954C36.9069 30.5686 37.0991 30.6236 37.3004 30.6876C37.4011 30.7151 37.4927 30.7426 37.5934 30.77C38.3348 30.9622 39.1128 31.0629 39.9183 31.0629C40.7238 31.0629 40.559 31.0446 40.8702 31.0172C41.1815 30.9897 41.4927 30.9348 41.7947 30.8799C41.9503 30.8524 42.0968 30.8158 42.2432 30.7792C42.3439 30.7517 42.4355 30.7242 42.5361 30.6968C42.7284 30.6419 42.9297 30.5778 43.122 30.5046C43.5522 30.349 43.9641 30.1567 44.3577 29.9462C44.8519 29.6716 45.3279 29.3604 45.7673 29.0034C45.8039 28.9668 45.8497 28.9394 45.8863 28.9027C46.3256 28.5366 46.7375 28.1247 47.1037 27.6854C47.1952 27.5664 47.2867 27.4565 47.3783 27.3375C47.6895 26.9256 47.9641 26.4771 48.2021 26.0103C48.2661 25.8821 48.3302 25.754 48.3943 25.6167C48.4675 25.4611 48.5316 25.2963 48.5956 25.1316C48.6322 25.04 48.6689 24.9485 48.6963 24.857C48.7696 24.6373 48.8428 24.4176 48.9069 24.1888C49.1174 23.4199 49.2272 22.6053 49.2272 21.7631C49.2272 21.5984 49.2272 21.4428 49.2181 21.2872C49.1815 20.6556 49.0899 20.0332 48.9343 19.4382C48.7146 18.6053 48.3851 17.8089 47.9641 17.0858C47.9091 16.9851 47.8451 16.8936 47.7902 16.7929C47.6986 16.6465 47.5979 16.4908 47.4881 16.3535C47.2867 16.0789 47.0762 15.8135 46.8474 15.5572C46.7375 15.4291 46.6185 15.3101 46.4995 15.1911C46.3805 15.0721 46.2615 14.9531 46.1334 14.8432C45.9503 14.6785 45.7581 14.5229 45.5659 14.3764C44.0007 13.1773 42.051 12.4725 39.9274 12.4725L39.9091 12.4634Z" fill="#1C75BC"/>
</g>
<defs>
<filter id="filter0_d_966_1404" x="6" y="-0.536621" width="68" height="68" filterUnits="userSpaceOnUse" color-interpolation-filters="sRGB">
<feFlood flood-opacity="0" result="BackgroundImageFix"/>
<feColorMatrix in="SourceAlpha" type="matrix" values="0 0 0 0 0 0 0 0 0 0 0 0 0 0 0 0 0 0 127 0" result="hardAlpha"/>
<feOffset dy="1"/>
<feGaussianBlur stdDeviation="1"/>
<feColorMatrix type="matrix" values="0 0 0 0 0.0627451 0 0 0 0 0.0941176 0 0 0 0 0.156863 0 0 0 0.05 0"/>
<feBlend mode="normal" in2="BackgroundImageFix" result="effect1_dropShadow_966_1404"/>
<feBlend mode="normal" in="SourceGraphic" in2="effect1_dropShadow_966_1404" result="shape"/>
</filter>
<filter id="filter1_dd_966_1404" x="0" y="4.46338" width="80" height="80" filterUnits="userSpaceOnUse" color-interpolation-filters="sRGB">
<feFlood flood-opacity="0" result="BackgroundImageFix"/>
<feColorMatrix in="SourceAlpha" type="matrix" values="0 0 0 0 0 0 0 0 0 0 0 0 0 0 0 0 0 0 127 0" result="hardAlpha"/>
<feMorphology radius="2" operator="erode" in="SourceAlpha" result="effect1_dropShadow_966_1404"/>
<feOffset dy="4"/>
<feGaussianBlur stdDeviation="3"/>
<feColorMatrix type="matrix" values="0 0 0 0 0.0627451 0 0 0 0 0.0941176 0 0 0 0 0.156863 0 0 0 0.05 0"/>
<feBlend mode="normal" in2="BackgroundImageFix" result="effect1_dropShadow_966_1404"/>
<feColorMatrix in="SourceAlpha" type="matrix" values="0 0 0 0 0 0 0 0 0 0 0 0 0 0 0 0 0 0 127 0" result="hardAlpha"/>
<feMorphology radius="4" operator="erode" in="SourceAlpha" result="effect2_dropShadow_966_1404"/>
<feOffset dy="12"/>
<feGaussianBlur stdDeviation="8"/>
<feColorMatrix type="matrix" values="0 0 0 0 0.0627451 0 0 0 0 0.0941176 0 0 0 0 0.156863 0 0 0 0.1 0"/>
<feBlend mode="normal" in2="effect1_dropShadow_966_1404" result="effect2_dropShadow_966_1404"/>
<feBlend mode="normal" in="SourceGraphic" in2="effect2_dropShadow_966_1404" result="shape"/>
</filter>
</defs>
</svg>
