<svg xmlns="http://www.w3.org/2000/svg" width="24" height="24" viewBox="0 0 24 24" fill="none">
  <path d="M7.55016 21.7485C16.6045 21.7485 21.5583 14.2452 21.5583 7.7404C21.5583 7.52946 21.5536 7.31383 21.5442 7.1029C22.5079 6.406 23.3395 5.54279 24 4.55383C23.1025 4.95314 22.1496 5.21392 21.1739 5.32727C22.2013 4.71144 22.9705 3.74401 23.3391 2.6043C22.3726 3.17709 21.3156 3.58115 20.2134 3.79915C19.4708 3.0101 18.489 2.48765 17.4197 2.31259C16.3504 2.13752 15.2532 2.31959 14.2977 2.83063C13.3423 3.34168 12.5818 4.15324 12.1338 5.13985C11.6859 6.12645 11.5754 7.23315 11.8195 8.28883C9.86249 8.19063 7.94794 7.68224 6.19998 6.79663C4.45203 5.91103 2.90969 4.66797 1.67297 3.14805C1.0444 4.23178 0.852057 5.51418 1.13503 6.73463C1.418 7.95507 2.15506 9.02198 3.19641 9.71852C2.41463 9.6937 1.64998 9.48322 0.965625 9.10446V9.1654C0.964925 10.3027 1.3581 11.4051 2.07831 12.2853C2.79852 13.1655 3.80132 13.7691 4.91625 13.9935C4.19206 14.1917 3.43198 14.2205 2.69484 14.0779C3.00945 15.056 3.62157 15.9114 4.44577 16.5249C5.26997 17.1383 6.26512 17.4791 7.29234 17.4998C5.54842 18.8696 3.39417 19.6127 1.17656 19.6091C0.783287 19.6085 0.390399 19.5844 0 19.537C2.25286 20.9823 4.87353 21.7499 7.55016 21.7485Z" fill="#E4E7EC"/>
</svg>