<svg width="36" height="36" viewBox="0 0 36 36" fill="none" xmlns="http://www.w3.org/2000/svg">
<rect x="2" y="2" width="32" height="32" rx="16" fill="#D1F0FF"/>
<rect x="2" y="2" width="32" height="32" rx="16" stroke="#F2FBFF" stroke-width="4"/>
<path d="M23.3337 24V22.6667C23.3337 21.9594 23.0527 21.2811 22.5526 20.781C22.0525 20.281 21.3742 20 20.667 20H15.3337C14.6264 20 13.9481 20.281 13.448 20.781C12.9479 21.2811 12.667 21.9594 12.667 22.6667V24M20.667 14.6667C20.667 16.1394 19.4731 17.3333 18.0003 17.3333C16.5276 17.3333 15.3337 16.1394 15.3337 14.6667C15.3337 13.1939 16.5276 12 18.0003 12C19.4731 12 20.667 13.1939 20.667 14.6667Z" stroke="#1C75BC" stroke-width="1.33333" stroke-linecap="round" stroke-linejoin="round"/>
</svg>
